<mxfile host="app.diagrams.net" agent="Mozilla/5.0 (Windows NT 10.0; Win64; x64; rv:133.0) Gecko/20100101 Firefox/133.0" version="25.0.3">
  <diagram name="Page-1" id="J_T5Tx8plBtzuQVtQ5vs">
    <mxGraphModel dx="2537" dy="1019" grid="1" gridSize="10" guides="1" tooltips="1" connect="1" arrows="1" fold="1" page="1" pageScale="1" pageWidth="850" pageHeight="1100" math="0" shadow="0">
      <root>
        <mxCell id="0" />
        <mxCell id="1" parent="0" />
        <mxCell id="SD4ct3XgBwR6_ARI4saU-3" value="" style="shape=image;verticalLabelPosition=bottom;labelBackgroundColor=default;verticalAlign=top;aspect=fixed;imageAspect=0;image=data:image/png,iVBORw0KGgoAAAANSUhEUgAAA8wAAAJeCAYAAABh8YySAAAAx3pUWHRSYXcgcHJvZmlsZSB0eXBlIGV4aWYAAHjabVBRDsMgCP33FDsCAlo8jrUu2Q12/KFgUpu9xgd9IAKhfz/v8BrAyIHTIbnkDAouXLCqI2CokyPw5InWgFzd9JA64PRQpZFiaSDZbFy6X1g2VvXSrZA0D5x7oLBZlEchf4hGR6OFywsVL0RogegFqo0FuchxH+HssEPshEHNx4v+2vOfD93elVQkxE4qKxNla4DG4UBVAziZNTHqVzWpTF6j6kL+7Wkh/AApClp0/QVOfgAAAYRpQ0NQSUNDIHByb2ZpbGUAAHicfZE9SMNAHMVfU0UpVQc7FHHIUHWxi4o4lioWwUJpK7TqYHLpFzRpSFJcHAXXgoMfi1UHF2ddHVwFQfADxNnBSdFFSvxfUmgR48FxP97de9y9A4RmlalmTwxQNctIJ+JiLr8q9r0iiEEEMIGwxEw9mVnMwnN83cPH17soz/I+9+cYUAomA3wicYzphkW8QTy7aemc94lDrCwpxOfEkwZdkPiR67LLb5xLDgs8M2Rk0/PEIWKx1MVyF7OyoRLPEEcUVaN8IeeywnmLs1qts/Y9+QuDBW0lw3Wao0hgCUmkIEJGHRVUYSFKq0aKiTTtxz38I44/RS6ZXBUwciygBhWS4wf/g9/dmsXpKTcpGAd6X2z7Ywzo2wVaDdv+Prbt1gngfwautI6/1gTmPklvdLTIETC0DVxcdzR5D7jcAcJPumRIjuSnKRSLwPsZfVMeGL4FAmtub+19nD4AWepq+QY4OATGS5S97vHu/u7e/j3T7u8HtT1ywd3hFCQAAA12aVRYdFhNTDpjb20uYWRvYmUueG1wAAAAAAA8P3hwYWNrZXQgYmVnaW49Iu+7vyIgaWQ9Ilc1TTBNcENlaGlIenJlU3pOVGN6a2M5ZCI/Pgo8eDp4bXBtZXRhIHhtbG5zOng9ImFkb2JlOm5zOm1ldGEvIiB4OnhtcHRrPSJYTVAgQ29yZSA0LjQuMC1FeGl2MiI+CiA8cmRmOlJERiB4bWxuczpyZGY9Imh0dHA6Ly93d3cudzMub3JnLzE5OTkvMDIvMjItcmRmLXN5bnRheC1ucyMiPgogIDxyZGY6RGVzY3JpcHRpb24gcmRmOmFib3V0PSIiCiAgICB4bWxuczp4bXBNTT0iaHR0cDovL25zLmFkb2JlLmNvbS94YXAvMS4wL21tLyIKICAgIHhtbG5zOnN0RXZ0PSJodHRwOi8vbnMuYWRvYmUuY29tL3hhcC8xLjAvc1R5cGUvUmVzb3VyY2VFdmVudCMiCiAgICB4bWxuczpkYz0iaHR0cDovL3B1cmwub3JnL2RjL2VsZW1lbnRzLzEuMS8iCiAgICB4bWxuczpHSU1QPSJodHRwOi8vd3d3LmdpbXAub3JnL3htcC8iCiAgICB4bWxuczp0aWZmPSJodHRwOi8vbnMuYWRvYmUuY29tL3RpZmYvMS4wLyIKICAgIHhtbG5zOnhtcD0iaHR0cDovL25zLmFkb2JlLmNvbS94YXAvMS4wLyIKICAgeG1wTU06RG9jdW1lbnRJRD0iZ2ltcDpkb2NpZDpnaW1wOjJkNzhmYjY5LTU3NjAtNDU2NS05MGRkLTU2NzgyZDcyZTE2YyIKICAgeG1wTU06SW5zdGFuY2VJRD0ieG1wLmlpZDo4NDdkNDc2My05ODQ5LTRjYTAtYmI5OS04MTA0MTFjYTFiMzUiCiAgIHhtcE1NOk9yaWdpbmFsRG9jdW1lbnRJRD0ieG1wLmRpZDo4NTEyOWQ2OC00YzM0LTQ0YzktYjIxZC04MWFjMzVkYzIzYzIiCiAgIGRjOkZvcm1hdD0iaW1hZ2UvcG5nIgogICBHSU1QOkFQST0iMi4wIgogICBHSU1QOlBsYXRmb3JtPSJXaW5kb3dzIgogICBHSU1QOlRpbWVTdGFtcD0iMTczNDE3Mjc3NTg4ODk2NiIKICAgR0lNUDpWZXJzaW9uPSIyLjEwLjM2IgogICB0aWZmOk9yaWVudGF0aW9uPSIxIgogICB4bXA6Q3JlYXRvclRvb2w9IkdJTVAgMi4xMCIKICAgeG1wOk1ldGFkYXRhRGF0ZT0iMjAyNDoxMjoxNFQxMTozOTozNSswMTowMCIKICAgeG1wOk1vZGlmeURhdGU9IjIwMjQ6MTI6MTRUMTE6Mzk6MzUrMDE6MDAiPgogICA8eG1wTU06SGlzdG9yeT4KICAgIDxyZGY6U2VxPgogICAgIDxyZGY6bGkKICAgICAgc3RFdnQ6YWN0aW9uPSJzYXZlZCIKICAgICAgc3RFdnQ6Y2hhbmdlZD0iLyIKICAgICAgc3RFdnQ6aW5zdGFuY2VJRD0ieG1wLmlpZDpkYjAzZTgxNC0xYjE5LTQwMmQtYWE2NS0wOGRmYTRiNDZlOTAiCiAgICAgIHN0RXZ0OnNvZnR3YXJlQWdlbnQ9IkdpbXAgMi4xMCAoV2luZG93cykiCiAgICAgIHN0RXZ0OndoZW49IjIwMjQtMTItMTRUMTE6Mzk6MzUiLz4KICAgIDwvcmRmOlNlcT4KICAgPC94bXBNTTpIaXN0b3J5PgogIDwvcmRmOkRlc2NyaXB0aW9uPgogPC9yZGY6UkRGPgo8L3g6eG1wbWV0YT4KICAgICAgICAgICAgICAgICAgICAgICAgICAgICAgICAgICAgICAgICAgICAgICAgICAgICAgICAgICAgICAgICAgICAgICAgICAgICAgICAgICAgICAgICAgICAgICAgICAgIAogICAgICAgICAgICAgICAgICAgICAgICAgICAgICAgICAgICAgICAgICAgICAgICAgICAgICAgICAgICAgICAgICAgICAgICAgICAgICAgICAgICAgICAgICAgICAgICAgICAgCiAgICAgICAgICAgICAgICAgICAgICAgICAgICAgICAgICAgICAgICAgICAgICAgICAgICAgICAgICAgICAgICAgICAgICAgICAgICAgICAgICAgICAgICAgICAgICAgICAgICAKICAgICAgICAgICAgICAgICAgICAgICAgICAgICAgICAgICAgICAgICAgICAgICAgICAgICAgICAgICAgICAgICAgICAgICAgICAgICAgICAgICAgICAgICAgICAgICAgICAgIAogICAgICAgICAgICAgICAgICAgICAgICAgICAgICAgICAgICAgICAgICAgICAgICAgICAgICAgICAgICAgICAgICAgICAgICAgICAgICAgICAgICAgICAgICAgICAgICAgICAgCiAgICAgICAgICAgICAgICAgICAgICAgICAgICAgICAgICAgICAgICAgICAgICAgICAgICAgICAgICAgICAgICAgICAgICAgICAgICAgICAgICAgICAgICAgICAgICAgICAgICAKICAgICAgICAgICAgICAgICAgICAgICAgICAgICAgICAgICAgICAgICAgICAgICAgICAgICAgICAgICAgICAgICAgICAgICAgICAgICAgICAgICAgICAgICAgICAgICAgICAgIAogICAgICAgICAgICAgICAgICAgICAgICAgICAgICAgICAgICAgICAgICAgICAgICAgICAgICAgICAgICAgICAgICAgICAgICAgICAgICAgICAgICAgICAgICAgICAgICAgICAgCiAgICAgICAgICAgICAgICAgICAgICAgICAgICAgICAgICAgICAgICAgICAgICAgICAgICAgICAgICAgICAgICAgICAgICAgICAgICAgICAgICAgICAgICAgICAgICAgICAgICAKICAgICAgICAgICAgICAgICAgICAgICAgICAgICAgICAgICAgICAgICAgICAgICAgICAgICAgICAgICAgICAgICAgICAgICAgICAgICAgICAgICAgICAgICAgICAgICAgICAgIAogICAgICAgICAgICAgICAgICAgICAgICAgICAgICAgICAgICAgICAgICAgICAgICAgICAgICAgICAgICAgICAgICAgICAgICAgICAgICAgICAgICAgICAgICAgICAgICAgICAgCiAgICAgICAgICAgICAgICAgICAgICAgICAgICAgICAgICAgICAgICAgICAgICAgICAgICAgICAgICAgICAgICAgICAgICAgICAgICAgICAgICAgICAgICAgICAgICAgICAgICAKICAgICAgICAgICAgICAgICAgICAgICAgICAgICAgICAgICAgICAgICAgICAgICAgICAgICAgICAgICAgICAgICAgICAgICAgICAgICAgICAgICAgICAgICAgICAgICAgICAgIAogICAgICAgICAgICAgICAgICAgICAgICAgICAgICAgICAgICAgICAgICAgICAgICAgICAgICAgICAgICAgICAgICAgICAgICAgICAgICAgICAgICAgICAgICAgICAgICAgICAgCiAgICAgICAgICAgICAgICAgICAgICAgICAgICAgICAgICAgICAgICAgICAgICAgICAgICAgICAgICAgICAgICAgICAgICAgICAgICAgICAgICAgICAgICAgICAgICAgICAgICAKICAgICAgICAgICAgICAgICAgICAgICAgICAgICAgICAgICAgICAgICAgICAgICAgICAgICAgICAgICAgICAgICAgICAgICAgICAgICAgICAgICAgICAgICAgICAgICAgICAgIAogICAgICAgICAgICAgICAgICAgICAgICAgICAgICAgICAgICAgICAgICAgICAgICAgICAgICAgICAgICAgICAgICAgICAgICAgICAgICAgICAgICAgICAgICAgICAgICAgICAgCiAgICAgICAgICAgICAgICAgICAgICAgICAgICAgICAgICAgICAgICAgICAgICAgICAgICAgICAgICAgICAgICAgICAgICAgICAgICAgICAgICAgICAgICAgICAgICAgICAgICAKICAgICAgICAgICAgICAgICAgICAgICAgICAgICAgICAgICAgICAgICAgICAgICAgICAgICAgICAgICAgICAgICAgICAgICAgICAgICAgICAgICAgICAgICAgICAgICAgICAgIAogICAgICAgICAgICAgICAgICAgICAgICAgICAgICAgICAgICAgICAgICAgICAgICAgICAgICAgICAgICAgICAgICAgICAgICAgICAgICAgICAgICAgICAgICAgICAgICAgICAgCiAgICAgICAgICAgICAgICAgICAgICAgICAgIAo8P3hwYWNrZXQgZW5kPSJ3Ij8+CsNGBQAAAAZiS0dEAP8A/wD/oL2nkwAAAAlwSFlzAAAOwwAADsMBx2+oZAAAAAd0SU1FB+gMDgonI2bZ77wAACAASURBVHja7J15XM3ZG8c/ZS2G+VmzbyHaJKWIUtZMGRTGviaJiWEaa5EaoclODBlbg7KTXXZJ2cpSSlIpRfut213O748z2SXa7r0979er17zmq3vu7XO/5/meZznPUWKMMcgSBR9HSQkE6URalYNWpBPdU6QVaUW2iu4pgiAIAgBQydXV1VVmPk1UFHD8OBAWBtSoAdStS9/Q53j6FAgMBG7dAmrWBOrVI00+h0QChIcDmzbxxUKVKkCtWqTL58jKAh4/BtzcgKZNARUVoHp10uVzJCYC9+4BW7fyuVevHqCsTLp8jshI4NgxrpeqKtn0LyEWc1u1bh1QrRq3VT/8QLp8jowM4MkTYNkyoEkTvlaoVo10+RwJCUBoKLBzJ1CnDlC/PjnOBEEQ34GSTGSYExK4Qc/JAbS0+OLz/n3+IBw9GmjWjL4pAEhKAnx9uU4dOnCHJiyMO82//AK0bEkaFXDjBnDxIncEBw0CLl/mutWsCTg58QUpwfn3Xx6sEgiAiROB7du5c9O6NTBqFOnzvlOzejW/p6pXB3r3Bg4e5I6NqSnQvTtpVEB8PLBrF59zOjo8y/XgAbfpY8dyR4fgXL3K7VNWFmBjA5w+DeTn8/vKyQmoVIk0KmD3buDZs09tVbt2wPDhpE8B+fncVhU880xMgKNH+T1lYQF07UoaEQRByI3DnJ/PH3yursDQoUCnTu+i6tnZwJ07/AHZqBEwfz5QtWrF/JZEIv7gK9BJV/ddpjQnhzvNfn7A//4HuLhUXJ0AIDcXiInhjoyFBWBk9C77l5DAM16rV/MAg61txV2MMsbn2IkTfB527syDVQVERAB37wJ79wIrV/IATUXNTEilXCsvL+4Yt2vHs/AFOt68yYMz9+8D27Zxp7AiL9RzcoAlS7it0tPjC/b3bfrOnTwI+scfFdtWCQQ8UxoYCPTqxW1VwRx78eKdrZowAfj554pbxVBgqw4f5va6UyegY8d3//7gAX8G7t8PrFkDqKtX3HtKIuHzz9MT6NOH26rGjd/ZsZs3gbNneZXali28koggCIKQYYf5wgW+IA8OBnx8gB9//LKzeOsWzxjq6XEnqCIRFMR1un6dlxZ/qaRRLOaLhqAg7vz07l3xFuqnTnGdhEJg1arPO8OM8Xtq926eZdbR4QGIisTLl3xOHTzIHcDx4z+/GJdK+X3l6sozEl26VLzM4P37fEF+6BAwdy5gaPj5wIFEAqSn84Vq9+5A//4Vr0z0/HnuEIeE8HL1L21/EIm43Q8O5jbd3Lxi6ZSXx7PIV67weffnn4Xbqu3buZba2vynIhEfD9y+DQQEAH378oqXwmzV4sWAsTG3V2pqFUuru3e5vTp6FFi4kD/XvmSrUlJ4cMHYGBgwgCquCIIgZM5hjowE/voL0NDgBr1Xr6K97tIlvhh7/Bj49Vee8VJkoqN5Zq99e+7UFTVQcOUKd5wfPQKmT+dZQ0XODDIGnDzJf7S0+P2koVG01/77L9c5MZE72IoebWeMZ0lTUoBWrfjisyj7JHNyeHltbCwPbDk7K362WSgE5swBGjbkWo0cWbS/OSqKO47h4XyBb2Wl+Fo9fswzoRoa3AE2NS3a6wqCgY8fA7Nn82yYos+/I0f4/aGpyYOaRcmGMsYrPWJi+NxdtUrxM/OMAcuXA5mZQIsWvIxfVfXrr8vM5Fo9e8bn7qxZij//cnO5rWrcmN9PRS1Nf/SIz8HwcGDgQO440/5mgiCIcnaY09O5Y7JtGzBzJi+z/taHvkjEx1i3jpepNW7My5AViYwM/jdu2cL3rxVHpw0b3u0XVDSdAJ4pDQ/nD/7Bg3mZ7Lc+8LOy+CJ07VrAwYEvzhQtM8gYX2yfPMkDTTo6QIMG3z5OSsq7Um0rK77HWdEWWPn5PDCweTO/Hxo0+PZGcYzxzNjRo0CbNlzvgrJIRSItjdsZX19gxgz+N35rpio/n8/jtWuBSZP4GF+qNpJnEhP5vHn+nM+dJk2+fe5kZgLJyfzenDqV96xQNMeZMR7EPHaMV0ppan5fU8tXr7jeUVHcEWzVSvFsVV4eEBcHbNzI11QNGrzb/vCttioggFcvdOzI1xwEQRBEOTjMO3bwPVkZGYC7e/Edkvx8vqe5Vi3uJE2YoBgPw507+YIqLY3rVNyMp1jMdapZky9EJ01SDJ0EAh5QSEnhJeqzZxd/zJgYvmhv3JhXPvTrpxgzvGCP5IsXPPv+00/FHzMwEDh3ju9D7dv3w/2E8sy5c7yKJSGBO8slkfFcs4Y7OQ0a8PmnCJ2PGeNOcnw8d+I8PIrvuAmFwIIFQO3a72y6IpCZyUuqX73iJcIzZxZ/zMePudPcpAl3KhVlm1JEBHDmDLdVffvybQ3F5ehRXp3WrBlgaak4VQynTvHy68REXnHXqlXxx1y1iic26tcHpkwpWkafIAiCHOYSWFTl5XFnuV49Xi5b0mXUjx7xh+yuXcDvvwPdusmfQ1ig0+7dfDGtrc2j6iXtNEVEcIfcyYmXTMqj4yyR8GDJkiXc+dPRKflo+PXrfM/cxYvvjg2SR0QivvhZsYI3fzE1LdnMeX4+L+c7f56XBHp5ye8+OKGQN8MJCwMMDHhH2ZIkOZlnu3buBMzMeHdfeWw2V2Crtm/n5a6amqVj08PDuT2cN4/vRZVnW7V4MS+91tP7vqqOwrh6le8Xv3qVV27Ja2ZeJHpX5WNuzm17SdqSvDzehfz0aX4v/fmn/NqqvDy+7erxY95Twti4ZMdPTOQ9G3x9ecBizBjq0k4QBFFqDnNsLPDwIX+Ijx7Nj/UprQ6fUilf8Hp58UVJx44lE20tC+LiuCO7bRvfdzR0aOnpVLDYXb2aBy80NXlJrbxw9y4/y/XgQd5YqX370ltIi8X8nlq0iGeajYx45ktenJqgIODaNe58bNtWuucp5+fz7Pz+/bzZVa9e8tPNNyuLB0gOHeIZKGdnoHLl0vtehEJeapqVxTv9du4sP/Pv2bN3Nn3cOF5WXNo2feVKQF+f2yp5OjIvNJTbq6NHAW/v0i0HFot5wMrFhduqbt3kp4pBKuWByatX+f3l41O622Hy87mjeewY18nMTH6CMenpvEnegQP82TdrVunaqrw8bhfFYh6Y7tSJVssEQZDDXKIjJifzvbMNGgD29qVn1D9GIuFlaq9e8f93dZXth2FqKo+o16/PdSqriLdUynVKTuaaubnJ/qLh+nXuBKqrA8OGld37Jifz47pevuSBmHHjZH9G//MP8Po1XxAaGZXd+4aE8MzHixf8uK5u3WQ/sLBsGXcuhg0r2z3GAQG8+WFyMu9mK+tVDElJvEN/gU0vq4yTWPzOpisrc6dQ1m3VpUvcXrVvDwwZUnbvm5DAnanERO7cjBwp+7bq7795yXrPnjxbWlbcuMG/oxcveONDAwPZ1qngOf3jj/w4xIYNy+699+3je8pfveKVXfISOCYIgpBJh1kq5Q+fnTt5+a+3N3cEy4OUFB6tXrAAmDZNts6vlEr5vr89e/j+ozVrSr5M71sc9ufPednj5Mk8uy1LpVe5ufwhvXAhb5w0Z863NzQpKeLi+AJr2zYe5JC1Du1paXz+zZnD934OG1Y+36VEwrPNe/fycz7XrpW9ZnMvX3LH/u+/ebf+98+eLktycriT4+LCMzhOTrLVpb3Apu/YwRfMXl7la9NjYrgtmD4dsLaWrSoGgYB/Rmdn/l3++mv5ncUdG8vLj/fs4YFrWTuT+M0b/hmdnXnwZfDg8vkuJRJ+X//zD7cJXl6yZ6sSE3kGfudObkvbty+fz5GVxT/LggU8COvoWLpVSwRBEArpMIeF8YhteDiPapuYlH8WoOBP+vtvXoZlZMRL+8qTgrOUw8O5QyML+4gLdPL15Ys+Q0P+U96cOMHLP6OjeaVAw4ayo5WrK983bW1d/p2PJRLu0Dx/zktYly//b1bLgFYFlSYtWvBznsuq0uRLJCfzEsPISO4kFzSVkgWtLl3i52J36MBLncub0FC+pzs8nG+pkYXeEAXzb8sWnnk2NpaNkvYjR3iZ77NnvFFjnTqyoRVjPBjTpAnPdJdXYLYAsZg/Z+LieDBm2TLZmX/x8XytUGCryjsYk5DAy8YfP+brltGjZUerc+f41qiOHXkTNYIgCHKYi/AAfPaMR7INDPjRDbK2d1Eq5d0kb9/mUe1Nm3jpc1l+TrGYZ2p8fbkzOmCA7DXRYIzrFBrKj+Hw8eE6lfXnFIn454iP552qZbGsNzOTR/3PnOHdfH/7jWtVlosZxrhW3t48+66rC7RtK3taPX3KKyn27eOljwMGlH2zHYmEa7VwIdCjBw9UyWJzpJs3+UL07Fm+d7dZs7IPMojFPJPr58dtev/+smnTAwO5TS84UqesbTpjXKujR/n2B11d3pxM1khL49nmwEBuH2bMKD9btXIlDwjp6nKbJWtERnJbtX8/b8pnYVE+tqqgd0bPnrwfxLceaVcWXLvGbdWFC7xKrmHD8g+IEgRByJzDLBLxjPKJE7xUx9tb9s+tFQp5CbK9PY+KTppU+udXisVcp8DAd/uVZb2MSSjkiyw7O36sx5QpZfPdvn7Nm59t3swzR9Omyf4DWCDgWcGVK3kDlt69y+Z9o6N5M69Nm3gJtqw3rmEMyM7mpY/Xr/N9cGXl3N++zRvlnDrFy+nLO8tWFJshEPDvtV49flxaWexvzs/nDvuxY+86nsuDTX/1itsKKyvu5JSFg5OSwuffhg28o/OkSbJvq3JyeGOtdev4aRI9e5bN+0ZFcbu+dSsv5zU2lg9btXUrrwhzcSk75/7WrXe9Onx9Za88/Eu26tdfeeB41ixeXUEQBEEO839s2MAd5Z9+Kr/9f8Xh2DH+YDIzK92zdjdv5p0tBwzgUXV54+RJvsgyMSnd0iuhkB/zUb06D2jI29EojPE5ER/PF+2lec5nZCTP/tWvzx0FeTtuJz2dZyQKjtspTacsMJBvF9HTk8/SwXv3AH9/XvY/bVrpvte6ddypsrIq+SPtyoKjR3lw0tycH6FWWggEvEO/igrfx1lePRWKY6vWrOFN3KZOLd3TJCIieHM7NTUegJU3Xr8G1q/njqGLS+kGRY4e5dsfunThgWp5IzQUOHyYl7RPnkyraoIgKrDDnJbG95QuWcJLUPv2lc+zMQsWDY8e8TMZg4J45qmksjjp6Xzf0eLFPPJqaSnfOj1+zEtEz54t2QwdYzxTc+wYf9B6e8tec5pvdfqfPOGZiSpVeEfTkmr6IxZzrVau5I6mq6v8ng1dsBCNi+NzZNAg3nm8pDKDOTm8qdD06Tzjb2cn381pnj/nZaLr1vE9nwYGJWdP0tL4It3NjWcdLSzk36YHBvIg399/A3XrltzYr17x/e+BgdzhlKcjrj4mN5dnfjdu5MHJxYsBVdWSGVsk4tVU7u68gmvBgpL7HsqDlBRuqxYt4t2pf/ml5BznnByulYMDMHAgr1SQ9aqOwnj2jAcofXyAFSt4kkBe7QlBEMR3OcxRUdwR+OEHvg8QUAxDyBjPGLi5ARoa/Cic4jg5MTG8IU21atypUSSd8vJ4sERDg3fTLu45n1evArt28UW6ra1iaRURwYMA7dsDNjbF+7sY4zpdvMjLc7W0FEcngB+Dk5LCj8Hp3r14Y2Zlccfy2bN32x8USSsPD97AqUeP4peJRkZym167NndqFGn+5eTw4IKGBm+uWFxnMCiId30fMICfuKBIWt25w7craGgU/wgsxoDt27lt/+MPXmmjSPNvzx5uY/T0in9cX3o6z16/eMFtVlnvKy9trZYu5dlmMzP5Di4RBEF81WFmjDdXmT+fG3IHB6B5c8VU4MUL/pA/f54b+F9+4Q1kivIAK9Bp8WIeXXdwUNwHREICbyBz4QJ3bsaMKbpOANcpO5tn/7S1eQMaWTpGpyQJC+N74M6f55UGXbp8W1MiqZSXua1ezRfpBUEFReTkSZ7pfPCAl7bXrFl0rQrm3+7dfA5PnVq257mWJXl5PBATFsazXG5u3zb/CrT64w/+egcH3lhMEYmL442Jzp3jQbnhw7/dVmVkcBvVuTO3WfKc/SuMkBBe/n/xIq800Nb+dlt14wbPWNvavgsqKCLHj3NbVdBDonr1b7dV27fz3gr29tz5VkQEAt49PjSU2/NFi75t/hEEQciFwxwZyRf727fzY2rU1eVvr9a3whiP+h4/zrtkenryYxMK4+lTvtDYupWXoLVvr/g6AVynwEAecf/zT77A+pq2d+7wxWtwMN/b/cMPin+Oo0TCtfL25lnUguOovrbQCA/nc69uXZ5V/vFH2euqXhrOYFYW36traMgdlK9VeyQl8QZof/7Jj7OztJS//e/fQ3Y2L/9fsIAvugcN+vpCNDKSz0FfX14u2bp1xbHpR4/yvbSenl8/P10q5TqdPs1t+4YN3FYpqrP8sa1avpyXbC9cyPcef+0+fPiQl+A2b873dP/vf7LXVb00bFVGBg/OmZryOfi1wG9i4jtbNXEi3y5SEWxVVhZ/ni1ZAsycyas0yGkmCEIhHOaQEN79ukWLd+eUVjTy8/miUizmRv5znR/DwvhCrFkzvveoIiIW80WoSMQdnPr1P/97AQE8e2hqyo/JqIg8f86dlZo1eQ+Azy0aGOPdibOz+dxr0aJianXxIj+XWFubl/9/jtRUXtJYpQrg7FxxjzTZto1XyFhbf/lM4lu3eBa/VSu+X7wiIhRymy6R8IqPL3Ug/vdf3rfBwoKXvldEnj7lFRu1awNOTp+3VVIp76mQm8tPUmjSpGJqdeYMbyCqp8cDV5/j5UseVKheHZg7V/GDn19i82Ye5BwyBNDRoZU3QRBy6DALhQxZWXwh37w5Px5A1o80KG3S03lWZvVqQF+fOzA1a/KIqbMzb341Zw4do5CZyReY69bx/bWTJ/N7Jy8PSE7mZZ82NsDYsWV/pqWs8eIF7wewciUPMPTowRelGRm8nHj9el7ab2xMVikigh9z5O/PSz0bNuQLzvR03tDp/n2+p1dRt4kUFbGYZ0QPH+aL0RUr+LmtjHFbNWsWd5RnzaoYGa2i2HRvb17FMG4ct1UCAd9uMnMmPyu8JBs7yStxcbyKwcuLrwu6duX3VXo6D2ht3cq3BOjrk6168ICX/x89yh3jevV4RUJaGi/bjo7mWjVtWrF1Eol45eKBA9w2LVvG76mKvi4gCEJ+HOagtXeZ6Q1PvpBv1EjxS6q+BYmElxLv2sU71AYH87K1pk1Jp491Kjg/sn9/nqVITuaOdKVKVIZVQME+tg0beKChZ0/gyhVezj99Ou3z+lgriYTvI23YkG8NOXUKGD+eVypU1EzN55BK+bFmf/wBdOvG///mTe7wNGxItupjW3XmDG/k1b8/n4fp6Tw4SvPvU1vl7c0d6G7duI3X1eXd50mrD+efWMxteLNmvI/J6dO8bLt7d7JVH2v17BmwaBHye1jgts4EdOtO9okgCDlwmPv1Y+zUKRKiMERCITbY2MDp2DESo7C1qEgEx3r1YOnsDKv580mQQngWEoIlhoZYHByM1oaGJEghHPPwwElPT6xPTUUlykgUiqe5OaqoqGD2iRMkRiHk5+bCsW5dDFm2DP1nzyZBCuHxpUtYbmYGt3v30IzKaQvl4KJFuLh5M9YkJ0OZAlWFssh4AJ40OYb9/pVJDIIgZB6y6EVACuA8yVAknfYCeEBSfJVUAP/891+icB78d19JSYqvcppsVZGQANgN4CFJ8VWS/7NVaSTFV7kD4F+SoUicI5tOEAQ5zARBEARBEARBEARBDjNBEARBEARBEARBkMNMEARBEARBEARBEOQwEwRBEARBEARBEAQ5zARBEARBEARBEARBkMNMEARBEARBEARBEOQwEwRBEARBEARBEAQ5zARBEARBEARBEARBDjNBEARBEARBEARBkMNMEARBEARBEARBEOQwEwRBEARBEARBEAQ5zARBEARBEARBEARBDjNBEARBEARBEARBkMNMEARBEARBEARBEOQwc4RCIZydndG4cWOoqKiga9euOHv2bLHGlEqlWLFiBVq1aoXq1atDR0cHfn5+cit8dnY2XFxc0L9/f9SpUwdKSkrYsWNHiYy9bds2dOjQAdWrV0fbtm2xbt06ub5JQ0JC4OjoCE1NTdSoUQPNmzfHsGHDEBkZSVp9REREBGxtbdG6dWuoqqqiXr166NmzJ44dO0ZaFYK7uzuUlJSgpaVFduojgoKCoKSk9NmfmzdvklafISwsDNbW1qhTpw5UVVWhpaWFtWvXklbvMX78+C/eV0pKSkhISCCt/iMqKgojRoxA06ZNoaqqCg0NDSxduhQCgYDuKYIgiDKgcmk9CP39/eHk5IS2bdtix44dsLS0xMWLF2FiYvJdYy5YsADLly/HlClTYGBggCNHjmDkyJFQUlLCiBEj5E741NRULF26FM2bN4euri6CgoJKZFwfHx/Y29tj6NChmD17Nq5cuYKZM2dCIBDA2dlZLm9ST09PXLt2Dba2ttDR0UFSUhLWr1+Pzp074+bNm9/t5CiiVs+fP0dWVhbGjRuHxo0bQyAQICAgANbW1vDx8YGdnR1p9RHx8fHw8PBAjRo1ij2Wotmp95k5cyYMDAw+uKaurk5afcSZM2dgZWUFPT09LFq0CDVr1kR0dDTi4+NJq/eYOnUqevfu/cE1xhjs7e3RsmVLNGnShLQC8OLFCxgaGqJ27dpwdHREnTp1cOPGDbi4uCA0NBRHjhwhnQiCIEqbfv1YiRIcHMwAsJUrV769lpuby9q0acOMjY2/a8z4+HhWpUoVNn369LfXpFIp69GjB2vatCkTi8WsNMnLy2M//fRTiY/58uVLxhhjISEhDADz9fUt1pgCgYDVrVuXDRw48IPro0aNYjVq1GBv3rwpVZ3y8/NZrVq1mLu7e4mOe+3aNSYUCj+4FhkZyapVq8ZGjRoll1rdunWLAWDBwcGstBGLxUxXV5e1b99eLrVyd3dntWrVYvn5+aUy/vDhw5m5uTkzNTVlmpqa3z1Oedspxhjr1asXs7S0LNExL168yACwAwcOlNiY5a2VQCBgKioqzMvLq0THzcjIYA0bNmSDBw9mEolEIbQKCgpiANi9e/dK/f69cuUKA/Ddz5Dy1mrhwoWsXr16JfbdF9g/ACw8PPyD62PHjmUAvsv+yoKtMjLqz4YOFTGCIAh5oMRLsv39/VGpUqUPMlnVq1fHpEmTcOPGDbx48eKbxzxy5AhEIhEcHBzeXlNSUsK0adMQHx+PGzduyF2golq1alBTUyvRMS9evIjXr19/oBMATJ8+HTk5OThx4oRcBnW6deuGqlWrfnCtbdu20NTUxKNHj0irr1CpUiU0a9YM6enppNVHXL58Gf7+/li9enWxx1JEO/UxWVlZEIvFpNUX2Lt3L5KTk+Hu7g5lZWXk5ORAKpWSVt+gn5KSEkaOHEla/UdmZiYAoGHDhh9cb9SoEZSVlT95NtI9RRAEUfKUuMN8584dtGvXDrVq1frguqGhIQDg7t273zVmjRo10KFDh8+OeefOHfom39OhS5cuH1zX19eHsrKyQunEGENycjLq1atHWn2GnJwcpKamIjo6Gt7e3ggMDISFhQVp9R4SiQQzZszA5MmToa2tXSLzT5Ht1IQJE1CrVi1Ur14dvXr1wu3bt0mrjzh37hxq1aqFhIQEtG/fHjVr1kStWrUwbdo05OXlkVaFIBKJsH//fnTr1g0tW7Ykrf7DzMwMADBp0iTcvXsXL168wL59+7Bp0ybMnDnzu7aS0JqKIAji2yjxPcwvX75Eo0aNPrlecC0xMfG7xmzYsCGUlJRKbExF5OXLl6hUqRIaNGjwwfWqVauibt26CqXTnj17kJCQgKVLl5JWn+G3336Dj48PAEBZWRlDhgzB+vXrSav32Lx5M54/f45z586V2PxTRDtVtWpVDB06FJaWlqhXrx4ePnyIVatWoUePHrh+/Tr09PRIq/+IioqCWCzGoEGDMGnSJPz5558ICgrCunXrkJ6e/l1NlSrK8+/06dN4/fo1Ro0aRXPwPfr37w83Nzd4eHjg6NGjb68vWLAAy5YtI50IgiDk0WHOzc1FtWrVPrlevXr1t/8uC2MqIrm5uV8sz6pevbrC6PT48WNMnz4dxsbGGDduHGn1GZycnGBjY4PExETs378fEokE+fn5pNV/vH79GosXL8aiRYtQv359mbV9skC3bt3QrVu3t/9vbW0NGxsb6OjoYN68eTh16hRp9R/Z2dkQCASwt7d/2xV7yJAhyM/Ph4+PD5YuXYq2bduSVp9h7969qFKlCoYNG0Zz8CNatmyJnj17YujQoahbty5OnDgBDw8PqKmpwdHRkXQiCIKQN4dZRUUFQqHwk+sF5WgqKioyMaYioqKi8kWnKC8vTyF0SkpKwsCBA1G7du23++VJq0/R0NCAhoYGAGDs2LHo27cvrKysEBwc/ElWoSJqtXDhQtSpUwczZsyQadsnq6irq2PQoEE4ePAgJBLJN89DRdWq4HP/8ssvH1wfOXIkfHx8cOPGjW92mCvCfZWdnY0jR46gX79+qFu3Ls3B9/j3339hZ2eHyMhING3a9G0QRiqVwtnZGb/88ss3a0ZrKoIgiG+jxPcwN2rUCC9fvvzkesG1xo0bf9eYSUlJYIyV2JiKSKNGjSCRSPDq1asPrufn5+P169dyr1NGRgYGDBiA9PR0nDp1qlh/j6Jr9TE2NjYICQn5rrOrFU2rqKgobNmyBTNnzkRiYiJiY2MRGxuLvLw8iEQixMbG4s2bN2SnvkKzZs2Qn5+PnJwc0uo/Cj73xw2aCrYzpKWlkVaf4fDhwxAIBMUqx1ZUrTZu3Ag9Pb23znIB1tbWEAgE37XfmNZUBEEQ5ewwd+rUCZGRkW87OxYQHBz89t+/Z0yBQPBJR+TijKmIFOjwcTOe27dvQyqVyrVOeXl5sLKyQmRkJI4fP46OmB6wUQAAIABJREFUHTuSVt9AQYldRkZGhdcqISEBUqkUM2fORKtWrd7+BAcHIzIyEq1atfquvfEVzU7FxMSgevXqqFmzJmn1H/r6+m/vsfcp2BP6PeX/FeG+2rNnD2rWrAlra+ti23VF0yo5ORkSieST6yKRCAC+q2s9rakIgiDK2WG2sbGBRCLBli1b3l4TCoXw9fVF165d0axZs28ec9CgQahSpQo2btz49hpjDJs3b0aTJk0+2F9XkTE3N0edOnWwadOmD65v2rQJqqqqGDhwoFz+XRKJBMOHD8eNGzdw4MABGBsbk1Zf4OMscMHCaufOnVBRUfmuQIOiaaWlpYVDhw598qOpqYnmzZvj0KFDmDRpEtmp/0hJSfnk2r1793D06FH07dsXysrKpNV/FOy/3bZt2wfX//77b1SuXPltx2PS6sP769y5cxg8eDBUVVWLNZYiatWuXTvcuXPnk+ogPz8/KCsrQ0dHh3QiCIIobfr1K/nDnW1tbVnlypXZ3LlzmY+PD+vWrRurXLkyu3Tp0ge/5+LiwgCwixcvfnXMuXPnMgDMzs6Obd26lQ0cOJABYHv27Cn1w6rz8vLYTz/9VOLjrlu3jrm5ubFp06YxAGzIkCHMzc2Nubm5sfT09Le/5+vrywAwX1/fr465YcMGBoDZ2NiwrVu3srFjxzIAzN3dvdR1ys/PZ7Vq1Srx9/r1118ZAGZlZcV27dr1yc/7yItWt27dYgBYcHBwiY77888/M3Nzc+bq6sq2bt3K3NzcmIaGBgPAvLy85FIrd3d3VqtWLZafn1+q72Nqaso0NTU/uS4vdooxxnr16sUsLS1LZcxly5axLVu2MCcnJ6aqqspq167NHj58KJdaCQQCpqKi8smcKAkmTpzIALBhw4axDRs2MFtbWwaAzZs3Ty61CgoKYgDYvXv3SmX8devWMQDs1KlTX/wdedFq4cKFrF69ekwikZTYmJcuXWKVKlViDRo0YEuXLmUbNmxgAwYMYADY5MmT5dZWGRn1Z0OHihhBEIQ8UCoOc25uLpszZw5TU1Nj1apVYwYGBp99GP72229MSUmJPXr06KtjSiQS5uHhwVq0aMGqVq3KNDU12e7du8tEpNJymFu0aMEAfPbn2bNn37SgeJ8tW7aw9u3bs6pVq7I2bdowb29vJpVK5dZhNjU1/aJOPDDO5E6r0nKY/fz8WO/evVnDhg1Z5cqV2f/+9z/Wu3dvduTIke9aqMqCVuXtMMuLnSoth3nNmjXM0NCQ1alTh1WuXJk1atSIjR49mkVFRcmtVqXpMOfn5zNXV1fWokULVqVKFaaurs68vb3lVqvSdpiNjIxYgwYNmFgs/uLvyItWpeEwM8ZYcHAwGzBgAFNTU2NVqlRh7dq1Y+7u7kwkEsmtrSKHmSAIeUKpXz/GvuNUkBLB0NAQLVq0wIEDB2Q6Cy8UCmFjY4Njx46VW5lfbGwsbt26JdM6iUQi1KtXD87Ozpg/fz5pVQghISEwNDREcHAwDA0NSatC8PDwgKenJ1JTU1GlShWyU18pn1dRUcGJEyfIphdCbm4u6tati2XLlmH27NmkVSFcunQJZmZmuHfv3neV/1YkrRYtWoTNmzcjOTn5u7YqVCRbZWw8AE2aHIO/f2UQBEHIOuVmqTIzM3Hv3j38888/9C0UAmMMQUFB2L17N4lBWpFWZKdIK9KKtCJIJ4IgiIrgMNeqVeuz5wASH6KkpPTZRk4EaUVakZ0irUgr0oognQiCIEoXZZKAIAiCIAiCIAiCIMhhJgiCIAiCIAiCIAhymAmCIAiCIAiCIAiCHGaCIAiCIAiCIAiCIIeZIAiCIAiCIAiCIMhhJgiCIAiCIAiCIAhymAmCIAiCIAiCIAiCHGaCIAiCIAiCIAiCIIeZIAiCIAiCIAiCIMhhJgiCIAiCIAiCIAhymBWdmJgYSKVSEoIgCIIgCIIgCKICUWnUKFfXq1cBbW1ARYUEeZ+0tDSsWrUK8+fPR3JyMjIzM9GxY0fUqFGDxPmIsLAw+Pr6omHDhrh//z5SU1NhZGQEJSUlEucjDh48iOvXr0MqlSI+Ph75+fno0KEDCfMRjDF4e3tDIBAgJiYGGRkZqFWrFho1akTifERKSgr++usvNGzYEDdv3sSbN2+go6MDFTLqn3Dr1i3s2rULDRo0QHh4OF6/fo2uXbuSrfoM+/btQ2hoKIRCIRITEyEWi9G+fXsS5iOkUilWrVoFsViMJ0+eIDMzE//73//QsGFDEucjXr58idWrV0NNrRFu3kzD69cd0bkzUK0aaUMQhOyilJbG2OPHwLp1QOfOwIwZQNWqFVsUkUiElStX4vTp02jRogUcHBwAANu2bcOTJ0/Qq1cvLFiwAFUruFAikQjZ2dmYM2cO1NTUYG1tjXbt2uHJkydwcnKCqqoqHB0d8fPPP0NZuWIXMwgEAiQnJ8PBwQFDhw6FkZERfvzxRzx69AjTp09Ho0aN8M8//6Bly5YV3ihlZmbiypUrWL9+PebMmYN27dohMzMTp0+fxp49e9CmTRvs2LEDqqqqFX6RnpGRga1btyI8PBwODg5o3749oqKisGHDBsTGxqJv3774/fffUaVKlQqtVX5+PnJycvDrr7+idevWsLS0RNu2bfHkyRM4OjqiVq1amDNnDgYMGFDhHWeBQICEhATMnDkTI0aMgIGBAWrWrImIiAg4OTmhUaNG2Lt3Lxo3blzhbVVGRgYuXLiAv//+G3PnzoW6ujrS0tJw/PhxHDx4EO3bt8fWrVsrfOCqwFatX78ez549g52dHTQ0NPDkSQq8vU8gKWkkBg6sicmTVfHjjwDFrgiCkDmHmTHGAEAsBs6fB548AXR0ADOziinI5cuXcf/+fVy+fBne3t5QU1NDpUqV3hr91NRUODo6olu3btDR0YG5uXmF1EkikcDDwwOHDx/GoUOH0KRJk7c6Ffz75cuXsXnzZlhbW6NTp07Q1NSskFqlpqZi6tSpqFq1Knbu3IlKlSq9DSAwxiCRSLBp0yaEh4ejT58+MDU1Rf369SukVhERERg+fDimTJmC6dOno1KlSm8dGKlUCqlUCkdHR9SvXx+dO3eGtbX1B/ddReL48eOYOXMmtmzZAjMzM1SuXPmD+ZeUlIRZs2ahR48e0NHRgampaYXUSSwWw8XFBWfOnMHRo0fRoEGDD+4ZsViMc+fO4Z9//oG1tTX09PSgoaFRIbVKSkrClClTUKdOHWzbtg3Kysqf2Ko1a9YgOjoa5ubmMDc3R506dSqkVvfv38fw4cMxc+ZMTJky5RNbJZFIYG9vj2bNmkFPTw9WVlYVNnAcEBAAZ2dnbN++Hd27d/9krfDiRSJ+//0yQkJawtfXCGZmFdOmEwQhBw5zAWfPAuHhQEQE4OoKNGmi+NE+xhhevnyJRYsW4cKFC1i/fj0GDhxY6GvOnj0LOzs7mJubY9GiRWjRokWFyEwwxnDhwgX8+++/MDQ0hLGxMbS0tAr9fQ8PDwQEBMDExATe3t5QVlZWeK0KptWGDRsQHR0NLS0tDB48uNDF5Zs3b2BnZ4e8vDz069cPjo6OfJJWAK2kUilmzZqFunXrQl1dHSNHjiz07w4PD8fIkSPRuXNnjB49GhYWFhVm/sXFxcHNzQ1aWlrQ1taGhYVFoa85ceIEHB0dYW5uDjc3NzRq1KjCaHXq1CkcOnQIBgYGMDExKXTrg1QqhaurKwIDA2FiYgIvLy8oKSlVGFvl7e2NxMREdOjQATY2Nqhdu/YXX/Pq1StMnjwZSkpKsLS0hJ2dXYWxVWKxGE5OTlBTU4O6ujpGjBhR6N999+5djBo1Cl27dsW4cePQs2fPCjP/nj59Ck9PT+jo6EBXV/erQbtDh47ht99i0auXI5YvB+rVU6JsM0EQsukwA4BQCKSmAgsXcod57lygkGenXJOZmYnffvsNjx8/hrm5OaZOnVqkBSVjDElJSfD19UVgYCBatmyJdevW4ccff1RInbKyst4u1PX09DBmzBioqakVKWKen5+PlJQUODk5IS4uDsOHD8eMGTMUtkw0KSkJT58+xdKlSzFjxgwYGRkVOWOclZWFpKQkjB49Gjk5OfDx8UH37t0V1gA9ffoUly9fxv79+7F27VqoqamhVq1aRXptamoqrl69ihUrVoAxhoMHDyrs/uaCvZG7d+9GSkoKlixZgvr16xdpW0hBQNDHxwcXLlyAhoYGvLy8iqyzvJGRkYH4+Hi4uLige/fuGD58eJGDBEKhEKmpqZg+fToSExMxbtw4TJ069YPsvSKRmJiIyMhIuLu7Y+7cuejcuTPq1atX5GdnYmIixo4dC4FAgB07dqBLly4Ka6uioqJw8eJFHDp0CBs2bED9+vXxww8/FOm1KSkpuHDhAtauXQtlZWUcOHAAampqCqmTSCRCZGQkfH19IRAIsGDBgiLbKqlUiqSkNKxbtxdXrlhDR6cqPD0boYgyEwRBlB7sK9y6xZibG2O7djGFY8+ePczNzY3NmTOHpaWlffc4WVlZ7KeffmIjRoxgO3bsUDidhEIhmzx5MrOwsGCpqanFGuvevXtMW1ubLVy4kAUFBSmcVs+ePWMmJibst99+Y1KptFhj+fv7s9atW7MVK1awmJgYhdMqKCiItWnThu3bt6/YY82bN48ZGxszLy8vJhQKFU6rDRs2sI4dO7LQ0NBijZOens769u3LxowZw3bv3q1wOuXm5rIxY8aw/v37s4yMjGKNFRISwjp06MBcXV3ZlStXFE6rqKgoZmRkxBYsWFDssfz8/FibNm3YihUr2IsXLxROq3PnzrHWrVuzgICAYo0jlUrZrFmzWM+ePZm3tzcTiUQKp5WXlxfT0dFh9+/fL9Y4KSkpzNx8EZs4MZr9+y8jCIIoVz6bYf6Y8HDg/n3Azw/w8AC0tOS3TJsxhvDwcMyZMwcxMTHw9/eHrq5uscdNTk5GREQEpk2bhpYtW8Ld3R36+vpyW3rFGINAIMCxY8ewf/9+ODg4QENDA02bNi322I8fP8bNmzexYsUKtGnTBnv37i1ypF4WkUqlEAgE+PPPP5GRkYGhQ4eia9euxW5KxRjDzZs3sW/fPoSEhMDIyAh//vmnXDebE4lEyMnJwZQpU2BgYIDu3bujW7duxZ4nubm5uHnzJpYtW4bKlStj1KhRGD16tFzvGczLy8PDhw/h4uKC0aNHQ1tbGx07diyRrOLDhw/h4OCAVq1aYdWqVdDS0pJ7WxUQEICjR49i2rRp6NixY4lUG0RERODatWtYu3Yt1NXVsXfvXrluNieRSJCbm4slS5ZAJBJh0KBBMDY2RvXq1Yv9HVy/fh179uzBgwcPYGJigqVLl8p1FVF+fj6ys7MxefJkmJiYwNjYuEROfsjJycGtW7ewePFi1KhRA+PHj8ewYcPk2lbl5ubi3r17cHd3x/jx46GpqVkifQDi4+Px8GFlODhsRevWv2Pt2ipo1UqZOmoTBFHmFMlh5k4BIBIBbm5A166Anh5QAr5TmZKQkIA7d+5g79696NOnD0aOHImqVauW2EKRMYb8/Hz4+/vj6NGjGDVqFDp16oTmzZvL3Y1x79492NraYt68eSWuU4GTKRKJsHjxYgiFQvTu3Rvm5uZytxhljGHPnj1YtmwZdu3ahU6dOpX4IlEikUAgEGDChAkwMDBAly5dYG5uLncOjkAgwO+//44HDx7g6NGjqFGjRomXuopEIjx48ABLliyBra0ttLW1SyQgVtbExcVh7Nix0NfXh4eHB6pUqVKiC+oCW+Xn54czZ85g5MiR0NPTQ5MmTeROq9DQUAwfPhyurq6wtbUtNVs1b948KCkpoVevXujdu3exnczysFXbt2+Hl5cX/Pz80LFjxxK3VWKxGNnZ2ZgwYQJMTEygr68PMznsIJqdnY3ffvsNMTExOHToEFRUVEq8uaBIJMLt27fh6emJ4cOHQ1tbu9B+ILJKbGwsRo8eDVNTUyxevLiUbJUYO3bsweHDJqhUSYCtW3VApwsSBCGTDnMBeXnA9u1AfDzwww/AH3/IfraZMQZPT0+cP38eTZo0wcaNG0vdMRMKhZg5cyaioqLQq1cvLFy4UOYdHMYYcnNz4ezsDDU1NbRu3Rq//PJLmTxwx44di5YtW8LKygq2trZysfh88OABfHx80LZtW+jr66NHjx6l/r5Xr17FuHHj0L9/f0ydOhU6OjpyoVVAQACuXr2Ktm3bwtLSEq1atSr19920aRPWrVsHCwsLeHp6ykUwhjGGZcuWIS8vD02aNMGkSZNQrZTTKQKBAA4ODkhISICFhQWcnZ3lwlZlZWVh/vz5aNy4MdTV1TFs2LBSf9+oqCiMHTsWGhoaGDRoEH7++We5uKfCwsKwfft2tGvX7m2zxtImKCgIEydOxIABA+Do6CgXZ80zxuDn54fbt2+jTZs2sLa2RrNmzUr9fVevXo1t27bB3NwcK1asKPU5X1Jaubq6QiqVvrVVpV1RkJ2dDTu7NUhLG4g+fXQxaxY1BSMIouyM3neRnMzYpUuMrVrFWHQ0Y8XcrlkqSKVSFhMTw/766y9mZGTEnj59yjIzM8vs/bOzs1l0dDQzMTFhnp6eLDo6utj7WktTJ1dXV9a3b18WFRVVpjoV7Fe6cuUK09PTY0eOHGEJCQkyuYchLy+PRUVFsZ9//pnNnj2bRUdHs/z8/DL9DHFxcWzNmjWsR48eLDw8nL1580YmtUpLS2MRERFMT0+Pbd26lT1//rxM318kErHo6Gg2YcIENnHiRBYVFcXy8vJkUqvExER24MAB1qVLF3b16lX26tWrMn3/zMxM9vTpU2ZkZMS8vLxYTEyMzNqq6OhoNn/+fDZw4ED29OlTlpWVVaaf4dWrV+z8+fOsc+fO7OTJkywxMVFm93NHRUUxS0tL9scff7Do6Ogy3TMrlUrZ8+fP2cqVK5mZmRl7+PBhsXqFlCZv3rxh9+7dY7q6umzHjh0sLi6uTN8/Pz+fRUdHs1GjRrFp06axqKgome3FkJCQwPbs2cMMDAxYcHAwS0lJKdP3z8jIYJGRGczAYD7T00tlp0/nsaQk2l9JEIQM7GEujDNngBMngDZtAHNzvr9ZFnj48CHOnTuHmJgY9O/fH/379y/Xz3P+/HkcPXoUbdq0gZmZmUxlBk+dOgUHBwcMHDgQs2fPLpPs39cyg7GxsWjatClGjx6N//3vfzITUXd3d8ehQ4fQq1cvLF++vFy754rFYsybNw81a9ZE06ZNMXHiRJnJDKalpWHSpEmQSqXo27cvHBwcyvXzxMbGwsvLC82bN4eOjg769esnM/Pv/v37GD16NLp37w4bG5uvHhNV2pw+fRqBgYFo3bo1LCwsZOr89GPHjuHXX3/FwIED4ezsXCI9FYrDmjVrkJSUhMaNG2PcuHEy03lcKpVi8eLFOHv2LHr16gUPD49y3SObn5+PP/74Az/++COaN2+OcePGyYytSklJwcSJE1GtWjX0798fkydPLtfPExkZiXXr1qFly5bo1KlTuduD9wkLC8OYMWNgamqKESNGoGfPnuVuD44c0cD9+7HYtasP2renJBhBEKVDsR1mvnAHzp0DLl8GMjKA1auB8ur1IRKJ4OjoiLCwMAwYMACLFi2SmcYjYrEYK1asgL+/Pzp16gQfH59y+2xisRhv3ryBvb09zMzMoK+vL1PHF6WmpsLBwQFpaWmwtLTEzJkzS3wP2bcs9q5fv461a9di5MiR0NLSKpGGJiXF48ePMWzYMLRs2RK//vprue1vZoxBKBTi77//RmhoKGxtbWFoaFjkY2rKgsDAQDg6OqJjx47Ytm0bGjRoUC6fQyKRQCQSwcnJCfXq1YOJiQl69+4tM8cXiUQiuLm5ITAwEJ07d8b69evLzVaJRCKkpKRg+vTp6NOnD/T09MqkpLioJCcnY+rUqcjNzYW1tTXs7e3LzVYJhUJcunQJmzdvxpgxY6ClpYW2bdvKjFYPHz6EjY0N1NXVMXfuXJiYmJSrrdq4cSMePnyIIUOGwMjICHXq1JEZrQ4fPoy5c+eiY8eO2LFjR7kFjgts1fTp09G0aVN069YNvXv3Lrd7/HP3vIuLDy5e7ARDQyOsXFkVVasCctxDjSAIRXWY3xkuIC4O2L0bMDMDevYEysqmSqVSXL58GUFBQXj8+DG2bduGatWqydz5mWKxGEKhEPb29mjZsiXMzc3Rs2fPMnv4SKVSXLlyBb6+vkhLS8OePXtQvXp1mTxnND8/Hy9fvsTUqVMxZMgQdO7cuUzP+czMzERISAj++OMP/Pzzz3BycoKKiopMdjPNzc3FuXPnsHnzZjg4OKBDhw5o3bp1mb1/bGwsHjx4ACcnJ3h7e6NPnz5QUVGROZ0KOiqvXr0aT58+xejRo6Gvr1+m56eHhYXh3Llz8PPzQ0BAAJo0aSKTexYLbNWkSZOgoaEBMzMz9OzZs8zuf4lEgsuXL2Pr1q0Qi8Xw9fWVSZtesGiPi4vDjBkzMGzYMOjp6UFPT6/M3j8tLQ1hYWGYM2cORo0ahWnTpkFVVVUm96Ln5ubixIkT+Oeff97aqpYtW5bZ+8fExODevXuYO3cu1q9fD1NTU5m0VVKpFLm5uVi+fDmSk5MxfPhwGBgYlGkVw+3btxEYGIgjR47g8OHDaNCggUye0iAWi5GXJ8W4ce6IjByPadPqoEeP2tDWpkU+QRAy6DC/M7JAUBCQlAQMGgSUdi+ka9eu4dChQ1BTU4OpqSkMDAzkQvw7d+7g/PnzSEpKwk8//VQm3UR9fX2xfPly2NnZYcyYMeWWYftWjhw5gocPHyI1NRWzZ88u9W6+UqkU9vb2iI2NxaBBgzBt2jS5OPZDKpVi06ZNSElJgUQiwZIlS0r9cycmJmL48OHQ1dVFnz59MGjQILm4p169eoVdu3YhNTUV7du3x/jx40v9PYOCgjB58mRMmTIFffv2LVOnqjiEhITg0qVLSEpKwuDBg8ukGqWgadukSZMwfvx41K1bVy60CggIwJMnT/D69Ws4OzuXuo2VSCSYOHEiUlNTYWVlhalTp8pFB32JRIKNGzciNTUVysrKWLx4cal/7ufPn2PEiBEwMjJC7969MXDgQLm4pxITE+Hn54eUlBRoa2tj1KhRpf6eZ8+ehb29Pezt7dG/f39oy4n3eePGDZw/3wC7d1/Hzp1jYGhIC32CIEqA0tocLZEw9ugRY25ujN2+zVhp9CV68+YNCwsLY/r6+szX15dJJBK520QukUjYv//+yzp37syCg4PZ69evS6X5UoFOfn5+7NmzZ3K54T4nJ4fNmTOHDRw4kMXFxbGcnJwSf4+XL1+ybdu2MRMTExYSElLmzZdKsjFRnz592Pz581lcXBwTi8UlOr5YLGYvXrxgM2bMYKNHj2YPHz4sle+jLAgPD2daWlps165d7OXLl6Vy38bFxbFevXoxDw8P9vjxY7m1VTt27GD6+vosLCysVJrNvXnzhgUHB7MuXbqwgICAMm8UV1JkZ2ezmTNnssGDB7O4uDgmEAhKxVZt2rSJmZqasrCwsDJvvlRSJCcnMzMzM+bq6spevHhR4nNDLBazuLg4ZmdnxyZOnMgePnxYKt9HWXDnzh2mqanJ9u/fz5JKodNVdnY2e/78OevRowdbuXIle/z4sUw2/yvKd+7j48cMDALZwIGvWFwcY7m51LSIIIhybPr1dYccWLiQHz3VqhUwdmzx9zeLxWLs3LkTMTExkEgk8PDw4OlyOT1foOArcHFxgVgsRuvWrTFmzJhil2lKJBLs3LkTfn5+qF27NqysrDBmzBi51alAq6ysLMyZMwetW7dG+/btMXjw4GKPm5SUhGPHjmHlypUwNTXFlClTYGBgIPda3b59G1u3bkWnTp3QpUsXGJZAuD00NBSXL1/Gxo0b0atXL6xcuRK1a9eWa50AYPfu3QgJCYG2tjYsLS1LpIrh6NGjCAwMREREBMzMzLBkyRK5v6cAYMGCBVBWVn5rq4q7v1kkEmHnzp3YvXs3GjZsiEGDBmHEiBFyr9WbN28wb948qKuro0OHDrCysir2uPHx8QgMDISnpyd69eqF6dOnQ1dXV+61un79Ov755x/o6emha9eu6Ny5c7HHDQ4OxuXLl7Ft2zaYmprir7/+Qo0aNeR+/m3fvh0PHjyApqYmrKysoKamVuyxDx48iJMnTyImJkZujsIsila//74aly+bw9y8PpYtawwZ2XpNEARlmD/P06eM7d/PM84i0fcdQyWVSplIJGLu7u5s3759LCoqSuEiGDExMax79+7s999/ZyKR6LuiuwU6LVmyhOnr6zN/f3+WkZGhcFrduHGDtWrVivn5+X23VhKJhOXm5rIBAwaw0aNHs2PHjsllRP1r98OGDRuYpqYmCw8P/+5ss1gsZo8ePWKamprM09OT3bx5U+HuqczMTDZ+/HjWr18/JhAIvivbVTD/9u3bx1q0aMH27dvHYmJiFE6rqKgoZmhoyBYvXlxsWzVv3jxmZGTE/P39WXZ2tsJpdfnyZdayZUsWEBBQLFuVk5PDLCws2MSJE9nJkycVzlZJJBL2119/MW1tbfbkyZNi2ap79+4xDQ0N5u3tzUJCQhTunnrz5g0bOXIks7KyYnl5ecWyVbt372atWrViBw4ckNuqjsJ4/Pgx09Obw4YOFbITJySsDE9XIwiCMszfl22+eRNwcwOmTgU0NQF19aK9Njo6Gg8fPsSmTZswf/58dO/eXa6jn4WRk5ODiIgIuLq6YvLkydDW1i5yp9OYmBjcuXMHCxYsQJMmTbB//3652fv3PRHkzMxMBAQE4Pjx45g9ezbatWtX5D2Dd+7cwcGDB3HmzBno6Ohg3bp1qF69ukJqJZFIkJWVhSVLloAxhmHDhkFfX79IVQz5+fm4ffs2li9fjuzsbNjY2MDOzk4mmy+VBHl5ecjIyMCUKVNgYWGBHj16FDnblZKSgsjISNjZ2aFhw4Zwd3cjmooiAAAgAElEQVSHkZGRwtqq7Oxs3L17Fx4eHrC3t4empibatGlTpNc+ffoUt2/fxtKlS9G0aVPs37+/TJuvlYet8vPzw/nz5zFr1iy0a9euSB3kGWMICwvD/v37cfnyZejr68PLy0smG8WVBGKxGNnZ2Vi4cCFUVFQwePBgdOnSpUjNpvLy8hAWFoalS5dCJBLhl19+wYQJE2Smo3Np2Ko3b97Azs4OAwYMQLdu3YrcFyE5ORmRkZGYMmUKGjVqBC8vL+jp6Sm0rbp2LQIrVqTgzZtW2LBBEx06ADJyaiVBEDJOmTrM7+Pjw5uCSSTAvHnAl5pU5uXlwcPDA5UqVUKDBg0wbdq0CvUF/f3330hISIBYLMYff/xRaDnZkydPMGrUKJiamqJPnz7lfvZ0WZKbmwtvb28IhULUq1cPM2bMKPT3T548iRkzZmDChAmwtbVF+wp0gOOTJ09w4MABCIVCGBsbw9LSstDf//PPP+Hv748hQ4Zg9uzZMtlRtrQ4ffo0bt26BaFQiDFjxhR6n+Tk5GD06NGoVKkS+vXrhylTplQoW7V582YkJydDIpFg/vz5hQafwsPDMWbMGPTp0wd9+/ZF7969K4xO2dnZWL16NUQiEdTU1L76TDty5Ahmz56NCRMmYOTIkWXa/b68CQ8Px+HDhyEUCtGjRw/07du30N93cXHBqVOn8PPPP+O3336TyY7OpcXx48dx584dCIVCTJw4sdD7JCMjA6NGjcIPP/yAfv36lUnDQ1mBMYYNG/YiMLA16tSpi23b2qEC3SYEQRTDeJQbqamMhYQwNns2Y8nJjOXnv/s3kUjEkpOT2bRp09jgwYPltqFJSfD69Ws2bNgwNmHCBJacnMzy3xOqQKcJEyawGTNmsNDQUJaXl1dhtYqNjWW6urps7dq17NWrVx+ULObk5LAXL16wnj17sjVr1rAHDx4oXEnjt5TiBQYGso4dO7Lz58+ztLS0D/49PT2dnTt3jpmYmLCTJ0+y2NjYCntP5eXlMVdXV2ZiYvJJszmpVMpSUlLYypUrmZWVFbt9+3apNO6TF1JSUtjgwYOZvb09S05OZqL3ah/z8/NZcnIyGzlyJJs9ezYLDQ1lQqGwwmr19OlTpq2tzTZt2sRSUlI+sVWxsbGse/fubOPGjSw8PLzC6iSVStmhQ4eYlpYWu3LlCktPT//g39PS0tiJEydYjx492JkzZ1hcXFyF1UogELD58+czMzMzlpCQ8EFzM6lUyl69esWWLVvGBg8ezEJDQ0ulcZ+8kJyczCwtZ7OePTPZpk05LDX1+7YKEgRBJdll5LADT5/yMu2uXQEdHUBZ+Rru3buHmzdvYsGCBWjbtq1cHOlT2lHR2NhYuLi4wNDQENra2qhatSouXbqE3bt3w8jICBs3bqxQEfUv6cQYw8mTJ3Hw4EGYmprC2NgYEREROHjwIJKSkmBhYQFnZ2eFLT37Vq1WrVqFpKQk6OnpoXfv3jh37hzWrl0LdXV1jBw5Ej/99BNpxRhEIhEcHR3RvHlzdOjQAbq6urh27RpcXV3Ro0cPuLq6olWrVhVeK6lUiqioqLfl6Lq6umCM4eLFi/D394exsTHWr1+vsCX93zr/jhw5guPHj8PU1BTdu3fHnTt34O/vj/T0dPTr1w9OTk40//7TysPDA+np6dDV1X1rq/766y907NgRY8eORd++fUkrxpCXlwdHR0e0adMGHTp0QIcOHXDjxg0sXboUPXr0gIeHB5o2bVrhE0ZSqRQREY+wcuULXLtWGa6uFjA1VULz5pRMIwjiQ8rdYX6fwEAgPBxg7Dq0tNK/WipaUTlz5gwePHiATZs2wcnJCd26dSuRjqKKhkgkgr+/P+7fv4/9+/dj6dKl6NWrFxo3bkzifERiYiIuXryIEydO4NWrV5g0aRJsbGyK3f1YEblz5w7CwsKwdetWdO3aFZaWlujXrx8J8xlOnjyJ8PBwbN68Gb///juMjY2hq6tLwnyEUChEQEAA7t69i8OHD8PFxQV9+vQp9TOc5ZEXL17g8uXLOHz4MHJycjBu3DjY2Ngo7D7l4hASEoK7d+9iy5YtMDMzQ//+/WFhYUHCfIZjxy7gyBEgOvoHnDhhAFVV0oQgCBl1mAFg715ALObHTxFfJiAgADY2NoiPjy+R428UmWnTpuHcuXOIiooiMb5C27Zt0bt3b2zatInEKISEhAQ0bdoUBw4cgI2NDQlSCLt27cK4ceOQnJyM+vXrkyCFMH78eISGhuLBgwckRiEwxtC8eXPY2trir7/+IkEKITo6Gurq6jh+/DgGDhxIghTCli1bMH16faSmDoYcn5RIEEQpoEwSEARBEARBEARBEAQ5zARBEARBEARBEARBDjNBEARBEARBEARBkMNMEARBEARBEARBEOQwEwRBEARBEARBEAQ5zARBEARBEARBEARBDjNBEARBEARBEARBkMNMEARBEARBEARBEOQwEwRBEARBEARBEAQ5zARBEARBEARBEARBDjNBEARBEARBEARBkMNMEARBEARBEARBEOQwEwRBEARBEARBEAQ5zARBEARBEARBEARBkMNMEARBEARBEARBEOQwQygUwtnZGY0bN4aKigq6du2Ks2fPFmtMd3d3WFtbo2HDhlBSUoKrq6tca5SdnQ0XFxf0798fderUgZKSEnbs2FHscTdt2gRbW1s0b94cSkpKGD9+vNzfTyEhIXB0dISmpiZq1KiB5s2bY9iwYYiMjCStPiIiIgK2trZo3bo1VFVVUa9ePfTs2RPHjh0jrYpgY5SUlKClpUW26j2CgoKgpKT02Z+bN2+STp8hLCwM1tbWqFOnDlRVVaGlpYW1a9eSVu8xfvz4L95XSkpKSEhIIK3eIyoqCiNGjEDTpk2hqqoKDQ0NLF26FAKBgO4rgiAUisoV5Q8dP348/P394eTkhLZt22LHjh2wtLTExYsXYWJi8l1jLly4EGpqatDT08Pp06flXqPU1FQsXboUzZs3h66uLoKCgkpkXE9PT2RlZcHQ0BAvX75UiPvJ09MT165dg62tLXR0dJCUlIT169ejc+fOuHnz5nc7OIqo1fPnz5GVlYVx48ahcePGEAgECAgIgLW1NXx8fGBnZ0dafYb4+Hh4eHigRo0axR5L0WxVATNnzoSBgcEH19TV1Umnjzhz5gysrKygp6eHRYsWoWbNmoiOjkZ8fDxp9R5Tp05F7969P7jGGIO9vT1atmyJJk2akFb/8eLFCxgaGqJ27dpwdHREnTp1cOPGDbi4uCA0NBRHjhwhrQiCIIdZnrh16xb+/fdfrFy5EnPmzAH+z96dx9WU/38Af7XQgpBlZDdTZCLFCJG1so1sGevUmIypUXaGsTVlHbuIokVUk9KiUhSitFpaFFNSqLRou9Vtu/d+fn986YcWVFS39/Px6PGYOffez7n35dz3PZ9zPudzAOjp6WHIkCHYvHkzQkND69VuSkoK+vfvj9evX6Nbt24tPic5OTm8evUKPXr0wL1796rtiNbX7du3q84Ctm/fXii2qfXr18PJyQlt27atWrZw4UIMHToU+/fvx8WLFymrN2bMmIEZM2a8t8zY2BgjRozAkSNH6t1hFsas3rVx40aMHj0afD4fr1+/blBbwlar3tLQ0ICurm6jtSeMOXE4HOjp6WHmzJlwc3ODqKgoZVWLMWPGYMyYMe8tCwkJAZfLxdKlSymrd1y4cAEFBQUICQmBkpISAGDlypUQCARwcHBAfn4+OnfuTFkRQoRCqxiS7ebmBjExsfd2zCUlJWFgYICwsDC8fPmyXu32799fqHKSkJBAjx49Gr3dfv36QURERKiyUldXf6+zDAAKCgpQUlLC48ePKauPEBMTQ58+fVBQUEBZ1eDOnTtwc3PDsWPHGqU9YatV7yoqKgKPx6OcauHk5ISsrCzs2bMHoqKiKCkpgUAgoKw+Iz8REREsWbKEsnoHh8MBAHzzzTfvLZeTk4OoqGi130farggh1GFu5h4+fIiBAwdCRkbmveVqamoAgOjoaNoSSIMxxpCVlYWuXbtSGDUoKSnB69evkZycjKNHj8LPzw9TpkyhYD7A5/NhYmKCFStWYOjQoRRIHZYvXw4ZGRlISkpi0qRJuHfvHoXygcDAQMjIyCA9PR2DBg1C+/btISMjAyMjI5SVlVFAdaisrMSlS5egrq5OHbkPTJw4EQBgYGCA6OhovHz5Ei4uLjh9+jRWr17dKJeSEEJIc9EqhmS/evUKcnJy1Za/XZaRkUFbAmkwR0dHpKenw8zMjMKowYYNG2BlZQUAEBUVxbx583Dy5EkK5gNnzpzB8+fPERgYSGHUom3btpg/fz5mzJiBrl27IiEhAYcOHYKGhgZCQ0OhqqpKIb2RlJQEHo+H2bNnw8DAAPv27UNQUBAsLCxQUFAAZ2dnCqkW165dQ25uboOGYwuradOmwdzcHHv37sWVK1eqlm/btg27d++mgAgh1GFuaUpLSyEhIVFtuaSkZNXjhDTEkydPsGrVKowZMwb6+voUSA3Wrl0LXV1dZGRk4NKlS+Dz+aioqKBg3pGbm4udO3dix44ddP1eHdTV1aGurl71/zo6OtDV1YWysjK2bt0Kf39/CumN4uJicLlcGBoaVs2KPW/ePFRUVMDKygpmZmZQUFCgoGrg5OSENm3a4KeffqIwatC/f3+MHz8e8+fPR5cuXeDr64u9e/eiR48eMDY2poAIIdRhbkmkpKRQXl5ebfnb4WhSUlK0JZB6y8zMxMyZM9GxY8eq6+VJdYqKilBUVATwv0n3tLW1MWvWLERERLSK67Y/xfbt2yErKwsTExMK4zPJy8tj9uzZcHd3B5/Pp+/hO79/ALB48eL3li9ZsgRWVlYICwujDnMtBxq8vLwwdepUdOnShQL5wL///ouVK1ciMTERvXv3BvC/AzECgQB//vknFi9eTLkRQoRGq7iG+e3szx96u6xnz560JZB6KSwsxPTp01FQUAB/f3/alj6Drq4uoqKiGnzvamGRlJQEa2trrF69GhkZGUhNTUVqairKyspQWVmJ1NRU5OXlUVB16NOnDyoqKlBSUkJhvPG2Jn04OVP37t0BAPn5+RRSDTw9PRs8O7Yws7S0hKqqalVn+S0dHR1wuVw8fPiQQiKEUIe5JVFRUUFiYmLVrI5vRUREVD1OyOcqKyvDrFmzkJiYCB8fH3z//fcUymd4eylEYWEhhQEgPT0dAoEAq1evxoABA6r+IiIikJiYiAEDBtD18R/x7NkzSEpKCuVtxuprxIgRVdvXu97O3UFD/2vm6OiI9u3bQ0dHh8KoQVZWFvh8frXllZWVANBoM9cTQgh1mL8SXV1d8Pl8WFtbVy0rLy+HnZ0dRo0ahT59+tCWQD4Ln8/HwoULERYWBldX12r37iT/Lzs7u8adKgcHB0hJSdGBhjeGDBkCDw+Pan9KSkro27cvPDw8YGBgQEEByMnJqbYsJiYGV65cgba2dqPda1gYvL3+1sbG5r3l586dg7i4eNVsx+T97SswMBBz586FtLQ0BVKDgQMH4uHDh9VGCDk7O0NUVBTKysoUEiFEaLSKa5hHjRqFBQsWYOvWrcjOzoa8vDzOnz+P1NTUajsRpqam+Pvvv3Hr1q2P7khcuHABz58/B5fLBfC/e6e+nR3y559/Rr9+/VpcVidPnkRBQUHV2Qdvb2+kpaUBAExMTNCxY0cAgL29PZYvXw47Ozv88ssvdbbp7e2NmJiYqo5SbGxsVU46Ojot8od1w4YNuHLlCmbNmoW8vDxcvHjxvceXLVtW9d+tPavff/8dHA4H48ePR69evZCZmQlHR0c8efIEhw8ffu9sYGvOqmvXrpgzZ0615W/vxfzhY625Vi1cuBBSUlJQV1dH9+7dkZCQAGtra0hLS2P//v2U0ztUVVXx66+/wtbWFjweDxMmTEBQUBBcXV2xdevW9y4jae1ZveXi4gIej1fncOzWntWmTZvg5+cHDQ0NGBsbo0uXLvDx8YGfnx9WrFhB2xUhRLiwZsbRkbHz5xu/3dLSUrZx40bWo0cPJiEhwUaOHMn8/f2rPW/Dhg1MRESEPX78+KNtTpgwgQGo8e/WrVtfNCc3NzcGgKWlpTVqu/369av1M6WkpFQ9z8LCggGoMcMP6evr19qmnZ3dF9+mDA0Nmby8fKO2Wde//Ydfq5aUlby8PDM0NGzUNp2dnZmmpib75ptvmLi4OOvcuTPT1NRkXl5e1Z7bUrJKS0tjAJirq+sX/zeZMGECU1JSarG1ysHBgYmIiLDs7OxGa/P48eNMTU2NycrKMnFxcSYnJ8eWLVvGkpKSWmxOb7fpIUOGNHq7FRUVzNTUlPXr14+1adOGycvLs6NHj7bYrAQCAevduzdbt27dF2l/9OjRrHv37ozH49X6nJaS1dOnTxkA5uPj0+htR0REsOnTp7MePXqwNm3asIEDB7I9e/awysrKFpmVlZUVExd3ZwUFjBBC3iPCGGPNqQPv5ATweICeXtOsX01NDf369YOrq2uzPtBx+fJl6OrqIi0tDb169frq6//pp5+QmpqKyMjIZn9QyMjICIGBgUhKSmqS9bekrBQUFKCpqYnTp09TVnVIT09H79694erqCl1dXapVHzljpK+vj6ysrCa5Xral5AQAv/zyC+7fv4+4uDjapuo+0I++fftiwYIFOHLkCGVVh+TkZMjLy8PHxwczZ86krOpgbW2NVau64fXruXgzmI4QQgC0kiHZn4rD4SAmJgbnz5+nMD6ysxIUFFRtGDKhrCgrqlWUE2VFWRHKihBCHWYhJSMjU+P9msn7REREapzIiVBWlBXVKsqJsqKsCGVFCBEmNJUoIYQQQgghhBBCHWZCCCGEEEIIIYQ6zIQQQgghhBBCCHWYCSGEEEIIIYQQ6jATQgghhBBCCCHUYSaEEEIIIYQQQqjDTAghhBBCCCGEUIeZEEIIIYQQQgihDjMhhBBCCCGEEEIdZkIIIYQQQgghhDrMhBBCCCGEEEKI0BEzNTU1bU5vqFcvwNMTuHQJGDMGaNMGEBOjfygA4PF4yMvLw+bNm/Hq1SsMGDAAdnZ2yMzMxPfffw8pKSmIiIhQUAC4XC6ysrKwePFijBs3DvHx8XBycoKcnBy6desGSUlJCumNwsJChIaGwtDQEMbGxrh48SIuXboETU1NtGnTBm3atKGQADDGkJeXBxsbG1hZWWHJkiWwtbVFcHAwNDQ00LZtW4iK0jFIAKisrER+fj7Wrl2L4uJiyMnJwc7ODvn5+Rg4cCDVqg9qVXp6OhYvXgxtbW3cu3cPzs7O6N+/P7p06QIJCQkK6Y2CggIEBQXBxMQEa9asgYODA1xdXaGtrQ1xcXGqVe/UqtzcXJw+fRoXL17EvHnzYGtri/DwcKirq1OtekdFRQXy8/OxatUqMMbQsWMq7O3VUFwsgLx8G0hKAlSqCCEijDHW3N6UQAA8fw7s2PG/TrOyMqCh0br/oUJDQxEbG4uQkBDs2LEDCgoKAIC0tDRs3boVoaGhOHv2LDQ1NVv9joKnpyfi4+ORmpqKU6dOoW3btmCMwd/fHw4ODkhMTISTkxMUFRVbdVYcDgc+Pj6IjIyEnJwcNm7cCFFRUQgEAhw5cgQBAQHo2rUrLC0t0alTp1adVWJiIiIjIxEQEIAFCxZgxowZEBERAY/Hwx9//IGIiAjo6+tj/fr1rb4jGBwcjNjYWISFhcHc3Bz9+vUDAKSkpGDnzp0IDQ2Fvb09JkyY0Oprlbu7Ox49eoSMjAycOnUKYmJiEAgE8PHxgZOTE1JTU3Hx4sWqet9a5efnw8/PD+Hh4RgwYABWr15dVasOHDiAGzduoE+fPrCwsECHDh1adVaPHz/GvXv3EBAQgKVLl0JLSwsiIiKoqKiAoaEhIiMj8ccff+CPP/5o9bUqKCgIsbGxiIyMxP79+9GzZ08AwH//JWH37v8QFtYB5uYTMXasCPr3pw4DIdRhbsY8PLjYuNEO586twoQJQGs7KCoQCBAWFgZ9fX2Ym5tj8eLFNT7v+vXriI+Px8OHD3Hw4EF07969Vf0YMsbAGIOtrS0OHjwIZ2dnDB8+vNrzeDweLl26hMePH6O4uBiHDx+GiIhIq8xq5cqVSE9Ph42NTdWOwruysrJw7do1REREQEVFBQYGBq0yq+zsbMyePRsaGhrYu3dvjWexoqOjcf/+fdy5cwe//fYb1NXVW90ZHIFAgNu3b2PFihU4ePAg5s2bV+Pzrl69ioSEBMTFxeHIkSOQlZVtld+/06dP49SpU3BycoKKikq151VWVsLFxQUJCQmorKzEgQMHWuX3TyAQQF9fHxwOB2fPnsU333xT7Xnp6em4ceMGwsLCMGrUKOjp6bXKrNLT0zF37lxMmzYNpqamEKtheN69e/fw8OFDhISEYNWqVfjhhx9aZa0KDAzE77//jpMnT2LmzJk1Ps/bOxA+PpJ48kQM3t6j0aGDCJ1tJoQ6zM23sOXkFMHWtiPi44GNG4HvvgOE/SBySUkJkpKScPz4cfTv3x+Ghobo1q1bnT9s5eXl2L17N4KCgqCoqAgTExMMGTJE6H8MMzMzkZKSgr///hsGBgaYPHkyunTpUudrioqKsHTpUqSnp8PAwABaWlqt4ixOUlISoqKiYG9vj2PHjqFPnz4fPSOTlJQEPT09FBQUwNraGgoKCujRo4fQ71A9evQIHh4eSEpKwuHDh9GpU6c6h8cKBAJcunQJlpaWAIATJ05AQUEB7dq1E+qsioqKkJycjEOHDkFJSQm//vrrR2tVWVkZdu3ahbt370JFRQUrV65sFbXq1atXSE5Ohrm5Of744w9oaGhAVla2ztdwOBwsWrQImZmZWLVqFSZOnIjvvvtO6GtVYmIiQkND4ezsDAsLC/Ts2RPt27ev8zXx8fFYsWIFCgsLYWNjg++++w7du3cX6pz4fD4ePXoEV1dXpKenY//+/ejcuTPatm1b52suXrwIGxsbtG3bFocOHcLAgQMhLS0t1FkVFhYiJSUF+/fvxw8//AA9PT1069atzgMrpaWl+OuvfxAZ+TtGjWJYvlwOQ4bQMG1CqMPcjOXkAEeP/q+zvGkTIC4unP8oly9fRkJCAkpLS2FsbFzj2b+65Obm4vDhw3B3d8eWLVvwyy+/CG2n5vjx4ygsLISYmBi2bdv22TvckZGRcHd3h7u7O+zt7aGuri6UWWVlZcHGxgalpaUYOHAgfv75589uw9nZGdeuXUNaWhouXLgAOTk5ocwqIiICgYGBKCkpwaxZszBmzJjPej1jDPv27cO1a9egoqKCI0eO1HimRxi4uLggMTERpaWlWLt27Wd3TrKysnD8+HG4urrCzMys1hE0wtCpOXbsGIqKitC2bVts3br1s89+hoaGwtPTE97e3jh//jzU1NSEMquMjAzY29uDy+Vi6NChWLhw4We34eDggOvXr+P169e4cOECunXrJpRZ3b17F0FBQSgpKcHcuXMxcuTIz94u9+zZg2vXrmHs2LFVoxiE0cWLF/Hs2TOUlZVh06ZN6Ny582e9Pi0tDZaWT3Dp0mscOPAT5s+na8AJaVVYC/TgAWOzZjHm4sIYh8OEBofDYR4eHkxeXp7dvXu3we09fPiQKSgosEmTJrG4uDjG5XKFIic+n88KCgqYubk5GzVqFEtNTW1we+fOnWNDhw5lOjo6LD8/n1VUVAhFVhUVFSw/P5/p6OiwFStWsIKCggZvo4aGhmzcuHHsr7/+YgUFBYzP5wtFVlwulyUkJLBhw4YxS0vLBn+uFy9esLFjxzJNTU3m4uLCOEJUrDgcDnNxcWHy8vIsKiqqwe1FREQweXl5NmnSJPbkyROhq1Xbt29n48aNYy9evGhQezwej1lYWLBhw4ax+fPns4KCAqGpVeXl5SwvL49NmzaNGRkZNfj7UlBQwJYvX87Gjx/PTE1NWUFBARMIBEKRVUlJCYuOjmZDhw5lNjY2Da5VqampTE1NjWlqajJPT09WVFQkFDkJBALG4XDYhQsXmIKCAouOjm5wmyEh4Uxefh+bNInLnj3js9JSRghpBVrUGeb/7+QDPB5w/jxw9y6gowOMHg201BNeOTk5CAkJga+vL4YPH47ffvsN4uLiDT7SyxgDj8eDg4MDPDw8wOPxYGNjg169erXYAzzx8fGIjY2Fh4cHVq1ahbFjx0K8EYYaCAQC8Pl8bNq0CeHh4dDQ0MDu3btb9Ay1QUFBiI6ORmhoKCwtLdG5c+dGOdPJ5/NRWFiIlStXIjo6Gv/880+t16u2BJWVlfD19UVERAS4XC4OHToEMTGxRhkezOPxEB4ejmPHjiE+Ph6XLl3C0KFDW2xWmZmZCAsLw5UrVzB27Fjo6+s3aq2ysbHBlStXIC4uXuv1qi1FbGwsYmNjceXKFaxbtw4jR45s1Fq1du1aREZGYurUqdi1a1eLniH6xo0biI6ORlRUFE6fPg0ZGZlGq1W5ubkwMjLCw4cPYWFhUev1qi1BeXk5rl69irCwMADAnj17GrVW3blzB5aWlvjvv//g4uKC77//vsVmlZ6ejsjISHh6emLKlClYvHhxI9YqPk6fPgtf3xno0KEI+vpDMHNm65tjh5DWpEV2mN9VVAT8/nsQOBxZuLkpQ0Ki5Vxb8nYncdGiRRAREcHZs2c/e5jQpyouLoaTkxOSk5MhKyuLzZs3/28DaCFhMcaQnJyMBQsWYMGCBfUa0vipEhMTcevWLcTExGDatGmYNWtWixqmxhiDt7c31qxZA2tra2hpaX2xdb3NKSEhAZs2bYK8vHyL2qYAYPfu3fDy8sKFCxcwePDgL7YuJycnPHv2DNnZ2Thy5Eij7Lx9zazKy8uhq6sLGRkZnDlzBjIyMl9kXRwOB//++y+SkpLQs2dPrF27tsXVqsePH2PRokVYvnw51q5d+8Xe++PHj3Hnzh1ER0dDR0cH06ZNa3HfP3d3d2zcuBF2dgVneo4AACAASURBVHaYOHHiF1tfYGAg4uLi8PjxY/z111/o169fi8tqx44dCAwMxIULF77YnBuMMVy4cAEpKSnIz8/H4cOHISoq2qKy4nK5mDdvHuTk5HDq1KkvNo9EXl4e3NyScOJEFFauNISJifibWkWdC0KEjrAMD3z2jMtmzmTs5EnGkpIYa+4jr54+fcqsrKzYtGnTWFJSEissLPwq683MzGRjxoxhKioqzM/Pr9kPUauoqGCPHz9mGzZsYEZGRuzFixesvLz8qwzlunHjBhs5ciQbPnx4g4dSfg0FBQUsPj6ezZ49m1lYWLC0tLSv8u9bXl7ODhw4wMaOHcsWLlzI8vPzm31W6enpLDAwkGlqarIbN26wnJycr7LewsJCtmjRIjZ69Gi2b9++r7ItN/R7kJSUxE6ePMlmzpzJkpOTv9rQ8rS0NKampsaUlZXZzZs3m32tKi8vZ48fP2YmJiZszZo17MWLF19luLRAIGBXr15lampqbOTIkSw9Pb3Zf//y8vLYo0eP2MyZM9mZM2e+Wq0qKytj5ubmbOzYsUxPT6/Bl6h8re/B1atXmaamJrtz5w57/fr1V/s9mT9/Phs1ahQ7evRosx/6LxAIWGJiIjt69CibPXs2S0lJ+WpDy1NTn7MffjBlQ4e+YkFBFSwzk4avEkJDsps5b29gzZrLWLVqHmbNEsHAgc3r/T179gyenp44depUnbde+dKuXr2KW7duQU5ODtOnT/9iZ9Ya4vbt27hx4wY8PT3h6OjYZENZjx07hpycHHTp0gUrV6786EytTcHBwQF+fn4oLi7Gv//+2yQzM5eVlWHHjh2QkZFBnz59muVkc1wuF1ZWVnBycsKsWbOwc+fOJnkfjx8/xtmzZ9GjRw/88MMPmDx5crPLKjExET4+Pjh58iSOHz+OWbNmNcn78PLyQkhICOTk5KCjowN5eflml9WNGzcQGBiIa9euNek93g8ePAgOhwNZWVkYGhpCSkqq2WVla2uLq1evVo26aIrLXkpKSrBz50507twZ/fr1q9ckiF9acXExrK2t4eDggKVLl2LTpk1N8j5iY2Nhb28POTk5qKmpNcv7pyckJMDPzw+nTp2CpaUlpk2b1iTvw83NDVevDsfTp8+hqzsJRkZAC75SghDyDqHrMANAaOh9eHnlIyRECp6eY9GpU9MXrcrKShQXF2POnDlQVVWFrq4uxo0b16TvqaKiArdv38b169er7kksISHR5DP6lpeXIyYmBvr6+ti8eTNGjRrV5NdSZWZmIjY2Fra2tpg4cSL09fUhKSnZpMPUGGMoKyuDk5MT/vnnH1hYWEBZWbnJb/mUkJCAR48e4fz589i2bRtGjBjR5NeC8/l8lJeXY+PGjUhJScH69esxfvz4Jn9fISEhiIiIQFBQEBwcHNC+ffsmvxa1srISBQUFmDNnDsaOHYs5c+Y0+ezxZWVlCA4OxtWrVyEQCLBv3z5ISko2+W2oysrKEBUVBQMDA+zatQsjRoxoss7yWxkZGYiLi8O5c+cwffp0LF68uFnUqtLSUpw/fx4WFhY4fvw4VFRUmnz26kePHiEuLg4XLlyAubk5hgwZ0mxqlYmJCXJycrB69WpMmDChSesCYwzBwcEIDw/H3bt34eDggHbt2jXKNfkNrVWvX7/GnDlzoKWlhR9//BGjR49u0vfE5XJx9+4LmJm5Y+RIY+zeLQNJSbq+mRDqMDdTPB4P5eUiWLlSDN9/D4wZA0ya9PWvLWGM4fbt24iIiMCDBw9w7tw5SElJNfkPzYcdVD09PSQkJMDIyAiGhoZNsiNaUlJStVMsIyODbdu2QUJCotncm5UxhsTERKxfvx5PnjyBs7Nzk93a5eXLl4iLi4OdnR10dXUxe/ZsSEhINJvrzAQCAVxdXeHg4IDCwkI4OjqiX79+TfJeoqOjERsbC3d3d+zduxfy8vJ13qO0KWrVrl27cOfOHSgpKeHQoUNNMoqBMYZbt24hPDwc8fHxsLa2hoSERLOqVaWlpVi2bBmePHmCDRs2YPny5U2yzRcVFeHu3bu4cuUK5OTksHHjxmZXqx49eoStW7fiyZMncHV1haqqapO8l9TUVMTHx8PW1hbLli3D9OnTISkp2Wy2KYFAAEdHRzg7O6OsrAznz59Hnz59muS93L9/H9HR0fD29sbBgwfRr1+/Zlertm7ditDQUPzwww/Yt29fk9y7WSAQ4ObNmwgNDUVycjJOnz7dLA72v6u4uBg//3wcjx/Px+bNfTBqVDsoKVGngxDqMDdjYWGAvr4lpk41hJ6eKD7zVoX1FhMTAxsbG1y9ehX29vZNfkb5YyIjIxEaGoqUlBQsWrTos+8/2xCXLl2Cr68vUlNTcf78efTv379ZZ3X58mUkJibi1atXMDU1hays7Fdb9+7du3Hz5k0oKCjAwsKiWe1QfaiyshLW1tbIysqCmJgYdu7c+dU6OAUFBdi1axf8/f2xdevWZn8/8pcvX8LDwwMvXrzAiBEjvuo9iaOiouDg4IBr167h/PnzX/W7Xx+hoaGIiIhASkoK9PX1MWLEiK+2bkdHR1y9ehVZWVk4f/58s7/rgIuLC5KTk5GVlQVzc/MvNllbTZ12U1NT3Lp1C6qqqjh8+HCzOvjyofLycpw9exaZmZmQkpLCtm3bvtq6c3Nz8ffff8PPzw/m5uZYtGhRs96mUlNTceXKFTx//hxjxoyBrq7uV/3uOzk54caNG3BwcPjse09/bXfu3MGtW73h5hYFTc2F2LsXaIZXShBCPuFHrVV48SKdnTkTyEaPDmAxMYzl5X25deXn57P4+Hg2duxYduLEiQbfJ/hr4vF4LCkpie3cuZNpa2uz3NzcL7q+jIwM5unpyYYNG8aCg4NZdnZ2i8mquLiYJSUlsXnz5rGNGzeykpKSL7YuPp/PUlJS2L59+9i4ceNYYmJii7pXZnZ2NgsLC2NqamrMycnpi967mcvlsmfPnrElS5aw33//nSUlJTEej9diskpNTWX29vZMVVWVJSYmfvHJl2JiYtjo0aPZmTNnWsTkdm9VVlaypKQktmXLFjZz5kyW9yWL+puJ4i5dusSUlZVZeHj4V5sorjFwOByWmJjIfvzxR7Zt2zZW+gVvHvu2VpmZmbGJEyeypKSkL1obG1tWVhYLDg5mI0eOZO7u7l90MrKSkhL27Nkzpqury1avXs2ePn3aou5rn5KSws6ePcuGDx/OUlJSvui6cnNz2f3795mamhqzs7NjL1++bDE5VVRUsKSkLLZkyd9s9uxk9uwZY818vkdCiLBP+vWxI94AsGLFa6SnP4Ou7ij8+mvjXVvCGIO9vT3c3d0hIyMDBweHFnU7hg8/y7Zt2yAuLo4+ffrg119/bdThTnl5efj3339x6tQpGBkZYdWqVS0yJwDIzs6Gqakp+vfvD0VFRejo6DT6SIWgoCCcOHECZ8+exaRJk1psVnfu3IGLiwsGDx4MdXV1DB8+vFHb9/X1RWBgIMLDw+Hu7o4ePXq02O/fuXPn8N9//+Hbb7/FggULGvV6T4FAAFtbW1y+fBk9e/bEuXPnAKBFZiUQCLBlyxZIS0ujT58+WL58eaMOjc7OzoabmxtOnDiBDRs2YMWKFS32+5eeno49e/ZgwIABUFJSwowZMxq1/QcPHiAoKAiWlpaws7PDuHHjWmxWN27cgIeHBwYPHgwNDQ0oKys3avteXl64fv161eUiXbt2bbG16vTp00hNTUX//v2xePHiRr09Jo/Hg62tLVxcXDBo0CCcOnWqxdYqPp+PzZvPIChoBKZNk8fkyV0xZQqduCOkJWhVHea3CgsLcft2BkxN3fHTT1uwfr0Y2rSp//XNjDHcvHkTJ0+eRHJyMnbv3o1x48Z91WG6X8rTp08RGxsLJycn6OnpNfiexAKBACdOnMDVq1fRsWNHLF++HNOmTWs21/41RHh4OGJiYuDv749jx441+JpdHo8HQ0NDPHjwAHPnzoWmpmazHyr7qduAv78/IiMjkZqairNnzzZ4Qpv09HSsWrUKsbGx2L9/P4YPH94sZ1P+XHl5eQgJCYG3tzcGDRqEdevWNejAFWMMfn5+OHv2LJ4/fw5TU1NMmDABHTt2bPFZ/ffff4iLi4OzszN+++03TJ06tUG1is/n49ChQ7h+/Tp69OiBZcuWtaj7HNfl7t27iI6ORkBAACwtLdGzZ88GtVdZWYkVK1YgOjoaS5YswaRJk5psfofGxOPx4O/vj/DwcGRlZeH06dMNGlbOGENqairWr1+PmJgYHDx4EKqqqvj2229bfFY5OTkICwuDp6cnVFRUYGxs3KDfdcYYrly5Ajs7O2RkZGD79u2YNGkSOnTo0OKzevz4MaKi2sHU1BPnzhlDQ0OUZtMmpLlrzafXS0q4LDBQwBQU/mNubmXs6dPPb+PZs2fMy8uL9evXj3l5ebHi4mKhy+ntPYm1tLSYl5cXS0pKqlc79+/fZ3v27GFKSkosNTWVlZWVCV1WlZWV7PDhw2zhwoUsKCioXsM2Kysr2e3bt9mCBQvY/PnzGYfDYZWVlUKXVVlZGdPT02Nbtmxht2/frtd9PnNzc1lQUBAbMmQIO3DgAONwOM3+fr31HQ6sqanJLC0t2b179+rVxtOnT9nly5dZ//79mZ+fX4saJvs5terq1atMW1ub+fj4sOTk5Hq1c+/ePbZjxw42bNgwlpaWJrS1at++fWzp0qUsKCioXkPaKyoqWFBQEJs9ezZbsmQJ43A4Leryh09VWlrKFi9ezLZt28Zu375dr8+YnZ3NgoKCmKKiIjt69KjQ1qrU1FQ2ZcoUZm1tzR48eFCvNhITE5mzszMbMGAAu3nzplDWKj6fzzw8fJi2dhBTU4thQUGMFRbSsFdCaEh2M+bv74+AAAUEBz/G1Kk/Ytcu4GMHkfl8PszMzBAQEIAffvgBWlpaTXaf0q94cAVWVlbIyspCRUUFdu3a9UkTTqWlpcHCwgJubm5YsWIFZs6c2ejD25rjKIYzZ86guLgYPXv2hJGR0Se9LigoCF5eXggMDMSyZctgaGgoFGf/6hIbGws/Pz/k5+dDU1MTmpqan/S6s2fPIiAgAGVlZZgxYwZ+//13oTj7Vxdvb2/ExsaCw+Hgjz/++KRRDDweD3///TeuXbsGDQ0NaGlpNdl9Sr9mrbK0tMTr16/B5/Oxc+fOTzozmJqaitOnT8PNzQ2//fYbZs+e3SzvUd/YoxjOnj2LoqIiDBgwAAYGBp/0uoCAAPj4+ODOnTtYtGgRjI2Nm+T+71/TgwcPcP36dRQUFGD69OmffE9iS0tLBAQEQFRUFNOnT8eKFSuEfr/Kw8MDCQkJ4HA4WLNmzSeNYigvL4eZmRn8/PygpaUFTU1NaGlpCXVOAoEAJ0+6wdtbFnJyAzF1al8sXUon8wihM8zN+AhybGwGmzlzB1u/vpxlZDBW00k9Ho/HMjIy2JYtW5iWlhaLjY1lXC63VWX1+vVr9uDBA6apqcksLCxqPftZUlLC0tLS2LRp09jGjRtZfHy8UB5R/9jRdi8vLzZ69GgWFhZW6+fPz89nERERTEVFhTk6OraoieIa68xgfHw8++eff9iECRNqnWxOIBCwzMxMZmtry5SUlNi9e/da1ORLjYHL5bLY2FhmYGDAjIyMaj37UllZyTIyMtj69evZjBkzWGxs7Bed7Kk5ys7OZlFRUWzSpEnMysqq1lpVXFzMXrx4wTQ1Ndlff/3FEhISWl2tevbsGXN1dWWjRo1i9+/fr/Xz5+XlseDgYKasrMxcXV3Z8+fPW1VOfD6fPXr0iO3Zs4dNmTKF5efn11mrzpw5w5SVldnDhw+/+CSazU1xcTGLjY1lP//8M1uzZk2t+0oVFRUsIyODGRsbszlz5rDY2FhW3spmxcrMzGR372ayAQN2MDu7EtaC5j8lhM4wt9IDCIiLAxYtioC+/vcYP14Gby8bjYqKQkhICM6cOQNHR0eMGDFC6M9o1ZVTQkICDh8+jBEjRkBFRQVjx46tetzLywu+vr5ISkrClStX0L59+1adlZubG27cuIFRo0ZhwoQJVdeslZeXw9nZGTY2Nhg9ejT++ecfAGjVWZmZmYHL5UJRURGLFi2C1Jt7cDx//hw3b96Eubk59u7di4ULF7bqrEpKSrBmzRp89913UFRUxNy5c6seCw8Px507d2Bvbw9nZ2coKyu36m0qOjoaFhYWGDlyJFRVVTF69Oiqx93d3eHl5YXMzEx4eHhASkqqVWfl7OyM4OBgqKmpYcqUKejbty8AgMvlwsXFBVZWVtDS0oKZmVmrr1Xbt2+HQCDAoEGDsHjxYkhISAAAkpOTcfv2bZibm+PQoUOYN29eq86qsLAQ69atw6BBgzB48OD3JsYMCQnB7du38e+//+LSpUtQVFRs1dtUZGQUzpypwN27Jdi6dSqmTwd69KB9c0KaGnWYa/HgwQOEhnbCyZO3MWzYEgCGePQoEgYGBtDQ0Gj29/77mvz8/BAXF4fY2FisW7cOBw8eRGRkJPbu3YsxY8Y0ePIrYVFaWgpvb29ERUWhbdu2GDZsGFxcXJCdnQ0TExPMmjWrqnPY2j1//hzh4eHw9/eHtrY2EhIScPv2bQwePBhz5szB9OnTKaQ3oqKiEBMTg5s3b2LdunU4fvw47t27h1WrVmHs2LGNPhN5S94Z9fX1RVxcHJ48eYJVq1bhyJEjuHfvHvbs2YNx48Y1+3sqf82DMb6+vggPD0enTp3w7bff4vLlyygsLIShoSHmzJnTrO///jWlpKQgIiICfn5+0NHRQWRkJEJCQjB8+HDMmjUL2traFNIb4eHhiI2NRVBQEDZu3IhDhw4hKioKGzZswJgxYzBs2DAK6U2t8va+g0uXCpGZqQAtrYHYtEkMQjA3KiHUYRZGfD4fhYVl2LHjCOLjV8DdXQIdO3Zs1NsrCYvy8nIUFhZCRUUFBgYGWL9+PTp16tRqjxTXpbi4GPfv38e0adPg7e2N0aNHo3379hRMDTsNBQUFsLS0xOHDh/HkyRPIyMhAUlKSwqmxVhVi2bJl4PF4+Pfff6lW1aKsrAz5+fkYNmwYVq9eDWNjY3Ts2JFqVQ2Kiopw9+5dzJ07FwEBAVBRUaFaVUetOnLkCKytrREfH48OHTpUnXEm/4/H44HD4UBXVxcdOnSAnZ0dOnXqJBR3ymhspaWlyMkpw+DB62BhYY9ff6VMCGkqVKHqICYmBlnZdjhyZAc6dJCDrKws7YDWQkJCAp07d0ZJSQmkpKTQuXNn2gGtRfv27SEtLY2ysjLIyMjQDmgtREREqrYjPp+Pzp07U2e5zloli7KyMrRp04ZqVR0kJSXRqVMnFBcXQ1pamg7s1aFDhw6QkpKiWvWJtQr43yROsrKy1Fmuhbi4OGRlZVFaWlpVq6izXLP/7UuJo7KyGOXllAch1GEmhBBCCCGEEEKow0wIIYQQQgghhFCHmRBCCCGEEEIIoQ4zIYQQQgghhBBCHWZCCCGEEEIIIYQ6zIQQQgghhBBCCHWYCSGEEEIIIYQQ6jBTBIQQQgghhBBCCHWYCSGEEEIIIYQQ6jATQgghhBBCCCHUYSaEEEIIIYQQQqjDTAghhBBCCCGEUIeZEEIIIYQQQgihDjMhhBBCCCGEEEId5lauvLwcf/75J3r27AkpKSmMGjUKAQEB9W7vyZMn2Lx5M1RUVNChQwfIyclh5syZuHfvXovOqbi4GLt27cK0adMgKysLERER2NvbN6jNly9f4u+//4aamho6d+6Mrl27YuLEiQgMDGzRWUVFRcHY2BhKSkpo164d+vbti59++gmJiYmU1Tvi4+OxYMECfPvtt5CWlkbXrl0xfvx4eHt7U04fsWfPHoiIiGDIkCFUqz4QFBQEERGRGv/Cw8Mpqxo8ePAAOjo6kJWVhbS0NIYMGYITJ05QVm/88ssvtW5TIiIiSE9Pp5zekZSUhEWLFqF3796QlpaGoqIizMzMwOVyaZsihNSbOEXQtD+Ebm5uWLt2LRQUFGBvb48ZM2bg1q1bGDdu3Ge3d+7cOdjY2GD+/Pn4448/UFhYCCsrK4wePRr+/v7Q1NRskTm9fv0aZmZm6Nu3L4YNG4agoKAGt+nl5YUDBw5gzpw50NfXB4/Hg4ODA7S0tGBra4vly5e3yKwOHDiAu3fvYsGCBVBWVkZmZiZOnjyJ4cOHIzw8vF6dHGHM6vnz5ygqKoK+vj569uwJLpeLy5cvQ0dHB1ZWVli5ciXlVIO0tDTs3bsX7dq1a1A7wlqr3lq9ejVGjhz53jJ5eXnK6gPXr1/HrFmzoKqqih07dqB9+/ZITk5GWloaZfXG77//Xu19M8ZgaGiI/v37o1evXpTTGy9fvoSamho6duwIY2NjyMrKIiwsDLt27cL9+/fh5eVFWRFC6oeRjyorY+zHHxu3zYiICAaAHTx4sGpZaWkp++6779iYMWPq1ea9e/dYUVHRe8tev37NunXrxsaOHfvFc6qoqGAyMjJsz549jZx/GXv16hVjjLGoqCgGgNnZ2TWozUePHrGcnJxq61FUVGS9e/f+4llFRkYyACwiIqJR27179y4rLy9/b1liYiKTkJBgS5cubZFZ7dmzh8nIyLCKioovuh4ej8eGDRvGBg0a1CJzYoyxSZMmsRkzZnyx9hcuXMgmT57MJkyYwJSUlOrdTlPXKi6Xy6SkpNjhw4cbtd1bt24xAMzV1bXR2mzqrIKCghgAFhMT06jtFhYWsm+++YbNnTuX8fl8ochq+/btrGvXro32eWoTHBzMANT7t7apc2KMsdGjR7P58+c3+m8FAPbo0aP3luvp6TEALC8vr8VlxeFwWJs285mlJe2LE9KUaEh2E3Fzc4OYmNh7Z7IkJSVhYGCAsLAwvHz58rPbHDFiBNq3b//esi5dukBDQwOPHz9usVlJSEigR48ejdqmkpISunbtWm09M2bMQFpaGoqKilpkVurq6mjbtu17yxQUFKCkpFTvbUBYs/qQmJgY+vTpg4KCAsqpBnfu3IGbmxuOHTvW4LaEtVa9q6ioCDwej7KqhZOTE7KysrBnzx6IioqipKQEAoGAsvrE7ERERLBkyRLK6R0cDgcA8M0337y3XE5ODqKiotV+G2mbIoR8KuowN5GHDx9i4MCBkJGReW+5mpoaACA6OrrR1pWZmVltR57UnpW0tDSkpaWF5jMxxpCVldXo24AwZFVSUoLXr18jOTkZR48ehZ+fH6ZMmUI5fYDP58PExAQrVqzA0KFDv+j3Txhq1fLlyyEjIwNJSUlMmjTpi1zv2NKzCgwMhIyMDNLT0zFo0CC0b98eMjIyMDIyQllZGWVVi8rKSly6dAnq6uro378/5fSOiRMnAgAMDAwQHR2Nly9fwsXFBadPn8bq1asbfCkJ7VcRQh1m8pW9evUKcnJy1Za/XZaRkdEo6wkODkZYWBgWLlxIoX/E06dP4e7ujvnz50NMTExoPpejoyPS09MbdRsQlqw2bNiAbt26QV5eHhs3bsTcuXNx8uRJyukDZ86cwfPnz2Fubv7F1iEMtapt27aYP38+jh8/Di8vL+zevRtxcXHQ0NDAw4cPKat3JCUlgcfjYfbs2Zg6dSouX76MX3/9FWfOnGnU6/2F7Tfw2rVryM3NxdKlS+n794Fp06bB3NwcAQEBUFVVRd++fbFo0SKYmJjg6NGjlBUhpN5o0q8mUlpaCgkJiWrLJSUlqx5vqOzsbCxZsgQDBgzA5s2bKfQ6cLlcLFiwAFJSUti/f7/QfK4nT55g1apVGDNmDPT19SmrD6xduxa6urrIyMjApUuXwOfzUVFRQTm9Izc3Fzt37sSOHTvQrVu3L7IOYalV6urqUFdXr/p/HR0d6OrqQllZGVu3boW/vz9l9UZxcTG4XC4MDQ2rZsWeN28eKioqYGVlBTMzMygoKFBWH3ByckKbNm3w008/0fevBv3798f48eMxf/58dOnSBb6+vti7dy969OgBY2NjyooQQh3mlkRKSgrl5eXVlr8diiYlJdWg9ktKSvDjjz+iqKgIISEh1a7BIf+Pz+dj0aJFSEhIgJ+fH3r27CkUnyszMxMzZ85Ex44dq66Zp6zep6ioCEVFRQCAnp4etLW1MWvWLEREREBERIRyArB9+3bIysrCxMTki7Qv7LVKXl4es2fPhru7O/h8foO+h8KU1dvfuMWLF7+3fMmSJbCyskJYWFiDOszCuF0VFxfDy8sLU6dORZcuXej794F///0XK1euRGJiInr37l11EEYgEODPP//E4sWLG5Qb7VcR0nrRkOwmIicnh1evXlVb/nZZQ3awKyoqMG/ePMTGxsLLy6tB90ttDX777Tf4+PjA3t4ekydPForPVFhYiOnTp6OgoAD+/v6N1mETxqzepauri6ioqAbdt1qYckpKSoK1tTVWr16NjIwMpKamIjU1FWVlZaisrERqairy8vKoVn1Enz59UFFRgZKSEsrqjbc16cMJmrp37w4AyM/Pp6w+4OnpCS6X22jDsYUtJ0tLS6iqqlZ1lt/S0dEBl8tt0GURtF9FCHWYSRNQUVFBYmJi1ayOb0VERFQ9Xh8CgQB6enq4ceMGnJycMGHCBAq7Dps2bYKdnR2OHj1a7UxHS1VWVoZZs2YhMTERPj4++P777ymrT/T2UojCwkLKCUB6ejoEAgFWr16NAQMGVP1FREQgMTERAwYMgJmZGdWqj3j27BkkJSXrfUZKGLMaMWJE1Tb2rrfzd9R3+L8wb1eOjo5o3749dHR0GtyWMOaUlZUFPp9fbXllZSUA1HvWetqvIoRQh7mJ6Orqgs/nw9raumpZeXk57OzsMGrUKPTp06de7ZqYmMDFxQWWlpaYN28eBV2HgwcP4tChQ/jrr7+wZs0aofhMfD4fCxcuRFhYGFxdXTFmzBjKqgbZ2dk17lQ5ODhASkqq3gcZhC2nIUOGwMPDo9qfkpIS+vbtCw8PDxgYognPKQAAIABJREFUGFCteiMnJ6faspiYGFy5cgXa2toQFRWlrN54ew2ujY3Ne8vPnTsHcXHxqhmPKav/37YCAwMxd+7cRplxXxhzGjhwIB4+fFhthJCzszNERUWhrKxMWRFC6oWuYW4io0aNwoIFC7B161ZkZ2dDXl4e58+fR2pqarUdCFNTU/z999+4detWnTsRx44dg6WlJcaMGQNpaWlcvHjxvcfnzp3bqLdV+JpOnjyJgoKCqrMP3t7eSEtLq/ox69ixIwDA3t4ey5cvh52dHX755Zda2/Pw8MDmzZuhoKCAwYMHV8tKS0ur2lDBlmDDhg24cuUKZs2ahby8vGqfa9myZVX/3Zqz+v3338HhcDB+/Hj06tULmZmZcHR0xJMnT3D48OH3zgS25py6du2KOXPm1FhrAFR7rLXXqoULF0JKSgrq6uro3r07EhISYG1tDWlp6WoTv7X2rFRVVfHrr7/C1tYWPB4PEyZMQFBQEFxdXbF169b3LiOh30DAxcUFPB6vzuHYrT2nTZs2wc/PDxoaGjA2NkaXLl3g4+MDPz8/rFixgrYpQgh1mFsiBwcH7NixAxcuXEB+fj6UlZXh4+OD8ePHv/e84uJiiIiIoEePHnW29/bezWFhYQgLC6v2eEpKSost7IcOHcLz58+r/t/d3R3u7u5VncC3Hebi4mIAqPGWXe+KiYkB8L9rNH/++edqj9+6datFdpjfbgPe3t7w9vau9vi7HebWnNXChQthY2OD06dPIzc3Fx06dMCIESNw4MCBasMdW/s29Tlae62aM2cOHB0dceTIEXA4HHTr1g3z5s3Drl27IC8vT1l94MyZM+jbty/s7Ozg4eGBfv364ejRo1i7di1l9QFHR0d0794dmpqa9P2rxfjx4xEaGgpTU1NYWloiNzcXAwYMwJ49e6rNaE3bFCHkc4gwxhjFULfyckBXF6ih//FVqKmpoV+/fnB1dW3WOVVWVqJr1674888/8ddffzXJe/jpp5+QmpqKyMjIZp1VVFQU1NTUEBERATU1NcqqDnv37sWBAwfw+vVrtGnThnKqw+TJkyElJQVfX1+qVXUoLS1Fly5dsHv3bqxfv56yqsPt27cxceJExMTE1HtIa2vJaseOHThz5gyysrLqPfy+NeQEAGPGjEGvXr3g5uZG21QdioqK0KXLchw/7gYjI9ofJ6Sp0BnmZo7D4SAmJgbnz5+nMD6CMYagoKBqQ6YIZUU5Ua2irCgryolQVoQQ6jALIRkZmRrv10yqExERqXEyJ0JZUU5UqygryopyIpQVIaQ+aJZsQgghhBBCCCGEOsyEEEIIIYQQQgh1mAkhhBBCCCGEEOowE0IIIYQQQggh1GEmhBBCCCGEEEKow0wIIYQQQgghhFCHmRBCCCGEEEIIoQ4zIYQQQgghhBBCHWZCCCGEEEIIIYQ6zIQQQgghhBBCCHWYCSGEEEIIIYQQ6jC3RiIiQLt2QGYmwONRHjXhcrnIzs5Gx44dUVxcjOzsbDDGKJgaFBQUgMPhoF27dsjLy0NBQQGFUgPGWNV2JC4ujqysLHC5XAqmBjweD5mZmWjXrh0qKiqQmZkJHhWrGpWUlCA7OxudOnVCUVERcnJyqFbVIj8/H8XFxZCWlkZubi4KCwsplDpqlYiICMTExJCZmYnS0lIKpgaVlZVVtaq8vByZmZng8/kUTC21KicnBx07SoLD4SInhzIhpKmImZqamlIMHzmqIAooKQF///2/TnNlJdCnD+XylqenJ3x8fHD58mUcO3YMAQEB2L59Ozp16gQZGRl07tyZQgJQWloKJycneHh44NWrVzAyMoKTkxNOnTqFNm3aYNCgQWjTpg0FBeDZs2fw9vbG+fPnMWrUKCgoKODIkSO4e/cuAEBRUZFCeiM0NBS+vr44f/48tm7disTEROzevRvl5eUQExND7969KaQ3nRp3d3f4+PjgypUrOHr0KK5du4YdO3agc+fOkJWVRceOHSkoAMXFxXB2doabmxuKiorwyy+/4MKFC7C2toaYmBgUFRUhLi5OQQFISkqCt7c37OzsMHHiRPTs2ROHDx/GvXv3AACDBg2ikN64c+cOrl69CgcHB+zatQtxcXEwMzODQCCAuLg4evbsSSG9qVWurq7w8fGBv78/Dh0ygp/fM+zalYSOHb9Dt26AjAzlRMjXJMLo0PpnuXoVePQIiI0V4PRpEXToINJqC3pcXBz279+PSZMmYdiwYVBTU6t63N/fHz4+PoiJiYGPjw86dOgAUVHRVpuVs7MzAgMDoaWlBXV1dfTr1w8AUF5eDg8PD1hZWWHYsGE4fPgwREVFISLSOrcrgUCA7du3g8fjYfjw4ZgzZw4kJSUBAGlpaQgODsb27dthamqKJUuWtOqsioqKYGRkBGVlZQwZMgQzZsyoeuz+/fsICQnB6dOn4eTkBBUVlVb9/bt//z6OHDkCTU1NDBs2DCNGjKh63NfXF56ennj27Bm8vLwgLS3dqrNycHBAcHAwpkyZgvHjx6NXr14A/nfAz8vLCxYWFtDQ0MCePXtafa3avHkzxMXFoaqqirlz56Jt27YAgNTUVISGhmL79u3Yt28fdHV1W3VW+fn5MDY2hqqqKoYOHYqpU6dWPRYREYHg4GDY2dnBxcUF33//fav+/oWFheHkyZPQ1taGiooKVFRUqh7z9g6Cu3s5XrzoiSlThmDrVlGI0jhRQr7aF5R8ptJSxtau3cMMDIpYZCRjxcWt6/NnZmay0NBQNnXqVGZtbc0qKytrfF5ZWRnLzs5m06dPZyYmJuzBgwdMIBC0qqySkpKYq6sr09DQYPfv36/18xcVFbEHDx4wZWVlZmtryxITE1tVTgKBgD148IDt27ePaWtrs8LCwlqfl5eXxxwcHJiioiK7e/cuy8zMbFVZFRcXs8jISGZgYMDWrl3LSktLa3wej8djOTk5bNOmTUxTU5NFRkYyLpfbqrLKyMhgISEhTFNTk9nZ2TEej1dLTS9lmZmZTFNTk23YsIE9fPiw1dWqJ0+eMCcnJzZu3DgWFxdX6+fncDgsPDycDRkyhF28eJE9ffq0VeXE5/PZ/fv3mbm5OZsxYwbjcDi11qrc3Fx27tw5NnjwYBYWFsays7NbVVZFRUUsMjKS6enpsc2bN7OysrIan1dZWclycnLY6tWr2YwZM1hkZGStzxVW6enp7Pbt22zy5MnMycmJ8fn8Gp/H5XJZenoRGz58Hfvrr0wWE8NYKytVhDQJOsPcAC9eAOfOAWJiwNChwLx5wn/008LCAnl5eRAVFcWWLVuqjqjXJT09HVZWVnBycsKyZcswe/ZsqKqqCnVWBQUFOHHiBPh8Pvr27QsDA4NPel1wcDB8fX3h7e2NhQsXYvXq1ejUqZNQZ/Xw4UN4e3uDx+Nh8uTJmDhx4ie9zt7eHgEBAcjPz8e0adNgYmIi9GdwPDw8EBsbCz6fjxUrVqBv374ffQ2Px8P+/fvh6+uLH374AVOnTsWPP/4o9LXq2LFjKCwshLi4OLZs2fJJQ4ifP38OGxsbODo6Qk9PD/Pnz8eQIUOEOqvc3FycOnUKfD4f3333HfT09D7pdTdv3oSfnx+uXbuGBQsWYN26dWjfvr1QZxUVFQU/Pz/weDxoa2tj3Lhxn/S6c+fO4fr16ygvL8fUqVPxxx9/CP3+kaurKxISEsDn82FkZAQ5ObmPvqaiogL79u2Dj48Pxo0bB21tbUyfPl3oRyocPnwYJSUlkJCQwJ9//vlJZ9ifPn0KB4ccODomQ19/KX76SQR0pRIhdIa5WYuLY+zsWcauXGGsoEA4z/75+fmxiRMnMj8/P5aSklKvdh49esQOHTrEFBUVWWJiIispKRG6rCoqKtjevXuZrq4uCw8PZ3l5eZ/dBo/HYxEREWzZsmXsxx9/ZLm5uayiokLosiopKWELFy5kW7duZREREbWOVKhLfn4+Cw8PZyoqKszMzIzl5uYK5ZnB58+fMw0NDWZtbc3i4uLq3Yavry/r378/8/LyqvUsfks/++fp6ckmTZrEAgIC2PPnz+vVTmxsLNu9ezdTUlJiKSkpQnlmvry8nJmamrJFixax8PBwVlCPH6/KykoWERHBFixYwHR1dYW2VhUXF7N58+axHTt2sIiIiFpHKtQlNzeXhYeHMyUlJbZ//36Wl5cnlLUqKSmJaWhoMFtbWxYfH1+vNlJSUpiHhwcbMGAA8/f3F9pa5eLiwqZMmcJu3brFXr58Wa92oqMfs507fZmy8nX28qWAtbJBRITQGeaWd5QQsLQE4uOBiROBKVOArl1b/ud68uT/2LvzuJry/w/gryT7Ml9mbIOxJbRJKmWrVEpJ2SLZKoTs+1hGljKKMEb2tFqyhMQoCilZUqm0KGmjRd3qtt3t/ftjRr9ZjEHbvfV5Ph7zeIxbnXPvq3Penc/5fM7nk4ioqCjcuHEDVlZWMDQ0rFEvHhHBzc0NN27cgIyMDObMmYNJkyZBWlpa4rO6d+8eXrx4gbCwMLi4uNR4siWRSIRly5YhMjIShoaG0NfXx9ixYxvFHXV/f3/ExMQgNzcXv/76a41//+/evcPKlSsRGRkJBwcHqKurN4qJwQoKCnDnzh2EhoZi8ODBsLe3r9HzfUSE4OBgnDx5Ei9fvsTmzZthYGDQKCbmi4+Px/PnzxEYGAgbGxvo6urWqFaJRCIcOnQIt27dQvv27WFpaYlJkyY1iucr7969ixcvXiAiIgIHDx5E165da7S9D72IT548gbm5OXR1dT+791WcCQQC+Pv7Izo6unrUUE1//xkZGVi/fj0iIyOxa9cuqKurQ1ZWVuKzys3NRWhoKO7cuYNhw4Zh0aJFNb5WuHnzJs6cOYPU1FSsX78eRkZG6NAIZruKjY1FdHQ0bt68iSVLlmDUqFE1rlUuLocQFDQZXbuWYfr0wZg48fcVXhiGqR2swVzL3r8Hrl0DYmIIAwYAS5dKSWTRIiKsWbMG7dq1g6ysLCwtLWu1UVtUVAR/f3/s378f1tbWWLly5e8HpASG9e7dO2zatAmKioqQl5f/y4QmtdUQCAsLw549e3Ds2DHo6+tLZE5EhLt378LX1xeamprQ0NCAoqJire4jODgYwcHBuHPnDvz9/dGjRw+JzerXX3/Fq1evoKysDFNTU3Tu3LlWb1qcPXsW58+fR8eOHeHh4QEpKSmJzEokEmHFihXo3LkzZGVlMXPmzFpt1BYUFOD69etwdnaGvb09Fi9eLLG1KjMzE9u2bYOysjIUFRUxbty4Wm8IhIWFYd++fTh16hTGjh0rseffb7/9hosXL0JTUxOampoYMmRIre7j1q1buH37NiIiIuDv748uXbpIbFYHDhxAZmYmFBUVYW5uXquPEQmFQvj6+sLHxwc9e/bE8ePHJbZWCQQCLF++HN26dcPAgQNhYWFRq58jNzcXgYG5cHIKwsiRq7FoEaChIcUazgxTS8WOqQPp6VzS0NhJJ04QJSVJzvsWCAT04sUL2rx5M02cOLHOh0IVFBTQjRs3SF5enoKCgig7O1tisiouLqbY2FiaMmUKbdmypU4nKRGJRJSTk0POzs6kpqZGsbGxEjVMLTs7m0JDQ0lLS4suX778rxOa1IbKykrKycmhWbNm0bx58+jFixdfNYSyoSQlJdGJEydIQ0OD0tPT63RfJSUllJiYSOrq6nTgwAFKSUmRmJz4fD7FxsbS+vXracqUKf86+VJtyc/PpytXrtCQIUMoNDSU3r59KzFZFRUVUWxsLJmamtLOnTvrtFYJhULKyckhR0dH0tLSotjYWCotLZWYrLKysig4OJi0tLToxo0bdTpsuqKignJycmjatGm0cOFCevHiRZ3WxtqWmJhIR44coREjRtT53+7i4mKKi4sjVVVVcnNzk6jJ5qqqqig2NpZWrlxJM2fOrPPzIS+vgM6c+Y369vWksDA+NbF5MRmGDcmWRBcvAlFRQMeOwIwZwB+rCYml8PBw3L9/H0VFRZg6dSrU1NTqbd/+/v4IDAxEfHw8vLy80K9fP7H+vfr6+iI1NRVcLhcbN26s1yGtzs7OCA4ORo8ePXD06FG0bNlSbHPi8/k4dOgQSkpK0Lp1a2zYsKHeegaKi4vh6OiI69evY+XKlVi4cKFYH1Nv3rzBuXPnUFxcjGHDhmHq1Kn1tu+oqCicO3cOV65cwalTpzBmzBixzurevXsIDw8Hh8PBzJkzq5deqQ9+fn64efMm0tLS4Onp+VkTrzUkT09PvHnzBmVlZdi8eTPat29fbz2Pe/bsQXBwMGRlZXH48GGxXru5qqoKhw4dQmlpKTp06IC1a9fW274LCwvx888/w9/fH5s3b/7sidcaSmpqKi5evAgOh4MRI0Zg0qRJ9bbvx48fw8/PD9euXcOZM2egqakp1lnduXMHjx8/BofDwZw5cyAvL1+P1ynn8NtvasjJeQsTk1FYtgxsGSqGYT3M4ovLJVq+/BJpaUXT2rXlVFUlXu+vrKyMzMzMSEFBgU6cONFgE5GUl5dTSEgI2dvb08aNG6mkpESs7raLRCKKi4sjfX19GjBgAEVFRTVoj21wcDCZm5uTj48PcblcsZpARigUkpeXFxkYGJC2tvZXT2hSG+Li4sjX15eMjY0pJibmX5dhasjeh7Vr15KWlhYtW7aMuA20Tp1IJKKwsDBycnKi6dOnE4fDEbsJnEpLS8nExISGDBlCXl5eDXbMl5aWUkhICNnZ2dG2bdvEslZFRUWRvr4+DRw48KsniqsNGRkZFBQURJMmTaILFy402PH9bwQCAZ06dYr09fXJwMCgQUc5xcbGkoeHBxkbG9PLly/FslYtX76cRowYQWvXrm2wyfCEQiHdv3+fduzYQZaWllRcXCx2tYrD4ZCRkRENGjSI/Pz8GqxWFRcXU0jIa1JX30YGBpV05QqPJGgQA8OwHuamRigUoqyMh/nzf8GIEesxbNjvE4M19B31oKAg3Lt3DzweD3v37oWMjEyDT2rD5/MRGxsLKysrrFixAlpaWlBSUmrQ95STk4Nnz57h3Llz0NXVxezZsyEjI9Ogz1EREfh8Pnx9fbF7927s27cPqqqq+P777xs0q9jYWMTGxuLixYvYvHkzhg4dChkZmQZ9TyKRCHw+H+vWrUNCQgJWrFgBAwODBu+dv3v3Lp49e4ZHjx7B3d0dbdu2bfAJ8IRCIUpKSjBx4kQMHz4cZmZmn73UV12pqKhAcHAw7t69i+bNm2PXrl1iU6uePn2KuXPnYuPGjVBXV2/wZagyMzPx/PlznD17FhMmTICFhYXY1CoPDw+4uLjAxcUFampq6NatW4Nm9fz5c8TGxuLKlStwcHDAkCFDxKZWLV++HJmZmViyZAnGjx/foO+L/pgs8NmzZ4iKioK7uztatWrV4LVKIBCgqKgIEydOxJgxY2BiYtLgo2O4XC5CQkIQFBSE9u3bY9u2bWjRokWDP3PN5/Px4MFj2No+hoPDYgwf3gqDB7Nrc4b5XKzB3ADu3/99mHZyMmHJEkBevn4nZSAiXL9+HcHBwRg0aBD09PQwcOBAscvp4cOHCA0NrZ7wQ1lZuV7/6Hw4NZydnVFUVIRevXph7ty5aNu2rdhldf78edy4cQN5eXm4dOkS2rRpU+9ZVVZWYv369ejatSv69esHS0tLscupoqICZ86cgYeHB/T19bFjx47fC2E9Z5WQkIBff/0VAwcOxLBhw8RyCHRqaipu3bqFffv2wcXFBebm5vV+0UdEuHz5Mu7fvw85OTkYGhqK5eMa9+7dQ0hICC5fvoxz585h8ODBDVKrHB0dUV5ejp49e2L+/Plo1aqV2GXl4+OD69evo6ysDH5+fmjZsmW9Z1VWVoaNGzeiR48e6N+/PywsLMQuJy6XC09PT5w6dQqTJ0/Gjz/+2CC1Kjo6GidOnICcnBzU1NSgpaUldlklJSUhODgYLi4u+OWXX2BsbNwgter8+fOIjIyErKwsTExMxPJxjTt37uLu3V64eTMe2tqTsHevFKSl2YzaDPM5JznTAHg8IldXf9LUjKDJk7PpK5br/SqZmZmkqqpKqqqqdPfuXbFfB5LP51NaWhqtW7eOFi1aRCkpKXU6Yc2fhzTevHmThg0bRhoaGhIxwU9JSQm9evWKJk2aRAcOHKDU1NR6+f1WVlbSjh07SEtLi+bMmSMRk5Hl5eXR/fv3SU9Pj27dukU5OTn1st/CwkKaPHkyaWpqkqurq9ivWSsSiejNmzd09OjR6mGiRUVF9bLv169fk4qKCg0bNozCwsLEvlbxeDxKS0ujFStW0LJlyyglJYWq6uH5G5FIRFeuXCFVVVUaOXIk5eXlif35V1xcTCkpKWRsbEyHDx+mtLS0evn9VlRU0JYtW0hLS4sWLFggEZOR5ebmUlBQEOnp6dGdO3fq7W/R+/fvycTEhDQ1NenIkSPE5/MlolYdOnSITE1NKTExsd7+FqWkpJCysjKpqKjQ06dPxf6YqqqqorS09zR58mYaMaKIXF051AiXT2cYNiS7MeHz+di0yR0dOixEz57A/Pl1c6evtLQU7u7uePfuHb777jusWrVK4rJKS0uDhYUFTExMsG3btjq7g/zy5Uvcvn0b6enp0NfXx4QJEyQuq8DAQNjb2+Pw4cN1+v5v376NmJgYZGZmYsWKFejfv7/EZfXzzz/j3Llz8PLyqrPhtEQEd3d3ZGVloaSkBE5OTg0+9PNLVVVVYebMmZCWlsbJkyfRsWPHOtkPh8OBp6cncnJy0KtXLyxdulTijqnExETMnDkTM2bMwPr16+usVr148QJ3797F69evYWxsDH19fYnL6tq1a1i5cmX1knl1WRPj4uKQlZWFtWvXiv1kbR+zY8cOXL9+HV5eXnW2zjwR4eTJk8jJyUF5eTkcHR0bfOj1lyovL8f06dPRsWNHHDt2DO3atauT/RQUFMDX1xfZ2dno37+/2E8s+W81xNLSH1OmrICubgeI+XyPDNNgWINZTCQlAVOn/oQ+fbZi1Sop6OhI17jh/GGYrLu7O65evYqWLVvi+PHjDf7cWE0kJycjPj4enp6esLe3x6hRo2rlOVSRSISqqiqsWrUKUVFRMDAwqH72SFJFREQgKioKwcHBcHNzQ+fOnWulkcbn81FUVARra2skJibi4MGDMDY2ltic+Hw+QkJCEBoaCg6Hg3379qFFixa1cpFYVVWF8PBw7N+/H+np6bh48SLk5OQkNqu8vDxERUVVr6U9b948tGrVqsYNwg+16vjx4wgICEDHjh3h5uaG7777TmKzSkxMRFxcHLy9vbFmzRqoq6vXSq0SCoXg8Xiwt7dHdHQ0zM3NsXHjRrGegfq/PHz4EE+fPsW9e/dw/PhxdOzYsdZqVV5eHhYuXIjExEQcO3YMenp6EpsTj8dDSEgIgoODwefz4eTkhJYtW9bKs/xVVVUICQnB4cOHkZ2djQsXLkBWVlZis3r37h2io6Ph5eUFXV1dzJo1q1aG/3+oVYcPH8atW7fQrVs3/PLLL+jUqZPEZhUfH4/IyFbYuzcUgwbNhpeXDNq3Z2O0GebvJz8jJsrLK+jKld/IxOQhBQQQpaXVbHuPHz+mfv36kaGhISUmJtbL8MD6GnpVVlZGTk5OpKqqWuP1GIVCIf3666+kqKhI06ZNIy6XK/bDz75kSDuXyyUzMzOaPXs2FdZw7D+Hw6H58+fT2LFjycHBgcrKysR+qOyXDFP7MLTO1dW1xrMep6Wlkbq6OhkZGdGVK1cabEbZuqlV5XTp0iXq168fPXz4sMbbe/DgQXWtSk1NbTS1SigUUllZGW3fvp00NDQorYZFXSAQkIuLCw0dOpQsLS2prKysUdWqkpISmjBhAtnY2NR4OG1hYSHNmjWLdHR0yMnJqVHVqsrKSoqLiyMFBQU6cuRIjWvVq1evSEVFhYyMjCgwMFDsZueuybVCeXk5nT17lvr3709Pnjyp8Tbv3r1bXasyMzMbWa2qotWrd9CoUZEUFPT7Ci8Mw7Ah2WJLJAI2bEhHeHgKxo3Th4PDlw3TLigogKOjIwICArB9+3axnHyplm72wM3NDXl5eRAIBNixY8cX32mPiIjA+fPncevWLXh6ekJdXb1RZpWfnw8vLy/k5+dDVlYW1tbWX7wNT09P3Lp1C4WFhThz5oxEj1T4lA89XTk5OTAzM8Po0aO/+Lj86aefcOfOHWhqamLv3r0NPptzXbl8+TKSkpKQn5+PDRs2oGvXrl/cC7R3715cu3YNe/bsqde1p+uTUCiEm5sb8vPzAQDbt2//4p6u+/fv4+LFi7hz5w68vLwwbNiwRpnV27dvcfbsWeTl5UFBQQFWVlZfvI2TJ0/i9u3bqKiogLu7O7799ttGmdWjR48QFhaGt2/fYtq0aRgxYsQXH5fbtm3DnTt3oKenh507dzb4bM515cKFC3j16hUKCgqwZcuWL+4RzszMhKurK65evQpXV1eYmpo2ypwEAgGOHLmBixcJ/fuPhLHxd2ikZZlhWA9zY+nBefkyn/T0NpKmZimdOcMlgeC/f2bdunU0cuRIWrp0KSUmJorV2qB1JT8/n549e0YGBgbk4+PzWZOiFBYW0vjx42n48OF06tQpSk9PbxLHVXp6Ol24cIH09PTo+fPnn9XjHBcXR6qqqqSgoECPHz+m/Pz8Rp+TUCikxMRE2rlzJ82cOZMyMjL+s4dYIBDQmTNnSFNTk8aNG0cvX76ksrKyRp8Vl8ully9f0qxZs2jHjh2UkZHxn3WnrKyMVqxYQVpaWrR69WpKSkpqNL1/n5KXl0eRkZGkr69Pfn5+n1Wr3r9/T7q6uqSqqkre3t6UkZHRJGrV69evydvbm/T19SkuLu6zJpuLiooiVVVVUlRUpKioKCooKGj0OQkEAkpMTKStW7fSnDlzKCMj4z97iPl8Ph07doy0tLTIyMhILNd8rgulpaX08uVLsrCwoD179nxWreJyubR48WLS0tKwopxxAAAgAElEQVSijRs3UnJycpOoVe/evaPQ0AxSVDxAw4fn0+vXbPFmhvUwsx5mMe9FjYx8DHd3QFlZA2pqgJraP78vICAAL1++REpKCnbv3o1vv/220d4p/recPvSC7tq1C97e3tDQ0Pjo3VNPT0+8fv26+hkwAE0yqyVLliAlJQVnzpxBz549P9rTc/36dcTHx0NFRQVz585tklkVFBTA3NwcqqqqcHFx+eizlU+ePMGTJ08QExOD+fPnQ0NDo0nl9CGrsLAwzJ8/H7t27cKMGTM++n3+/v5ISkpCWloa9uzZg2+++aZJnn8nTpzA/v374e3tjeHDh//j+3g8XnWtkpKSws6dO5vk+UdEsLGxwbt373D69Gl07979o71/N2/eRFxcHEaMGIGZM2c2yazevn2LyZMnY+zYsf86WdejR4/w9OlTxMbGws7ODioqKk2yVoWEhMDW1hb79u2Dubn5R7/v0qVLSE5Oxps3b+Di4oK2bds2yVp1+PBRHD3aHStWmGHKFKBzZ3ZtzjQ9rMEsMYULOHLkNdzcIqGiMhUnTkhDWlqErKwMrF27FlFRUfDw8BDL9Vzru8DfunULUVFRSEpKwrFjx9CyZUsIhUIEBgbCw8MDmZmZOHv2LAYMGNCksyotLUVwcDBCQkLQpUsXbNiwAdLS0hAKhdi7dy/u3LmD3r174+DBg3U2I7KkSEtLQ1RUFC5fvoxp06bBxMQE0tLS4PF4WLBgAaKjo7Fo0SIsXbq0yV18/l1kZCRiYmIQHBwMR0dH9O3bFwDw6tUr/Pjjj3j+/Dl8fHygqanZ5GtVYGAgoqKikJaWhqNHj0JGRgZCoRBXr16Fj48P8vLy4O3tXZ1hU1VcXIy7d+8iODgYP/zwA1atWlVdq3bt2oXQ0FDIyclh//79dTYjsqRISUlBdHQ0Ll26hNmzZ8PAwADS0tKorKyEra0toqOjsXr1atjY2DT5WhUeHo6YmBiEhITA2dkZPXv2BBHh5cuXcHBwwPPnz3Hu3DmofayXogkRiUS4ceMRPDxeo7R0FCZM6IklS6TRvDlbv5lhDWZGDAmFQnC5fKxb54iYmKVITDwAVdXnMDExgK2tLdq3b9/k/wB+UFVVBQ6HgwULFkBPTw8nT55Ely5dsHnzZqirq6Nt27YspD+UlZUhKioKTk5OmDx5MpydndGrVy94e3vjf//7X63M7NtYGjilpaXw8fGpvkD/7bffoKSkBBcXF7Rr107ill+pKwKBAGVlZdi4cSPat2+PpKQkcLlcmJubY86cOaxW/UllZSUKCwuxcOFCTJgwAb/++iu6d+8OBwcHqKiooE2bNiykP9WqiIgI7N+/H2ZmZnB1dUXv3r3h7e2NDh06sFr1p1pVUlKCM2fO4PHjx+jVqxfu3buHYcOGwdHRkdWqj9SqNWvWoGvXroiKigKfz4eFhQUsLCxYrfpbrXr3jgtray9kZk7A6dP9MHq0DAuGYQ1mRnwlJiZi9uxK+PsPxfffszw+ZfHixQgODkZKSgoL4z/IyspCT08Pbm5uLIxPyM7ORs+ePeHn59doJ6qqLV5eXpg7dy5yc3Mlepmo+jBv3jw8e/YML168YGH8R4Owd+/emDZtGvbv388C+YTU1FQMGDAAAQEBEr38X304fvw4li5dioKCgiY/quq/zJhhibS0X/D4MRufzTQNzVkEkmnQoEFQVmY5MAzDMAzDMAzD1JVmLAKGYRiGYRiGYRiGYQ1mhmEYhmEYhmEYhmENZoZhGIZhGIZhGIZhDWaGYRiGYRiGYRiGYQ1mhmEYhmEYhmEYhmENZoZhGIZhGIZhGIZhDWaGYRiGYRiGYRiGYQ1mhmEYhmEYhmEYhmENZoZhGIZhGIZhGIZhDWaGYRiGYRiGYRiGYQ1mhmEYhmEYhmEYhmENZoZhGIZhGIZhGIZhDWaGYRiGYRiGYRiGYQ1mhmEYhmEYhmEYhmFYg5n5mKqqKmzYsAE9evRA69atoaGhgaCgoK/eXk5ODqysrCAnJ4f27dvjm2++gbq6Ojw8PEBEEpsTl8vFTz/9BENDQ3Tq1AlSUlI4c+ZMjbZZUVEBGxsbKCgooGPHjmjXrh2UlZVx8OBB8Pl8ic3qyZMnsLe3h7y8PNq2bYvevXtj+vTpSE5OZln9TXx8PKZNm4Z+/fqhTZs2+PbbbzFmzBhcv36dZfUJu3fvhpSUFBQUFFit+pvQ0FBISUl99L9Hjx6xrD4iKioKpqam6NSpE9q0aQMFBQUcOnSIZfUn8+bN+9fjSkpKCtnZ2SyrP6SkpGDGjBno2bMn2rRpg0GDBmHHjh0oLy9nxxTDSIjmLALm738EL168iJUrV0JWVhZnzpzBhAkTEBISglGjRn3x9goKCpCVlYWpU6eid+/e4PP5CAoKwrx585CUlARHR0eJzKmgoAA7duxA7969oaysjNDQ0Bpvs6KiAvHx8ZgwYQL69OmDZs2aITw8HKtWrUJkZCR8fX0lMquff/4ZDx8+xLRp06CkpIR3797h8OHDGDZsGB49evRVjZzGmtWbN29QWlqKuXPnokePHigvL8elS5dgamqKY8eOYeHChSyrv8nKyoKjoyPatm1b43O6MdaqD5YvXw41NbW/vDZgwACW1d/cvn0bEydOhIqKCrZu3Yp27dohNTUVWVlZLKs/WbRoEfT09P7yGhHBzs4Offr0wffff8+yApCZmQl1dXV07NgR9vb26NSpEyIiIvDTTz/h2bNnuHr1KsuJYSQBMRLLxoYoK6v2thcZGUkAyNnZufq1iooK6t+/P2lqatbqezcxMaG2bduSQCCo85zs7OxowIABtbrNyspKevv2LRERPXnyhACQu7t7nbx/e3t7AlC9v7o0YMAAsrOzq9VtPnz4kKqqqv7yWnJyMrVs2ZJmzZolkVllZWURAPLz86vz34lAICBlZWWSk5OTyKw8PT1JSkqK8vLy6mT7FhYWpKurS2PHjiV5efla33591qq5c+eSgoJCrW4zJCSk3o7V+spKJBJRz549adWqVbW63eLiYuratSuZm5uTUChsFFm9evWKAFBAQECd//4fPHhAAGj37t0SmdWxY8eoefPmxOFwam2bu3fvJgAUFxf3l9fnzJlDAKiwsFAia5WFxUxSUytgF+JMk8GGZDPVLl68CGlp6b/0YrVq1Qo2NjaIiIhAZmZmre2rT58+KC8vB4/Hk8isWrZsiW7dutXLvvr06QMA4HA4EpmVlpYWWrRo8ZfXZGVlIS8vj5cvX7Ks/oO0tDR69epV65+pMWR1//59XLx4EQcOHKjT80+Sa9WflZaWQiAQsKz+ha+vL3Jzc7F79240a9YMZWVlEIlELKsvyE9KSgqWlpYsqz+UlJQAALp27fqX17t3745mzZr9428jO6YYRjyxIdlMtefPn2PgwIHo0KHDX15XV1cHAERHR6NXr15fte2KigqUlZWBy+Xi3r17cHd3h6amJlq3bs2C/xsej4eSkhJUVFTg6dOncHFxwQ8//PDVwyfFEREhNzcX8vLyLKuPKCsrQ0VFBYqLi3Ht2jXcvHkTFhYWLKs/EQqFWLZsGWxtbaGoqFhr222stWr+/PngcrmQlpbG6NGj4ezsjOHDh7Os/iQ4OBgdOnRAdnY2zMzMkJycjLZt22L27NlwdXVFq1atWFb/gs/n48KFC9DS0qq+GceyArS1tfHzzz/DxsYGDg4O6Ny5M8LDw+Hm5obly5fX6FESdl3FMKzBzDSAt2/fonv37v94/cNrOTk5X73tgwcPYtOmTdX/HjduHNzd3VnoH3H58mXMnDmz+t/Dhw/H6dOn0bx54zldfXx8kJ2djR07drCsPmLNmjU4duwYAKBZs2aYPHkyDh8+zLL6k6NHj+LNmzcIDg6u1e02tlrVokULTJkyBRMmTMC3336LhIQEuLi4YPTo0QgPD4eKigrL6g8pKSkQCASYNGkSbGxs4OTkhNDQUPzyyy/gcDg4e/Ysy+pf/Pbbb3j//j1mzZrFzsE/MTQ0xM6dO+Ho6Ihr165Vv75582bs2rWL5cQwrMHMSJqKigq0bNnyH69/uKteUVHx1dueOXMmhg8fjvz8fAQEBCA3N7dG22vMdHR0EBQUBA6Hgzt37iAmJgZlZWWN5vMlJiZi6dKl0NTUxNy5c1lWH7Fy5UpMnToVOTk5uHDhAoRCYY2H2TWmrN6/f49t27Zh69at+O6772p1242tVmlpaUFLS6v636amppg6dSqUlJSwadMm3Lp1i2X1By6Xi/LyctjZ2VXPij158mTweDwcO3YMO3bsgKysLMvqI3x9fSEjI4Pp06ezc/Bv+vTpgzFjxmDKlCno3Lkzbty4AUdHR3Tr1g329vYsJ4aRBOwxbjbp1wfy8vKkq6v7j9fj4+MJAB09erTW9rVgwQLq1asXlZeXS+SkX39W15N+7d69m9q1ayexk3792du3b6lfv37Uq1cvys7Oltis6nPSLyIifX19UlNTI5FIJHFZ1cWkXx/O6T9PJldXk37VZ62qi0m//s2MGTOoRYsWtTpBUH1lVVeTfsnLyxMAunfv3l9ev3fvHgEgDw8PicuqPib9Ki0tpTZt2pCJiUmdbL++sqqLSb/Onj1LrVu3pszMzL+8Pm/ePGrTpg0VFBRIZK1ik34xbNIvpsnq3r073r59+4/XP7zWo0ePWtvX1KlTkZmZifv377PgPyMrLpf7VctPiJPi4mIYGRmBw+Hg1q1btXo8NbasPva5njx5UqO1qxtLVikpKTh+/DiWL1+OnJwcpKenIz09HZWVleDz+UhPT0dhYSGrVf+hV69e4PF4tTrKQNKz+lCT/j5BU5cuXQAARUVFLKuP8Pf3R3l5ea0Mx25sWR05cgQqKiro2bPnX143NTVFeXk5nj9/znJiGAnAGsxMtaFDhyI5Obl6VscPIiMjq79eWz4MGyouLmbBN4GsKisrMXHiRCQnJyMgIABDhgxhWTXw55LUrLKzsyESibB8+XL07du3+r/IyEgkJyejb9++NX42vikcU2lpaWjVqhXatWvHsvqDqqpq9TH2Zx/m76jN4f+N6bjy8fFBu3btYGpqyur63+Tm5kIoFP7jdT6fDwC1Oms9u65iGNZgZurB1KlTIRQKcfz48erXqqqq4O7uDg0Nja+aITs/P/+jr586dQpSUlIYNmwYC/4PBQUFIKJ/vH7y5EkAqPGMtg1FKBTCwsICERER8PPzg6amJsvqX+Tl5X30wsrT0xOtW7f+qhsNjS0rBQUFXLly5R//ycvLo3fv3rhy5QpsbGxYrfrE54qJicG1a9dgYGCAZs2asaz+8OH521OnTv3jXGnevDm0tbVZVh/5fMHBwTA3N0ebNm1q/ViV9KwGDhyI58+f/2N00NmzZ9GsWTMoKSmxnBhGArBJv5hqGhoamDZtGjZt2oS8vDwMGDAAHh4eSE9P/8cFxPbt2+Hg4ICQkJBPXkTs3r0bDx8+hKGhIXr37o3CwkJcunQJT548wbJlyyR6+Z/Dhw+Dw+FU9z5cv34dWVlZAIBly5ahY8eOAIAzZ85g/vz5cHd3x7x58/51e97e3jh69CjMzMzQr18/lJaW4rfffkNQUBAmTpwIXV1dicxpzZo1uHbtGiZOnIjCwkJ4e3v/5etWVlbV/9/Us1q0aBFKSkowZswYfP/993j37h18fHyQmJiIffv2/aU3sKlm9e2338LMzOwfr39Yi/nvX2vqtcrCwgKtW7eGlpYWunTpgoSEBBw/fhxt2rTBnj17WFZ/oqKiAmtra5w+fRoCgQBjx45FaGgo/Pz8sGnTpr88RsL+Bv7u/PnzEAgEnxyO3ZSzWrduHW7evInRo0fD3t4enTt3RkBAAG7evAlbW1t2TDEMazAzksjT0xNbt26Fl5cXioqKoKSkhICAAIwZM+Yv38flciElJYVu3bp9cnvGxsZITU3F6dOnkZ+fj1atWkFJSQnu7u41niG5obm4uODNmzfV/758+TIuX75c3Qj80GDmcrkA8NElu/5s1KhRCA8Px9mzZ5Gbm4vmzZtDTk4O+/fvx7JlyyQ2p+jo6OobCtevX//H1//cYG7qWVlYWODUqVNwc3PD+/fv0b59e6iqquLnn3/+x3DHpp7V52rqtcrMzAw+Pj7Yv38/SkpK8N1332Hy5Mn46aef/nFhzer678uV9e7dG+7u7rhy5Qp++OEHuLq6YuXKlSyrj/Dx8UGXLl2gp6fHzsGPGDNmDMLDw7F9+3YcOXIE79+/R9++fbF7926sX7+e5cQwEkKKPjZWj5EItraAgwPw/ff1v291dXX88MMP8PPzE/ucFi9ejODgYKSkpDTI/qdPn4709HQ8fvxY7LOSlZWFnp4e3NzcWFafkJ2djZ49e8LPzw9Tp05lWX2Cl5cX5s6di9zc3FpfAqqx1ap58+bh2bNnePHiRYPsX1KyIiL07t0b06ZNw/79+1lWn5CamooBAwYgICAAxsbGLKtPOH78OJYuXYqCgoLqG94sp4+bMcMSaWm/4PHjzuxinGkSWA8z88VKSkoQExMDDw8PFsZnXNiFhob+Yxgyw7JiWbFaxbJiWbGsGJYTw7AGM9MIdejQAVVVVSyIzyAlJfXRiZwYlhXLitUqlhXLimXFsJwYRvyxWbIZhmEYhmEYhmEYhjWYGYZhGIZhGIZhGIY1mBmGYRiGYRiGYRiGNZgZhmEYhmEYhmEYhjWYGYZhGIZhGIZhGIY1mBmGYRiGYRiGYRiGNZgZhmEYhmEYhmEYhjWYGYZhGIZhGIZhGIY1mBmGYRiGYRiGYRiGNZgZhmEYhmEYhmEYhjWYGYZhGIZhGIZhGKbRkd6+fft2FoNkKiwE4uIAkQjo2ZPl8Xd8Ph8eHh6orKzEixcv0LZtW3Tp0gUdOnRg4fxNVlYWLly4AAB49eoVRCIRFBQUIC0tzcL5m8jISISEhKC0tBRcLhcikQhycnIsmI+4fPky0tPTkZ6ejpYtW6JFixbo0aMHC+Zvqqqq4OHhAT6fj9jYWLRp0wbdu3dH+/btWTh/k56ejkuXLoGIkJ6eDqFQCAUFBTRrxu7//114eDgePHgADoeDyspKEBFkZWVZMB/h5+eHrKwspKWloXXr1mjZsiW6devGgvmb8vJyeHh4QCAQIjaWj1athqBXL6BtW5YNwxrMjJhSVgby84GICODECcDQEJCWBqSkmm4mRAShUIirV6/C0dERysrKmDBhAjQ0NBAUFISTJ08iPT0dY8aMgVRTDupPWTk6OiIoKAiDBg2CjY0NunfvjsOHD+PWrVto3rw5Bg8e3OSzEolEqKyshK2tLUpKSiAnJ4eFCxeiRYsWWLt2LcLCwqCiooJOnTo1+ayEQiESExNhb2+P77//Hpqampg8eTLS09Ph4OCAyMhIGBsbN/mbMR/Ov4sXL8LFxQXKysowNTWFqqoqAgMD4eHhgZycHIwcOZLVqj+y2r59Ox48eICBAwdiwYIF6NKlC1xdXREcHIzWrVtj4MCBrFaJRCgrK4O1tTUqKysxZMgQ2NraolmzZli9ejUePnwIDQ0NdOzYkdUqoRCxsbFYsWIFevfujVGjRmHSpElITEyEo6Mjnjx5AmNj4yZ/M+bD+efr64tDhw5BWVkZ5uZmUFIS4urVSPj4tEReXkeoqzeDlFTTvgZlGveJwEi4igqid++IRo0qpE2bcqiioulmkZKSQvLy8nTkyBHicDgkEomqv1ZZWUm5ubmkp6dH+/fvp6dPn/7l602JSCQif39/Gjx4MN2/f59KS0v/8nUul0v3798nHR0dunLlCqWkpDTh86uCNm3aRKNGjaK3b99SxZ9OMJFIRBwOhw4dOkSTJk2isLAwysvLa7JZvXv3jiZMmEBLly6loqIiEggE1V/j8/lUVFRE8+fPp1WrVtHDhw+pqqqqyWb18uVLGjx4MJ04ceIftaqiooKys7NJV1eXDh06RM+ePWuyOYlEIjp37hwNGTKEIiIiiMvl/uXrpaWlFBQURLq6uhQQEECpqalNNquysjJas2YN6ejoUF5eHlVWVv6jVjk7O9OUKVPo4cOHVFBQ0GSzysnJIT09PVqzZs2/1iorKytav349hYeHE4/Ha7JZvXjxggYOHEienp4frVUZGYWkrf0zycqmUEhI063pTOMmRUTEbhs0DikpKTh3jgM+Xw3q6oCJSdP57BUVFdizZw+aNWuGbt26YdGiRZ/8/tu3b2Px4sWwtLSEpaUlBg8e3GSyevnyJXx9fSEjI4MRI0bAwMDgk9/v4uICb29vTJo0CRs2bECbNm2aTFY3btxAZGQkZGRkMGPGjE8OZywvL8e8efPA4/FgYGCAJUuWNKn6c+jQIbx//x4tWrTAmjVr0KpVq08eg1ZWVhg9ejSMjIwwfvz4JpMTl8vF3r17IS0tjZ49e8LGxuaT3x8YGIhly5bB0tISc+fOxYABA5pMVrGxsfDz84OMjAxGjRoFXV3dT37/rl274O/vDxMTE2zatAktW7ZsMln5+/sjKioKMjIysLKyQt++ff/1e0tKSjBnzhzIyMhAX18fCxcubFK9pa6urigpKUHLli2xdu1ayMjIfPIYnD17NvT19WFkZIRx48Y1maw4HA727duH5s2bo0+fPpg7d+4nv//q1WtYvToTlpZLYWsL/PADuy5nGg/WYG6E4uKAe/eAmzeB06eBLl0a7x++wsJCXLp0CYGBgdi8eTP69u2Lb7/99rN+Pj4+HpcvX0ZAQAAGDRoENze3RtsYFAgEKCoqws6dO9GsWTPMnj0bioqKaNGixX/+7IfnKp2cnJCfnw9zc3MsXbr0kxcZkqy8vByFhYWws7ODoaEhtLW1oaCg8Fk/W1hYiLS0NFhbW6Njx47YvXs3Ro8e3WiHPhYXF+P58+dwcnLCqlWrMHjwYPzwmVdJb968QVRUFLZu3YrvvvsOFy9eROfOnRttrXr//j3Onz+Pu3fv4scff0Tfvn3RqVOnz/rZuLg4XLhwAcHBwVBUVMTBgwfRunXrRpkVn88Hh8PBtm3b0L59e8yYMQOKioqfVW+qqqoQFxeH7du3o7S0FNOnT8fChQvRvHnzRlur8vPzsXjxYkyaNAmjRo2CvLz8Z/1sQUFBda363//+BxcXF6irqzfaWsXhcPD48WPs27cP69atg5ycHHr16vVZP/v69Ws8evQITk5O1bXqf//7X6OuVV5eXnj06BHWr1+P/v3745tvvvmsn33x4hW8vZ8hLEwew4b9AGfnDmikpYppalgne2MdxkZUWUm0bh2RtzcRh9P4PuP9+/epT58+5OfnR0Kh8KuGV4tEIqqqqiJTU1OysLCgS5cuNbph2iKRiFxdXUlBQYESEhJIKBR+1XaEQiElJyeToqIi7dy5kx48eNDojikOh0OzZs0iY2Njqqys/OpjSigU0uXLl+mHH34gDw+PRjmkPTExkVRVVWnHjh01Ov+EQiFt27aNhg8fTt7e3v94PKAxuHPnDvXp04euXr1ao6wqKipo/PjxNHv2bLpy5Uqjq1VCoZD27NlDysrK9OrVqxrVqri4OBoyZAj9/PPPFBER0eiOqffv39O0adPI3NyceDxejc6/8+fPU58+fcjLy4tev37d6LKKj48nJSUl2rt3b41r1YYNG0hTU5O8vb2pvLy80WV18+ZN6tOnDwUGBn71+ScSiYjLLSNd3fVkbZ1M166xa3JG8rFJvxrr0AEpoHlzQEEBSE0F3N2B3Fxg6ND//7qk3v0sLi7GokWLwOPxMG/ePEyaNAlSUlJfdWdcSkoK0tLSGDduHJo1a4bt27fj8ePH6NatG3r27CnRd9tFIhEePXqELVu2YODAgViyZAkUFRW/+jNJSUmhc+fO0NLSwvv377FhwwY8ffoU2traEt3bRUQgIri7u8PT0xM6OjpYuXIlvvnmm68+pqSkpDB48GAMGjQI9+/fx6+//ork5GTo6elJ9DH1Iau1a9ciISEBpqamsLOzg7S0dI2yGjVqFNq3b48zZ84gMDAQVVVVUFJSkvisCgoKqofmW1tbw9jYuEa1qnnz5tDV1YWUlBS2bNmCp0+folevXujevbvE16oHDx7gp59+wpAhQ7B06dIaTTYoJSWFLl26QFNTE2/fvsWmTZvw9OlT6Ovrf9aoGnE//44dO4bz589DV1cXK1euRIcOHWp0/snLy0NWVhZ37tzB8ePHkZqaCh0dnUZRq1auXIlXr17B3Nwctra2Na5Vo0ePRtu2bXHy5Encvn0bIpEI8vLyEp/V27dvq0eO2draYvz48TU6/1q0kIGu7iAAfGzceArPnmmhf3/gu++k2KRgDOthZsT5bjTR+fNEgwalUVSUQCI/Q2lpKS1btoyMjY3p3bt3f5l8qTbv2vv4+JC2tjY9ePCAcnJyJDKrnJwcGjt2LG3dupVyc3O/+k7xp3pw8vLyaN26dTR79mx69uyZxPYMRkVF0aBBg+jcuXP0/v37Wt/+h8nmDA0NaefOnfT8+fNa/33UB4FAQEePHiUVFRWKi4ujkpKSWt9HSUkJRUdHk5aWFp09e5aSk5Ml8pgqLi6mhQsX0uTJkyk3N/cvky/VloKCAnJ3dyddXV0KDw+nt2/fSmRWWVlZpKWlRbt27aK8vLxaPzcEAgHl5ubSihUryNramp49e0ZlZWUSmdWjR49o0KBBdOXKlTqpVRUVFfTu3TvS09MjJycnio6OlshRDHw+nw4ePEiqqqqUlJRUJ3+biouLKTIykkaOHEl+fn706tUriTymioqKaN68eTRjxgzKzc2t9YkYRSIRFRQU0dGjl2jMmCc0YUIq5eaya3JG8rBnmJuYs2fP4+XLSWjRohVsbQFJWWbQz88PL1++BI/Hw9KlS9G9e/c67/FYsWIF4uPjYWxsjFWrVknE0hIikQiurq4oLS2FjIwMNm3aVOfv+927d7C0tET//v1hYGCAadOmScQxlZubixMnToDH42HQoHv6ES8AACAASURBVEGwtLSs832GhYXB2toalpaWMDY2hpqamkRkFRERgTt37qCyshImJiYYMWJEne/z1KlTcHZ2hpWVFezs7D57boKG5uvri1evXoHH42HlypV1/r6FQiHs7Ozw5s0bTJgwAStWrJCI3i6hUIh9+/ahvLwcrVu3xvr16+v8fWdmZsLS0hKKiorQ19eHubm5RBxTWVlZOHPmDHg8HhQVFeulxoaGhsLW1hZz5syBqakphn4YnibmHjx4gNDQUFRVVcHc3Byqqqp1vk83NzccPnwYM2fOhL29/Wc97ysOPD09kZ6eDh6Ph7Vr19b5++bz+bCx2YOCAgMYGWnA3p4tQcWwHmZGrHs/iMLCiObOFdKWLWXE4RCJY4dXeXk5paSkkLa2Np06dYpiY2PrvUc7LCyMNDU1afv27cThcMS2Z7CkpIT8/PxIX1+fgoKCKCMjo173n5mZSbdv36YBAwbQxYsX66T3sbZ6xjkcDm3dupXmzJlDYWFhVFxcXK/v4cWLF3TgwAEaOnQoJSUlie1zcDwej4qKimjSpEnk4OBAERER9Xr8C4VCCg8Pp7lz59LkyZOpqKhIbJd2KS8vp/j4eNLW1iZPT0+Ki4ur1/1zOBwKCwuj4cOHk5OTk9jXKh8fHxo/fjzdvXuXMjMz63X/b968ocDAQJKVlaVr166Jfa1at24d2draUlhYWL2P4omJiaGff/6ZVFVVKS0tTWxrVVVVFRUWFpKxsTE5OjrSo0eP6rVnXCAQ0MOHD2nmzJlkaWkp1rWqrKyMnj9/Tjo6OuTr60sJCQn1uv/CwkIKC8umoUN/pHHjKunWLR41wmkrGNbDzDQmhYXFWLTIG1FR6ti3TwlmZuKzBEdeXh4WLlyIqqoqTJw4EXZ2dg3WwysQCPDo0SP88ssvMDU1hbKy8mfPmlwf4uLiYGFhgSFDhmDZsmUNNiszEUEgEOD06dN48uQJJkyYgJEjR6Jr165ik5W/vz/WrFmDYcOG4ejRow02K7NIJIJQKMTq1avRoUMHqKmpwcTERGxm8+XxeNi6dStCQ0MxYsQI7N+/H9LS0g3WE1lQUIDly5dj5MiRUFZWxtixY8XmmHr79i1sbGzQrFkzmJmZwdraukFr1f3793H8+HFMmjQJQ4cOFasl82JiYjB9+nQoKSlhzZo10NDQaNBadfToUcTFxWH8+PEYM2aMWI1iuHDhAjZv3gwVFRWcPHkSHTp0aNBatWzZMnTp0gWqqqowMTFpsHrwd5WVldi0aRMiIyMxcuRI7Nmzp0FrVU5ODtauXYsxY8ZAWVkZo0aNEquRCvPmzUObNm0wZcoUzJ49u0Fr1e3bd3Hq1Dd4/VqAs2e1ICfHrssZ8cUazAzu3g1BbOwIJCS0xoYNQL9+DTNM5sOheOjQIWRmZkJOTg7Tpk0Tm+FNRARnZ2f4+vpi9OjRcHV1bbAGDhFBKBRi1apV+O6779CvXz/MmjVLbIZicjgcLFy4EFwuFwYGBg06TJSI8Pr1a+zZswdDhgyBkpLSf67nWp/i4+Mxa9YsqKioYMaMGTAwMGjQrAIDAxEQEAAVFRWMHTsWcmJ0FXPr1i0sXrwYenp62LZt22cvC1NXtcrFxQX5+fmQlZXFjBkz0L59e7HISSQSYdeuXbh69SpGjx6N/fv3N9iFMRGBz+dj1apV6N69O/r3748ZM2aITa16//49bG1tIRQKYWRkBDs7uwY9/5KSkrB//34oKChg6NChGDNmjNicf7GxsZg1axbU1dVhZWUFbW3tBrvhAfx+AzQoKAgqKirQ0dERqzXKr127hpUrV2LcuHHYuXMnujXQ828fsnJyckJJSQn69++PWbNmic0SmkKhEFu3HsGdO7IYPXo8nJ1/P57YUG1G7LBOdub3IU1EGRlECxYIyNIyixISiOpzRNHbt28pODiYFBUVKTAwkPLy8sR2mGpGRgZZWFjQypUrKSEhodYnyfgvr169or1799LIkSMpOTm53ocUf8nQy5SUFFJXVyc3N7d6X1qJx+NRQkICWVpakq2tLWVkZNT77+pz5efn07Vr10hDQ4Pu3r1b75PNcTgcio+PJ1VVVTp48CBlZWWJ5WQ/IpGIsrKyyMHBgUxMTCg+Pp449bxmXnZ2NgUGBpKysjIFBwdTfn6+2A5TzcjIIHNzc1q/fj0lJCQQn8+v199VSkoK7dq1i8aOHUupqaliO/y5uLiYEhMTafjw4XTy5Ml6n8CpqqqKEhISaOrUqbR06VLKyMgQ2yG9eXl5dPHiRRoxYgQ9ePCg3iebKywspBcvXtDQoUPJzc2NsrOzxbZWZWZm0o8//kjm5uaUkJBQ78d/VlYW+fv709ChQ+nevXtUUFAglsdUZWUlZWQUk7HxBlJTKyI3t2JqhKubMWxINtOYVFRUYNu2i7h1qwtsbUdixYp2db7P1NRUzJkzB0OGDIGxsTHMzMwkIqv4+HicPn0aXbt2hZqaGnR0dOp8nyEhIbC1tYWZmRnmz58vVkPDP8Xf3x/h4eHo2rUrzMzM0L9//zrf58GDB3Hy5EkYGhrCwcFBbO6o/5e9e/eitLQUnTp1wuLFi9GqVas63V95eTkWLFgADoeDcePGYfXq1RKRU2lpKRwcHPDNN9+gT58+sLKyqvN9JiUlYfbs2Rg2bBhMTExgYmIiEVlFR0fDy8sLXbt2haamJkaPHl3n+wwKCsKiRYtgbm6ORYsWYeDAgRKRlZ+fH54+fYouXbpg6tSp+OGHH+rlnPf19cX48eOxY8cOtGzZUuxzIiI4OjqiqqoKnTp1ql6SqK7PeRsbG1RWVsLAwAD29vYScUwVFRVh165d6NSpU/UIi/q4Ppk9ezY0NTVhamqK8ePHS0RWjx8/xrlzMggISIOHxxRoarLrcob1MDNiLCEhgc6fryRDQx5FRAiotldwEgqFxOVyacWKFbR8+XIKDg4W2wlF/usu8oULF0hOTo4ePnxYJ0td8Xi86glNnJ2dKSwsTCKX+igvL6fVq1fTqFGjqKCgoE56UCoqKujRo0dkaGhI58+fp/j4eIk8/7KyskhfX5+WL19OXC6XBAJBrR+3ZWVldPToUZo6dSoFBQVJ7LJEMTExJCsrS+7u7lRWVlbr54ZAICAul0tLliyh1atXU3BwcJ0sE1UftcrT05MGDx5MT58+rbNalZeXR0ZGRuTq6krh4eESeUxxuVyyt7cnHR2dOpvAqaKigu7du0eGhoZ08eJFSkxMlMisMjIySFtbm9avX09cLrfWJ5v7UKsOHTpEFhYWFBwcTLkSui7Rs2fPaMCAAeTj41OntcrGxobWr19PwcHBYjtS4b9+58ePnycFBV+aPLmCSkpEVI+DYxiG9TAzX0YkAi5c8Ie3dx8UF4vg7T0MtXGzPTY2FhERETh48CCGDBkCT09Pien9+3hOIvB4POzZswfv37+HkZERxo4di7Zt29b4Dn5oaCj8/Pzw4sULjB49Gjt27BCbiaG+hkAgQGVlJRYsWAAlJSVoaGhAR0enxs/BlZeXIzQ0FHv27EGHDh1gZWWF6dOnS8RSYP+Gx+MhMTERP/30EyZPngwlJSUoKyvXeLuZmZmIiYnBihUrMGTIEDg7O0NOTk4iliL6t/OEx+Ph0qVLuHbtGmbPng0lJaVaeb45OjoaDx48wLFjxyAvLw8PD4867/Gvj1rl4OCAiooKGBgYQEdHB61bt67x7+Du3bs4e/YsUlJSoKOjgy1btkh8rSovL4etrS3U1NSgpqaGsWPH1vg84XK5uH//Pnbu3Ilvv/0W8+fPh5mZmcTXqtjYWOzevRvTpk2DoqIiFBUVa7zd9PR0xMTEYNWqVZCXl8eBAwfQr18/ia5VVVVVOHfuHG7fvg0rKysMHToUPXr0qPG2nz17htDQUHh6ekJRURGnT59GixYtJLxWibB+vSMeP7bGmDHAzp09IQGDLxjWw8w0VTwej3799QZt2UK0fXvNthUVFUWDBw+mnTt3UlhYWKPL6s2bN6StrU3Lly+v8d3jc+fOUb9+/ejQoUP05s2bRpdVWFgY9e/fn7y9vWu8rTVr1tCoUaPo8OHDYvucck2cOHGC5OTk6PHjxzXaTlFREeno6JC1tTVduHCh0eVUUVFB1tbWNG7cuBo/2/zo0SMaOHAgOTk5UURERKPLKjU1lUaOHEnr1q2r8bY8PT1pwIABdOjQIcrOzm50WYWGhlK/fv3o/PnzNe45W7p0Keno6NCRI0fq9Zny+vLLL7+QvLw8PX/+vEbbycvLozFjxpCdnR1dvny50eVUVlZGVlZWZGhoSFwut8Z/SwcMGEB79+6lp0+fNrqskpKSSF19M1lbF9PVq+yanGkYrMHMfMEfMBGNGbOe1NU5dO5cGX3uvESVlZWUmppKEydOpBEjRtDhw4cb5YXCB/n5+RQZGUl6enp06dKlL7qALCoqori4OFJRUSFlZeUaN5Ak4QaDh4cHGRgY0IsXL6iwsPCzfzYnJ4fOnTtHampqNHr0aLGdKK42CAQCevXqFf344480f/58Sk1N/ewhtSKRiF6/fk0bNmygkSNH0tKlS+t9Pdf6VFpaSikpKTRlyhRydnam169ff/bNq4qKCkpNTSVDQ0PS0NCgEydO1PpwePGq6Xn08OFD0tPTo4CAgC8all9YWEjR0dE0dOhQUlZWppiYmEZdq9LT0+nUqVM0fvx4SkhIoKKios/+2ezsbPLw8CANDQ3S1dUV24niagOfz6dXr17RunXraNGiRZSamvrZjzAIhUJKS0ujVatW0ciRI2nlypU1bkyKs5KSEkpOTqZJkybRgQMHKD09/bNrVXl5OaWmppKuri6pq6uTp6en2K69Xhvevcul27eTSEXlJKmpvaXkZBGJ6XynTCPFhmQzXzyk6N69ezh3rhPCwjLh7W2MoUM//f3bt29HYGAgtLW1sWfPHjRr1kxih1R9aVYnTpxASkoK+vTpgxkzZnxy3d/3799Xr+FqaGiIhQsXNpmciAgbNmxA27Zt0atXL1hbW3/ys0dHR8PKygqjRo3CjBkzamWopKRklZWVhT179qBPnz5QUFCAkZHRJ3/G398fq1evhpGREbZs2YJu3bo1mayCg4Nx7do1yMnJYezYsZ8cJioUCrF582aEhoZCW1sbTk5OTSKnD1kdPnwYWVlZ6N27N2bNmvXJ5fxyc3Mxf/58tG3bFkZGRpg/f36TOaaEQiHWr1+Pb775Br1798bcuXM/+dmfPn2K2bNnQ1tbG1ZWVtDS0moyWb1+/Rr79u1Dv379oKSkBH19/U/+zPnz57F582aMHz8eDg4O6Ny5c5PJ6ubNm7h16xYGDhyIcePGfXL9dIFAgHXr1uHJkyfQ0dHBjh07mlStcnV1Q3CwPjp25OH4cXmIyWp+TCPHGszMVxEKhbh9OwoREWrIyODj2LHmaN5cCtLSv3+dx+MhNDQUbm5usLKygoKCglit51qfCgsLsWTJEgiFQnh5eUFGRgbSfwRFfzx/efjwYSQkJMDc3ByampqfbFg3ZklJSbCwsICVlRWWLVuGFi1aVF8ICIVCCAQC2NnZoVevXtDU1ISBgUF1lk3N7du3YWdnhyNHjkBXV/cvz6sJBALk5ORg2bJlMDIywtChQzFixIgmmZNAIICj4/+xd+dxNeX/H8BfpVCSpWTPljQT+dLIlr1oUfYs2ck2WYYwjJ0sY41I2VLKUpTKuG0KjYQQshTJmjba93vfvz9m9ENp0Hpv7+fj0eNhzq3Pufc157zv+ZzzOZ+zGefPn8f58+fRpEmTz+6tzcvLg6+vL44dO4ZJkyahU6dOVep5rhUpISGhcGb2o0ePQkZGpkit2rlzJ168eAETExPo6uqW2LGWZI8ePcKYMWMwa9YszJ49u0itys/Px8yZM9G+fXv06NED+vr6Yn2fcmn4+Phg4cKFOHToEHR1dT+rVfn5+Xjx4gWWLFmCoUOHonPnztDR0amWOX2cX8Df3x/e3t5QUlIqUqt8fHzg6upaOFdDmzZtqmVW7969g4XFXhQU/Ibhwxtg6lQZ1KzJz29m3GFmVVRuLjBr1mo8eDAXI0fKolcvWQB3YGVlhUaNGmH+/PkwMjKqNmc/v55TLhITEzF37lwYGRmhW7duUFJSwv3797F48WK0bdsWx44dQ/Pmzav9NpWVlYWrV6/C1tYWc+bMwU8//YSUlBQIBAKcPXsWmpqaOHTokFg8eqU8EREyMzPh4OCAiIgITJ06FZ06dUJkZCTs7OyQmJgIIyMjLFy4UKwnXyqrTnNOTg4WLFiAFi1aYNCgQdDU1MT9+/exaNEiNG3aFFZWVhg0aBDXqtxcxMXFYf78+Rg2bBi0tbWhqKiIiIgILF++HG3btoWzszNUVFS4VmVl4dKlS3BwcMDcuXPx008/ISkpCd7e3vjrr7/QuXNnHDhwQKwnXyrLWmVra4vo6GhMnDgRWlpauH//PmxsbJCeno5hw4Zh3rx51fYE6Ke1Kjs7G/PmzUP79u3Rv39/aGhoIDIyEpaWlmjZsiX++OMP6Orqcq3KzcXz5/FYsMAPMTHdsX//z/j55xoog/keGeMOMysfEREREAhqYe3aMxgwQA5Dh8pj3rx51b6gF8fb2xv379/HhQsXoK2tDX19fZiYmHAwxRxkHThwAElJSXB2dsbMmTNhaGhYJjNFS5rk5GQcPXoUiYmJ+OuvvzBlyhRYWFhU26t/JQkPD0dgYCDCw8ORlZUFY2NjzJ49m2tVMc6dO4fHjx/j/Pnz6N27N/T19f/zFoDqSCQSwdbWFu/fv4ezszNmz54NY2NjaGpqcjhfiI+Ph5OTE+Li4nDp0iWYm5tjzpw5qMvjaosICwvD5cuXcf36dQCAkZERZs6cycEU48wZD/j5qSMm5j3OnOkDZWXOhHGHmVXhDs7Jky8RG9sKK1dyHiW5efMmdHR0EBYWVm2Hn32rzZs3Y9u2bUhKSoKsrCwHUoKBAwdCTk4OFy5c4DBKkJ2dDSUlJWzatAmLFy/mQEpw+fJl9O/fHxEREdDS0uJASrB69WocPHgQ8fHx1Xb49bfq2bMnmjdvDnd3dw6jBOnp6VBSUoKNjQ3mzp3LgZRAIBDA0PAJoqMXopreVcPKEVd0VmakpKSgqtqKg2CMMcYYY4xxh5kxxhhjjDHGGOMOM2OMMcYYY4wxxh1mxhhjjDHGGGOMO8yMMcYYY4wxxhjjDjNjjDHGGGOMMcYdZsYYY4wxxhhjjDvMjDHGGGOMMcYYd5gZY4wxxhhjjDHuMDPGGGOMMcYYY9xhZowxxhhjjDHGuMPMGGOMMcYYY4xxh5kxxhhjjDHGGOMOM2OMMcYYY4wxxh1mxhhjjDHGGGOMO8yMVbTc3FwsX74czZo1g5ycHLp37w5/f/8ya9/FxQVSUlJQUFAQ65wyMjKwdu1aGBgYoGHDhpCSkoKjo2OZriMkJARSUlKQkpJCUlKSWOZ08+ZNWFpaQlNTE3Xq1IGqqirMzMwQFRXFOX0hMjISY8aMQdu2bSEvLw9lZWX07dsX3t7enNV/sLa2hpSUFDp27Mi16gvBwcGF/8+//Ll+/Tpn9YXbt2/D1NQUDRs2hLy8PDp27Ii9e/dyTp+YOnXqV7cpKSkpvHnzhrP6RHR0NMaNG4cWLVpAXl4eGhoa2LBhA7Kysni7YuwLMhwBE5cvQnd3dyxatAjt27eHo6MjjIyMEBQUBF1d3VJ3MpctW4Y6deqIfU5JSUnYsGEDVFVV0blzZwQHB5dp+yKRCPPnz0edOnWQmZkptjlt27YNf//9N8aMGQMtLS28e/cOtra26Nq1K65fv17qDo6k5AQAL168QHp6OqZMmYJmzZohKysLZ8+ehampKezt7TFr1izOqhivX7/G5s2by7SuSFKt+mjBggXo1q3bZ8vU1NQ4q0/4+fnBxMQEXbp0werVq6GgoIBnz57h9evXnNMnZs+eDT09vc+WERHmzJmD1q1bo3nz5pzVv169egUdHR3Uq1cPlpaWaNiwIUJDQ7F27VqEh4fj/PnznBVj3GFm4uTGjRs4deoUtm/fDisrKwDA5MmT0bFjRyxbtgzXrl0rVfubNm1C3bp1MWDAAHh6eop1Vk2bNkVcXByaNGmCW7duFTkQLS0HBwe8evUKM2fOhI2NjdjmtHjxYri6uqJmzZqFy8aOHYtOnTph69atOHHiBOf0LyMjIxgZGX22zNLSEtra2ti1a1epO8ySlNWnrKys0KNHDwiFwjK7ai5JteqjPn36YPTo0WXerqRklZaWhsmTJ8PY2Bju7u6QlpbmnL6iZ8+e6Nmz52fLQkJCkJWVBXNzc87qE87OzkhJSUFISAg0NTUBALNmzYJIJIKTkxM+fPiABg0acFaM/YuHZLMqz93dHTVq1PjswLx27dqYMWMGQkND8erVqx9uOzo6Grt378auXbsgIyP+549q1aqFJk2alEvb79+/x6pVq7BhwwbUr19frHPq1avXZ51lAGjfvj00NTXx6NEjzuk/1KhRAy1btkRKSgpnVYwrV67A3d0de/bsKbM2Ja1WfSo9PR0FBQWcVTFcXV0RHx8Pa2trSEtLIzMzEyKRiHP6jvykpKQwYcIEzuqLEzEA0Lhx48+WN23aFNLS0kW+H3m7YtxhZqyKu3PnDtTV1aGoqPjZch0dHQDA3bt3f7jtRYsWYcCAAUWuoLGiVq9ejSZNmmD27NkS+fmICPHx8VBWVuacipGZmYmkpCQ8e/YMu3fvxsWLFzFo0CDO6gtCoRDz58/HzJkz0alTpzJrV1Jr1bRp06CoqIjatWtjwIABuHXrFmf1iYCAACgqKuLNmzfo0KEDFBQUoKioiLlz5yInJ4dzKkF+fj7OnDmDXr16oXXr1pzVJ/r37w8AmDFjBu7evYtXr17h9OnTsLOzw4IFC0o1lJqPq5gk4lM/rMqLi4tD06ZNiyz/uOzt27c/1O6FCxfg5+eHiIgIDvk/3Lt3D/b29vjrr79Qo0YNifyMLi4uePPmDTZs2MA5FWPJkiWwt7cHAEhLS2PkyJGwtbXlrL5w8OBBvHjxAgEBAWXWpiTWqpo1a2LUqFEwMjKCsrIyHj58iB07dqBPnz64du0aunTpwlnhn6t1BQUFGDZsGGbMmIEtW7YgODgY+/btQ0pKCk6ePMk5fYWvry+Sk5NLPRxbErMyMDDAxo0bsXnzZnh5eRUu/+OPP7Bp0ybOijHuMDNxk52djVq1ahVZXrt27cLXv1deXh5+++03zJkzBz///DOH/B8WLFgAQ0NDDB48WCI/3+PHj/Hrr7+iZ8+emDJlCudUjEWLFmH06NF4+/Ytzpw5A6FQiLy8PM7qE8nJyVizZg1Wr16NRo0alUmbklqrevXqhV69ehX+t6mpKUaPHg0tLS2sWLECAoGAs8I/kydlZWVhzpw5hbNijxw5Enl5ebC3t8eGDRvQvn173qaK4erqCllZWZiZmfH+V4zWrVujb9++GDVqFJSUlHDhwgVs3rwZTZo0gaWlJWfFGHeYmTiRk5NDbm5ukeUfh6PJycl9d5u7d+9GUlIS1q9fzwH/h9OnT+PatWt48OCBRH6+d+/ewdjYGPXq1Su8X55zKkpDQwMaGhoA/pl0b/DgwTAxMUFYWBikpKQ4KwCrVq1Cw4YNMX/+/DJrszrVKjU1NQwbNgznzp2DUCj87n1RErP6+P02fvz4z5ZPmDAB9vb2CA0N/e4Oc3XYpjIyMnD+/HkMGTIESkpKvP994dSpU5g1axaioqLQokULAP+ciBGJRFi+fDnGjx//3bnxcRXjDjNjlahp06bFPj8xLi4OANCsWbPvai81NRWbNm3CvHnzkJaWVjj5RUZGBogIsbGxkJeXh4qKCocPYOnSpRgzZgxq1qyJ2NhYACic7OnVq1fIy8v77v8HVUVqaioMDQ2RkpKCq1evlupzSHJOxRk9ejRmz56NqKgodOjQodpnFR0dDQcHB+zZs+ez20RycnKQn5+P2NhYKCoqomHDhlyrStCyZUvk5eUhMzOzyLwV1TGrZs2aITIyssjkTB8/x4cPH/j7rxienp6lnh1bkrM6cOAAunTpUthZ/sjU1BSOjo64c+dOkUd08XbFqjVirAxdvUpkbV22bVpZWVGNGjUoNTX1s+XW1tYEgF6+fPld7T1//pwAlPgzbNiwcs3pxo0bBIDCwsLKbR03b94kAHTs2LFStfNfWXXu3Llcs7K2tiZFRUXKy8sr03azs7OpT58+JC8vT9euXSt1e5WdExHRgAEDyMjIqEL29T179vzwNlzZWWVlZZGcnBzt3LmzzNoMCgr6z8+1cOFCsatVwcHBBIAiIiIqZLsaNWoU1a5dm4RCodhltWrVKlJWVv7u916S33//nQBQYGDgZ8sDAwMJALm4uIhdTkREPXr0oFGjRpVb+wYGBqSgoECZmZk/3EZVyCotLY1kZWXpwIEDZdquuro6de/evcjy06dPEwC6ePGi2GV18eJFAvZQdDQfi7Oyx1eYmVhcydqxYwccHBwKn8Ocm5uLY8eOoXv37mjZsuV3taeiogIPD48iy/fu3YvQ0FCcPHmy2EnGqqvisjp16hROnz4NJyenImeoxYFQKMTYsWMRGhqK8+fPF3l2J+f0/xISEopcFcjPz4eTkxPk5OR+6F41ScyqY8eOxX6uVatWIT09HTY2NmjXrh3Xqn8lJiYWuc87IiICXl5eMDQ0/O7nDUtqVmZmZti6dSuOHDmCgQMHFi4/fPgwZGRkCmc75m3q820rICAA48ePh7y8/A+3I8lZqaurw8/PD1FRUVBXVy9cfvLkSUhLS0NLS4uzYoyvMDNxusJMRDRmzBiSkZGhpUuXkr29PfXq1YtkZGTo8uXLn/3e2rVrCQAFBQV99zqmTJlCderUqZCcyvMK8759+2jjxo00d+5cAkAjR46kjRs30saNGyklJaXw944dO/bDV6A/5pyYmFjuWZXHFeaFNpUt6AAAIABJREFUCxcSADIxMSFnZ+ciP58Sl5zK6wrz8OHDaeDAgbRu3To6dOgQbdy4kTQ0NAhAkSu04pJVeVxh/pp+/fqRpqbmVz9vVa9V5XWF+eO2umnTJnJwcKBFixaRvLw81atXjx4+fCiWWZXHFWYiounTpxMAMjMzo/3799OYMWMIAK1YsUIscyrvK8z79u0jACQQCP6z3lT1rMrrCvPly5epRo0apKKiQhs2bKD9+/eToaEhAaCZM2eKZVZ8hZnxFWZW7Tk5OWH16tVwdnbGhw8foKWlBR8fH/Tt2/ez38vIyICUlBSaNGlSbbPasWMHXrx4Ufjf586dw7lz5wAAEydORL169QqzAlAtz/p+fHa3t7c3vL29i7w+ceLEz7ap6poTAIwdOxZHjhyBnZ0dkpOTUbduXWhra2Pbtm0wNTUtsv9V56y+R3WvVcOHD4eLiwt27dqFtLQ0NGrUCCNHjsTatWuhpqbGWX3i4MGDUFVVxbFjx+Dh4YFWrVph9+7dWLRoEedUDBcXF6ioqJR4D251z6pv3764du0a1q1bhwMHDiA5ORlt2rSBtbU1li1bxlkx9gUpIiKOgZWVkBDgyhVg5crKWb+Ojg5atWoFNze3Kp3TzZs3oaOjg7CwMOjo6FTKezAzM0NsbCxu3LhRpbPavHkztm3bhqSkJMjKynJOJRg4cCDk5ORw4cIF3qZKkJ2dDSUlJWzatAmLFy/mWlWCy5cvo3///oiIiPjuYZrVLavVq1fj4MGDiI+P/+4h5dUpJwDo2bMnmjdvDnd3d96mSpCeng4lJSXY2Nhg7ty5nFUJBAIBDA2fIDp6Ib4458ZYqfEVZiYx0tLSEBERgePHj3MY/4GIEBwcjBMnTnAYnBNnxbWKs+KcOCvGWTHGHWYm6RQVFYt9XjMrSkpKCgkJCRwE58RZca3irDgnzopxVoyVQJojYIwxxhhjjDHGuMPMGGOMMcYYY4xxh5kxxhhjjDHGGOMOM2OMMcYYY4wxxh1mxhhjjDHGGGOMO8yMMcYYY4wxxhh3mBljjDHGGGOMMe4wM8YYY4wxxhhj3GFmjDHGGGOMMca4w8wYY4wxxhhjjHGHmTHGGGOMMcYYkzQ11q1bt45jYGWlTh3g+nXA2RkwMACkpABpPi0DACAi5OfnY8+ePfD394eGhgY8PT3x7t076OjoQFpaGlJSUhwUAKFQiPz8fMyePRt169ZFYmIi/Pz8ULduXbRp0wY1atTgkP5VUFCAFy9ewMLCAkOGDIGPjw+CgoLQu3dv1KlTB9K8AxbKy8vDhQsXsHHjRowYMQJnzpzBjRs3YGhoCCkpKd7/vqhV27Ztw/Xr19G6dWucP38eSUlJ0NbW5lr1Ra3Kzc3FjBkz0LhxY7x8+RL+/v5QVlZGy5YtuVZ9Uauio6MxZ84cDB06FB4eHggODkb//v1Ru3ZtrlVf7H+enp7YunUrTExM4Obmhtu3b2Pw4MFcq4rJatOmTbh37x6aNRPBy+snpKbK4X//k4a09D/HoYyVlhQREcfAylJuLpCYCMydCxgZATo6gLZ29c4kJiYGjx8/xoEDBzB//nzo6upCRkYGycnJmDJlCmJjY3HgwAHo6+tX++0nPDwcN2/exIULF2BnZ4dGjRpBKBQiJCQEO3fuRHx8PM6ePYt27dpV+4PPa9euQSAQIDk5GTt27ICcnByys7Nx8OBBXLx4EY0bN4atrS2UlJSqdVbJycl48OABHBwc0LNnT0yZMqUwq7lz5+Lhw4cYN24cFi9eDBkZmWqd1dOnT/Ho0SPY29vDysoKOjo6qFGjBuLj4zFjxgw8f/4cR48eRd++fat9rbp58ybCwsLg5+cHBwcHNGjQAAUFBbh06RJsbW3x/v17nDlzBm3atKnWOeXl5SE0NBQ+Pj7IycnB5s2bC/e/vXv3wt/fH61atYKNjQ3q169frbNKSEjAo0ePcODAAQwcOBDm5uaoVasWcnJyMHPmTERFRWHq1KmwtLSs9idjoqKiEBkZiSNHjmDlypX43//+B2lpabx+/QFz5nggNrYfbG074OefZaCqysfmjDvMrArz8hLht9+Owc5uBgYPrp4ZPH/+HOPHj4eenh42btxY7JnhCxcuICIiAqmpqZgzZ061PcDy8/PD3LlzsWvXLgwbNqzI60QEOzs7JCYmIj8/H2vXroWsrGy1zGrXrl04fvw4nJyc0Llz5yKvp6SkwN7eHunp6VBVVcWsWbOqZU65ubmYPHkycnNz4ejoWOwB+d27d+Hr64sPHz5g8ODBGDhwYLXM6smTJzA3N8ewYcOwatWqYmvV+fPn8eDBA6SlpcHS0hItW7aslllduHAB8+fPh62tLYyMjIqtVba2tkhOTgYRYc2aNdW2g7Nlyxa4u7vD2dkZP//8c5HXk5KScOTIEaSnp6Ndu3aYNm1atcwpKysL5ubmkJWVxdGjR6GgoFDkd27duoWAgACkpKRg6NCh0NXVrZZZRUZGwtzcHBMnToSVlVWxv3P2rCf8/DTw5Mk7nDrVH02a8DE54w4zq6KICI8exeLixTYICQFsbYEGDQB5ecn+3EKhEAkJCbCxscGHDx/w66+/on379pCTk/vq32RnZ2PTpk0ICgpCp06dsG7dOqioqEj8QVZWVhY+fPgAS0tL6OrqwtDQED/99FOJQ84SExMxbdo0pKWlYcKECRg5ciRUVFQkfn9KSUnB48ePsWbNGsyfPx9aWlpo1apViX8TFRWFkSNHom7dutizZw80NDRQr149ia87iYmJ8Pb2hqenJzZs2ABVVdUSr7QTEc6cOYMtW7ZASUkJJ06cQP369UvcZyVBQUEBEhMTsX37duTn58PCwgIdOnRArVq1Stxn165di2vXrkFbWxsrVqyoFrUqMzMT79+/x7x586Cvrw99fX1oaGiUWKsSEhIwceJEZGdnY9q0aTAxMUGjRo0kvlZ9+PAB9+/fx6ZNm7B48WJoamr+58mVyMhImJmZoW7durCzs0O7du2gqKgo8bUqISEB586dg6+vL9avX4+WLVuiYcOGX/0bkUiEEydOYM+ePVBRUcGxY8fQoEED1K5dW6Kzys/PR1JSEqytrVGzZk1MnToVGhoaqFmz5lf/JiMjA3/8sQ/h4Wbo2VMZS5bUg4oK3yrIuMPMquyXApCZCSxcCLRvDyxYILmd5hs3buD27dsICwuDpaUlunbt+s33GxERsrOzsWDBAoSEhGDJkiWwsLCQ2O3C09MTjx8/RnR0NGxsbFCnTp3vyur+/fvYvXs3rly5AhcXF/To0UMic8rJycHp06fx6NEj1KpVCx+nnviWrD6W+NOnT8PDwwPx8fFwdHRE69atJTKr2NhYBAcHIzQ0FIMGDcKYMWO+O6s1a9bg8uXL6NixI3bt2iWxB6KhoaG4e/cubty4gSVLlkBTU/O79r+MjAwsXLgQISEhWL16NSZNmiSxters2bN48uQJnj9/jr1796J27drflVV4eDhsbW3x999/w9XVFd26dZPYkwpubm6IjIxE/fr1sXLlyu/e/5ydneHl5YXU1FQcO3YMLVq0kMisnj59iqtXryI0NBSGhoYYPnz4d2e1YsUKXL16Fd26dcOff/5ZYudRnF29ehX37t3DrVu38Pvvv0NdXf279r+UlBQsXuyBK1faYfPmHhg7thYfmLPv7cgwVrHCwoimTSM6cYKooIBIJJKMzyUUCunu3bukoaFB9vb2JCrlB7t58ya1a9eOxo0bR7dv3yahUCgROYlEIiooKCAXFxdq27YtXb9+vdRtHjt2jNTV1cnc3JwyMjIkLqvffvuN+vbtS8+fPy9Ve5mZmTRr1izq06cPrVq1igoKCkq9nVal/S81NZX69u1Lc+bMoaysrFK1FxMTQ7q6ujRy5Eg6deqURGVVUFBAN27cIHV1dXJ0dCx1e6GhodSmTRsaN24cRUZGStz+d+zYMWrXrh3dunWr1O3Z2dnRTz/9RJMnT6bs7GyJy2revHmkp6dHL1++LFV76enpNG3aNOrfvz9t2LBB4mpVcnIy9erVixYuXEg5OTmlai86Opp69OhBo0ePpnPnzklcrQoJCaF27drRqVOnSt3elStXqXXrDTRunJCio0UkIbsfqwB8hZlVytXmlBTAyws4exZYsQJo2xZo3Fh8r/7du3cPTk5OkJOTw++//4769euXenjix7Oi586dw4kTJ1CzZk0cP34cTcT4Rpz4+HjExMRg69atGDFiBIYNG4b69euXesZPoVCIlJQUrFu3DuHh4dDV1cX69evFejjt06dPERERgUOHDsHa2hodOnQo9p62H9le09LSYG5ujnfv3mHt2rUYNWqU2M66SkS4c+cOAgICEBYWhoMHD6Ju3bplclU4IyMDDx48wPLly5GUlAQPDw+oq6uL7TaVlZWFBw8e4OjRo1BSUsLixYvLtFadPHkSbm5uUFBQwJEjR8T6Nol3797h2bNn2LJlC8zNzWFoaFgmE1J9rFUrV65EREQE9PT0sGrVKrEexRAVFYXbt2/D0dER27dvR5s2bcqsVqWkpGDChAmIj4/H1q1bMXToULGtVSKRCHfu3IGvry8iIiKwf/9+1K1bt8TbH75Veno67ty5gzVr1uD9+/fw8PAQ64kxMzIy8PDhQ9jb20NVVRWWlpZo0KBBqWdSJyJ8+JAOJydPeHp2g5JSTSxf3g5dugDVdDoU9o24w8wqVW4uMHPmE7x/n4YTJ7qhQQPxO1hfs2YN/P39ceLECaipqZXLej4+4qWgoAD16tXDokWLxO6g4cOHD5g4cSIaNGiAI0eOlMlBQnFiY2Ph6OgIAOjSpUuxk4dVdbdv38bkyZMxd+5c/Prrr+W2nkuXLuHKlSsAgJEjR0JLS0vssnJzc8OKFStw6NAhDBgwoNzWc/jwYbx+/RoAsGTJEtStW1fsatWyZcsQGhoKFxeX/7z3/cdrei7+/PNPCIVCKCkpYf78+WK3TSUlJcHc3BwtWrSAvb19uc2cHh0dDRcXFwBAt27dYGxsLHZZ3bhxA1OmTMGSJUswc+bMcluPr68vQkNDAQBjx47FTz/9JHZZubi4YN26dTh69Cj69OlTbuuxs7NDfHw8pKSksHTpUsiL2f1vIpEIixYtwv3793HixAk0b968XNaTlZWF7dsF8PCQwsSJ+rCyUgBjJX2JMlapPnz4QGFh72jcOKJdu4iSk6v+MO3U1FTy8/OjIUOGkK+vL8XGxlbIel+8eEHa2trUv39/8vHxqfLDrkQiESUnJ9Pu3btp3LhxFBYWRu/fv6+QdQcFBVGHDh2oT58+9Pr16yq/H+Tl5VFSUhJNnz6dVq5cSTdu3KD8/PwKWe+WLVvol19+oQkTJlBmZmaVzyozM5NiYmLIwMCADh8+TA8ePKiQ9SYnJ9PYsWOpX79+9Oeff1JeXl6VzyolJYV8fHzIwMCAAgMDSz1U9ls9f/6cOnfuTP369SN/f/8qX6uEQiElJSXRtm3byNzcnMLCwiglJaVC1u3r60saGhrUr18/io+Pr/LbVG5uLiUlJdGkSZNozZo1dPPmTSooKKiQ9a5fv550dHRo2rRppb7toiJkZGTQkydPaMiQIXT8+HF6+PBhhaw3MTGRRo4cSf369aM9e/ZUyHdJWRwLnjt3jgwNDSk4OLjCvrefPn1KHTsupb59s+jy5TxKS+PjcsZDslkVJhQCfn7AvHkhWL++B7p3l0GHDlXrPaakpEAgEGDr1q2YMGEClixZAmlp6Qq92isUChEYGIjjx4/D0NAQ2traVfJs+5MnTxAWFoa1a9di//79GDJkSIXOoktEEIlE2Lt3L54+fYo+ffpg8ODBJc4+WlmuXLmCgIAAXLhwAR4eHmjRokWph5597xl9oVCIX3/9Fc2aNYOWlhaGDx9eoe/hW9+nh4cHXFxcUKtWLTg7O6NGjRoVuv+JRCK8fPkSK1asgK6uLrS0tMr1atGPSk5Ohr+/PzZt2gQLCwtYWlpWSq26ePEiTp06BSMjI/zyyy9Vckj7w4cPERYWho0bN8LBwQEDBgyolFq1fft2vH37Fr169YKhoWGVnM0+KCgIvr6+uHTpEry8vKCiolLhtaqgoKDw8YudOnXCsGHDqtyIK6FQCA8PDzg6OkJZWRlHjhyp8P1PJBLh2bNnWLNmDfr16wctLS306tWrym1TCQkJuHTpEtatW4dFixbBwsKiQrP6Z/8jnD/vjZMn2+H16zQsXNgLpqaS/0QX9u24w8yqHH//S/D3V0ZwcBw8PYegaVOgsr8LiQhEhOnTpyMxMRETJkzAuHHjKvUxKkKhEKdOncKTJ0+QmpqK3bt3Q0pKqtIPHIgIcXFxGD58OPr164fBgwdDX1+/Ut9TYmIiLly4gPDwcGhqamL27Nn/FMAqkFVgYCBmzZqF5cuXo3fv3ujYsWOlvqeIiAjcvHkT165dw5QpU9C3b98qkRMA7N27F4cOHYKVlRVMTU0r/eTHxYsX8fDhQ9y/fx/bt2+HsrJylchKJBLB3Nwcubm5MDMzw9ixYyv15EdBQQFOnjyJJ0+eICcnB3/++WeVqVUvX77EyJEjYWBgAD09vXId1v8t4uLi4Ovri5s3b6Jr166YPn16lalVAoEA8+bNwx9//AFdXV1oaGhU6nu6ffs2bt26hdDQUFhYWKBnz55VplZt374dLi4u+O233zBixIhKP/nh4+ODhw8f4tGjR9i1a1eZzB1SFlkVFBTAzMwMsrKyGDVqFMzMzCr1feXl5eHUqWs4diwWnTqZwMZG6d/9j4/Nqz2+yM6qopycHHr7NoMmTyZavZro3r1/ZtSuDNHR0eTk5ET6+vr06NEjSqti43XS0tJo+PDh9Msvv9DevXsrbehVQUEB3bt3j1avXk2TJ0+mt2/flnr2z/IYetW9e3f66aefKCwsrFKH9EdERNC4ceNo27ZtFBcXV6VmyxUKhXTmzBnS1dWl3r1709u3byvtvbx584auXLlC+vr65O3tTUlJSVVqm8rOzqYVK1ZQ7969ac6cOZVaH548eUJHjhyhIUOGUHR0dJWrVampqWRsbExdu3YlBweHChnGW5z8/Hy6d+8e/f777zRjxgx6+/Yt5ebmVqmsHj16VFir7t69W6lD+iMiImj06NG0a9cuiouLq1LD6wsKCsjZ2Zl0dXWpf//+FBcXV2nv5fXr1xQYGEj6+vrk6+tLycnJVWqbysrKosWLF1Pv3r1p4cKFlJGRUWnv5fHjx3Tw4EEyNDSkmJgYSk9Pr1JZpaSk0ODBVtSlSwI5OqZRTAwfl/OQbL7CzKq4sDBg6lRPjB1riMGDa6GiRhTFxcXh+PHjOHr0KNasWYOJEydW6ZzCw8Ph5uaGevXqoU+fPtDV1a2wdYeGhsLPzw+nTp2Co6MjunfvXqWzOnPmDCIiIlC3bl1MnDixQp/zefLkSfj5+eH169c4deoUlJSUqvIJVWzZsgW5ublQVFTEwoULy20CpOKuStrY2MDT0xPdu3fH9u3bq/REd0lJSdixYwcUFBSgpqaGcePGVdi6X716BRcXFxw+fBibN2+GmZlZld7/rl+/Dk9PT9SrVw8DBgyo0OenX716FX5+fvDw8ICTkxO6du1apbM6ceIEHj9+DAUFBUydOrVCn5Lg7OwMX19fvH//HidPnqySQ8Q/EolEsLa2hlAoRP369bFgwYIKG1WRl5cHGxsbnD17Fvr6+ti4cWOV3qbi4uJgY2MDBQUF/PTTTxg1alSFrTsmJgZnzpzBoUOHsHPnzsJnT1dVV69ehaenMgSCh5g0aRRmz4bYTU7L+Aozq0YePHhIdnYR1KnTabp3j6g85/rIy8ujlJQUMjIyolmzZtHff/8tNs80FIlE9Pfff5O1tTWZmJiU+xnkrKwsun//PnXq1IkOHDhQYZMvlYX09HS6fPkyWVhY0PLly8v1CpNIJKL09HRydXUlNTU1CggIEIuJyD56+fIlBQQEkKGhIbm6upbr1fCPz1P+/fffqV+/fnT58mWxmIjso3v37tHx48dp0KBB9Pjx43KtHbm5ufT+/XvS09MjS0tLCg0NFZtaJRQKKSQkhNavX08jRowo9wmcsrKyKDw8nDQ1NenIkSMVNvlSWV2Zv3z5Mk2bNo1Wr15drpPNiUQiSktLI0dHR1JXV6dLly5V6lXb7xUbG0u+vr5kYGBA7u7u5VqrCgoKKDU1lX777TfS09Ojy5cvU3Z2tthkdffuXTp8+DANGjSIYsr5Empubi4lJiZSv379aPHixRQWFiY2taqgoICuXn1AEyYcJBOTaEpNJRKDOdQYX2Fm1dU/k30QFi8uwJMnkZg/vysMDICaNctuHUFBQfD29kZYWBi8vb1Rr169Sr1P+UcJhUIsW7YMUlJS6NOnD4YMGVKmz/nMy8uDQCCAra0t2rdvj927d0NGRqbKTRL1LVJTUzFjxgz06NEDXbp0waBBg8q0/bdv3+LmzZuwsrLCH3/8gQkTJkBWVlbsHgtGRAgLC8Off/6JUaNGoVOnTmX+GKp79+4hNDQUu3fvhrOzM7p06VJhV7TLulYdOXIEV69exahRo6Cjo4OmTZuW6ToCAwPh4eGBBw8ewMvLC3Xq1BHbWrVo0SLIy8ujd+/eMDAwQM0yLOo5OTnw9fXF7t27oa2tjS1btohtrUpOToaFhQX69u2L//3vf+jfv3+Zj1QIDw/HkiVLsGHDBowZM0Zsa9XVq1dhY2ODMWPGoFOnTtDU1CzTddy5cwchISGws7PDyZMnoampKba1ys7ODrdu3cLw4cPRs2fPMn1+OhHB398fbm5uiI2NhaenJ2rXri2WtaqgoACWlptx69YkGBnJYciQJujdm4/NqwvuMDOxk5WVBSen6zh69AWMjMZg7dp/np1Xmu/0p0+fYseOHfD19cWyZcugr69fbs9UrkhPnz5FQEAAIiMjMWjQoFLPJkpE8PHxwblz5xAZGYnp06dj8uTJYvecx+JcvnwZd+7cwePHj7Fo0aJST2hDRNixYwcCAgLQqFEjDB06tEKH6ZbnwairqyueP3+O+Ph47Nixo9TP1M7JyYGVlRWCg4Mxbtw49O/fv0JvKSgv6enpcHFxwfPnz9GoUSMsWbKk1J2Phw8fYu/evfDz88OyZctgYGCA1q1bi31Wjx8/RlBQECIjI2FgYABjY+NS1yoPDw94enri2bNnmDx5MqZOnVpuz3+vSIGBgbh37x6ePHmCpUuXol27dqXepzdv3oxLly6hVatWMDIywujRoyWiVjk7OyM2NhbJycnYuXNnqTu1mZmZWLp0KYKCgjB16lT069evQm8pKC8pKSk4deoUnj17hpYtW2L+/Pml3v/u3bsHOzs7BAQEwMrKCsbGxmjZsqXYZxUZGYmgoNrYtUuAgwfnQV9fiicFqw74IjsTVwkJCRQUVEBduybR+fPZ9CPzEqWkpNDDhw9JU1OTtmzZQi9fvhSbYULfM8QuODiYtLW16a+//qI3b978UDtv374lLy8vatu2Lfn6+lJCQoLEbVN5eXm0fft2GjhwIEVGRtKHDx9+KO9nz57R2rVrSUtLi54+fVrlJl8qq2Gi5ubmNG/ePIqKivqhIe05OTkUFRVFpqamNHHiRHr+/LlYPNv4e71584Z0dHRo37599OzZsx+qMR8+fKD79+9Thw4daOfOnfTq1SuJrFW+vr70yy+/kL+//w8PBX7z5g25ublR27ZtKSgoiBITEyVum8rJySFra+vCySh/5JnRIpGInj59SitWrCBtbe0qOflSWUhJSaHRo0fTokWLKCoq6odqTHZ2NkVFRZGBgQFNnz6dnj9/LhbPNv5eL168IG1tbTp48CDFxMT8UI1JTk6mu3fvUvv27Wnfvn1idfvR9+w7Xl5+1K3bKerZ8zU9eSLi5zfzkGzGqjaBQABPzza4cSMGU6YYYuZMoE6d//47JycnXLhwAVlZWdDT08PChQslPisbGxvEx8ejcePGmD59OurWrftNZ9QPHz4MJycndOvWDcOHD4eBgYFE55SXl4cVK1agXr16aNmyJaZOnfpNZ9sfP34MgUCAvXv3wsTEBAsXLkTbtm0lOquoqCjs378fLVq0QNeuXb95SHtAQAACAwPh5+eHQYMGYfPmzWI5pPF7eHt7IygoCK1atYKBgQE6fMOD5okIjo6O8Pb2BhFh8ODBmDt3rsTXqp07d+L9+/dQUVGBhYXFN41iSU1NhaOjI44cOQJdXV2MGjWqzG+xqGqys7Pxxx9/oGHDhmjVqhUmTZr0TX/34MED+Pv7Y9++fTAxMcHSpUsrdPLDyvDgwQMcOnQIqqqq0NbW/uYh7QKBAP7+/ggJCcHAgQNhbW0tlkP6v8e5c+fw999/Q1VVFUOHDv2mUQxEhMOHD8PLywu1a9fGkCFDMHPmTImvVVu2HMClS/3QokVNGBi0x9ixfFzOV5gZq8JXBn19I2jo0L1kYZFMWVnFP4ZKJBJRVlYWHTx4kDQ0NEggEFB8fHy1yio+Pp4EAgGNHz+e9u3b99VHuxQUFFBWVhZZWFiQsbEx+fr6SuTVv5I8fPiQ3NzcyNjYmK5cufLVs+15eXn07t076t69O61YsYKuXbtW7fbBkJAQ2r17NxkbG5f4OJWcnBwKCgoiNTU1cnV1pcePH1ernHJycsjX15eWLFlC8+bN++o+9bFW7d27l37++WcSCAQSeaW0JG/fviWBQEBmZmZkb2//n7Vq0qRJNGLECPLz85PIq38lefDgAZ08eZKMjIxKnFApLy+PXr9+Tdra2rR27Vq6fv16tcpJJBLR5cuXafv27WRqakqpqaklXlUWCATUtm1bcnNzo+jo6GqVVVZWFvn6+tLChQtp0aJF/1mrdu7cSZ07dyaBQEDv37+vVlm9fv2a/vrrDbVps4YcHfMoK4tIwgYAVXvcYWYSJTc3l548EZGWVgzt3JlM4eH//1psbCx5e3tT27Z5WqepAAAgAElEQVRtyd3dnbKzsyVuSOP3ePr0KRkaGtLhw4fp1q1bn712+/Zt2rlzJ2lpadGTJ0+q3DNKK5JQKCR3d3caNmwY+fj4fDabqEgkosDAQJo8eTKZmppSRkZGtTtQ/1R+fj6tWbOGZs2aRQKB4LOh6KmpqSQQCEhbW5s2bdpEWVlZ1Xr/y87OptGjR9PGjRspMDDwsyxiYmLIw8OD2rZtS15eXmI18255dHAePnxIRkZGdOzYMbpz585nr9+8eZO2bNlC//vf/ygmJqba1ypXV1caMWIE/fXXX/TixYvPXvP396dx48bRmDFjKDMzs9Keg11VatXvv/9O8+bNI4FA8NkTJd6/f08CgYA6d+5M27dvr/a1KjMzk0aMGEFbtmyhoKCgz7KIjo4md3d3atu2LV28eLHa16q7d++RkdFpUlO7RRcviugH74BjVRAPyWYS6datWwgMbIDDh6/A2HgqgI24e/cSNDQ0MHjwYIwcOZJD+mTo1ZMnTxAfH4+5c+fCzs4Of/31F2bMmIFBgwbhl19+4ZDwz2y+Bw8eREJCAgDA0NAQJ0+ehEAgwNy5czF+/Hg0btyYg8I/M4OfOXMGb9++hZaWFogIFy9eRHJyMoYPH47Zs2dL/JDGb3X9+nVcu3YNL1++xPjx43HhwgVcunQJXbp0gb6+PkxNTTmkf505cwZPnz5FQkJCYa3y8fHB7Nmzoaenhy5dunBIAPLz83Hw4EEkJiZCVlYW/fv3x5kzZxAYGIhZs2Zh0qRJVfr57xXp5cuXOHfuHN68eYNffvkFmZmZEAgEyMrKgqmpKSwsLMRulvDyEhISgrCwMLx69QqTJk3C2bNncenSJfTq1Qt6enowMjLikP7l6uqBixdbIiGBoKfXDUuXcibijjvMTGKJRCI8e/YONjbuEAi64a+/lNC8eXPU+ZYbnKuZzMxMvHnzBtOnT4eqqirWr1+Pdu3acaemGImJiXj69ClGjBiBlStXYvjw4VBVVeVgivHixQsIBAIsX74cAoEAampqUFZW5mCKORnz7Nkz7N69G5cvX4anpydatGghEbPPl7WMjAy8ffsW5ubm6NixI1auXMm16isSEhLw+PFjjB49Gps2bYKhoaFEzFJcHmJjY+Hl5YU1a9YgMDAQbdq0QcOGDTmYLxQUFCAmJgbbtm3D7du3cfr0aaiqqpbpYyslRVpaGuLiCAMH/gYrq6P47TfORJzJcARMUklLS6N9+2bYt28+Bg8G1NX5LPHX1KlTB+rq6oiPj0enTp3Qvn17DuUrGjVqhLy8PMTHx6NZs2bcWS5Bq1atIC8vj7S0NLRr1447y19Ro0YNqKurIzs7u/DfrHgKCgpo37493r17hz59+nCtKoGKigrS09ORmJiI5s2bc2e5BK1bt0bt2rWRmZkJNTU11KtXj0MprtMgIwN1dXVkZmZCVlaWa1UJFBUVoaAgQkHBayQlcR7cYWasyuOOMmOMMcYYY+z78RgmxhhjjDHGGGOMO8yMMcYYY4wxxhh3mBljjDHGGGOMMe4wM8YYY4wxxhhj3GFmjDHGGGOMMca4w8wYY4wxxhhjjHGHmTHGGGOMMcYY4w4zY4wxxhhjjDHGHWbGGGOMMcYYY4w7zIwxxhhjjDHGGHeYGWOMMcYYY4wx7jAzxhhjjDHGGGPcYWaMMcYYY4wxxrjDzBj7Hrm5uVi+fDmaNWsGOTk5dO/eHf7+/j/cXmxsLKSkpIr9OXXqlNjmlJGRgbVr18LAwAANGzaElJQUHB0dS93u17LaunWr2GZ18+ZNWFpaQlNTE3Xq1IGqqirMzMwQFRXFWX0iMjISY8aMQdu2bSEvLw9lZWX07dsX3t7enNN/sLa2hpSUFDp27Mi16gvBwcFf/VzXr1/nrIpx+/ZtmJqaomHDhpCXl0fHjh2xd+9ezupfU6dO/epnkpKSwps3bzinT0RHR2PcuHFo0aIF5OXloaGhgQ0bNiArK4u3KVapZDgCxn78i9Dd3R2LFi1C+/bt4ejoCCMjIwQFBUFXV/eH2x0/fjyMjIw+W9azZ0+xzSkpKQkbNmyAqqoqOnfujODg4DJrW19fH5MnT/5sWZcuXcQ2q23btuHvv//GmDFjoKWlhXfv3sHW1hZdu3bF9evXS9XJkaSsXrx4gfT0dEyZMgXNmjVDVlYWzp49C1NTU9jb22PWrFmcUzFev36NzZs3o06dOmXSnqTVqo8WLFiAbt26fbZMTU2Ns/qCn58fTExM0KVLF6xevRoKCgp49uwZXr9+zVn9a/bs2dDT0/tsGRFhzpw5aN26NZo3b845/evVq1fQ0dFBvXr1YGlpiYYNGyI0NBRr165FeHg4zp8/z1kx7jAzJk5u3LiBU6dOYfv27bCysgIATJ48GR07dsSyZctw7dq1H267a9eumDhxosRk1bRpU8TFxaFJkya4detWkQPR0lBXV5eorBYvXgxXV1fUrFmzcNnYsWPRqVMnbN26FSdOnOCsABgZGRU5+LG0tIS2tjZ27dpVqg6zpG1Tn7KyskKPHj0gFAqRlJRU6vYkrVZ91KdPH4wePbpM25S0rNLS0jB58mQYGxvD3d0d0tLSnFUxevbsWaRjFhISgqysLJibm3NOn3B2dkZKSgpCQkKgqakJAJg1axZEIhGcnJzw4cMHNGjQgLNilYKHZDP2A9zd3VGjRo3PDsxr166NGTNmIDQ0FK9evSpV+5mZmcjLy5OIrGrVqoUmTZqUW/vZ2dnIycmRiKx69er1WWcZANq3bw9NTU08evSIsypBjRo10LJlS6SkpHBOxbhy5Qrc3d2xZ8+eMm1XkmrVp9LT01FQUMBZfYWrqyvi4+NhbW0NaWlpZGZmQiQScVbfmJ2UlBQmTJjAOX0iLS0NANC4cePPljdt2hTS0tJFvht5m2LcYWasirtz5w7U1dWhqKj42XIdHR0AwN27d3+47fXr10NBQQG1a9dGt27d4Ofnx4F/haOjI+rUqQM5OTn8/PPPcHV1lbjPSESIj4+HsrIyZ1XMAVBSUhKePXuG3bt34+LFixg0aBDn9AWhUIj58+dj5syZ6NSpU5m1K6m1atq0aVBUVETt2rUxYMAA3Lp1i7P6QkBAABQVFfHmzRt06NABCgoKUFRUxNy5c0t9skmSvwPz8/Nx5swZ9OrVC61bt+acPtG/f38AwIwZM3D37l28evUKp0+fhp2dHRYsWFCqW0n4uIqVFg/JZuwHxMXFoWnTpkWWf1z29u3b725TWloagwcPxogRI9C8eXPExMRg165dMDQ0hJeXF4yNjTn4T/Tq1QtmZmZo06YN3r59i/3798Pc3BypqamYO3euxHxOFxcXvHnzBhs2bOCsvrBkyRLY29sX7j8jR46Era0t5/SFgwcP4sWLFwgICCiT9iS1VtWsWROjRo2CkZERlJWV8fDhQ+zYsQN9+vTBtWvXfuhedknNKjo6GgUFBRg2bBhmzJiBLVu2IDg4GPv27UNKSgpOnjzJWRXD19cXycnJpRqOLak5GRgYYOPGjdi8eTO8vLwKl//xxx/YtGkTZ8UqFzEm4UQiIj29sm2zbdu2ZGhoWGT5s2fPCADt3r27TNaTnJxMjRs3pg4dOlRIVmpqajRnzpxya//mzZsEgI4dO1bmbefm5lLHjh2pfv36lJWVVa45vX79mgCQm5tbua7n0aNHpKioSD179qSCggKxzMrJyYmkpKQoISGhXPLx9/en48ePk7GxMY0YMYLevXsnljkREU2ZMoU6duxYpm0mJSVRw4YNaceOHYXL+vXrR5qammW6noqsVSKRiFq0aEG//fZbua8rOjqa5OTkaMiQIWKZ1dOnTwkA+fj4lPl3IIAi3xezZ88mABQVFSV2Wdnb25OMjAylpKSU2zrGjx9PsrKylJSUJLb7HxHR2LFjqVu3bmXerrOzMw0ZMoQcHBzo7NmzNH36dJKSkqJ9+/aJZVZCoZBUVPRp5Uo+Fhd3PCSbsR8gJyeH3NzcIss/DkWTk5Mrk/U0bNgQ06ZNw5MnT0o986ikq1mzJiwtLZGSkoLw8HCx/zzv3r2DsbEx6tWrV3jPPGf1OQ0NDejp6WHy5Mnw8fFBRkYGTExMQESc079WrVqFhg0bYv78+eW6HkmtVWpqahg2bBiCgoIgFAo5q0++A4F/Zh/+1Mf7ckNDQzmrL2RkZOD8+fMYMmQIlJSUeP/7wqlTpzBr1iwcPnwYFhYWGDlyJI4cOYIpU6Zg+fLlSE5O5qxYpeEOM2M/4OPMz1/6uKxZs2Zltq6WLVsCAN6/f8/BV5OsUlNTYWhoiJSUFAgEgjLdniR5uxo9ejRu3rxZ6udWS0pO0dHRcHBwwIIFC/D27VvExsYiNjYWOTk5yM/PR2xsbJl+LkmtVS1btkReXh4yMzM5q399rElfTtCkoqICAPjw4QNn9QVPT88ymR1bUnM6cOAAunTpghYtWny23NTUFFlZWbhz5w5nxbjDzJg4+d///oeoqKjCWR0/CgsLK3y9rMTExAAAGjVqxMFXg6xycnJgYmKCqKgo+Pj44Oeff+asvlF2dnbhCQfOCXjz5g1EIhEWLFiANm3aFP6EhYUhKioKbdq0KdW98dWlVsXExKB27dpQUFDgrP6lra1duI196uP8HWX5uSRlu3JxcYGCggJMTU25phcjPj6+2FEc+fn5AFCms9bzcRXjDjNjFWD06NEQCoVwcHAoXJabm4tjx46he/fuhWcvv0diYmKxB7xHjx6FlpZWsZOMVVfFZZWeno49e/ZAWVm58GBO3AiFQowdOxahoaFwc3Mr8vxOzuofCQkJxR5UOTk5Fc5uzTkBHTt2hIeHR5EfTU1NqKqqwsPDAzNmzOBaVcLnioiIgJeXFwYPHvxDzxqW1KzMzMwAAEeOHPls+eHDhyEjI1M44zFn9f+fLSAgACNGjIC8vHyZb6eSkJO6ujru3LlTZITQyZMnIS0tDS0tLc6KVRqeJZuxH9C9e3eMGTMGK1asQEJCAtTU1HD8+HHExsYWOYBYt24d1q9fj6CgoBIPIpYtW4Znz55h0KBBaNasGWJjY2Fvb4/MzEzY2NiIdV62trZISUkpvPrg7e1deO/Q/PnzUa9ePQD/PNJn2rRpOHbsGKZOnfrV9vbv3w9PT0+YmJhAVVUVcXFxOHr0KF6+fAlnZ+dSP6+xsixZsgReXl4wMTHB+/fvceLEic9enzhxYuG/q3NWs2fPRlpaGvr27YvmzZvj3bt3cHFxwePHj7Fz587PrgRW55yUlZUxfPjwIss/Pov5y9eqe60aO3Ys5OTk0KtXL6ioqODhw4dwcHCAvLw8tm7dyll9okuXLpg+fTqOHj2KgoIC9OvXD8HBwXBzc8OKFSs+u42EvwOB06dPo6CgoMTh2NU9p6VLl+LixYvo06cPLC0toaSkBB8fH1y8eBEzZ87kbYpVLp73jPEs2T8mOzubrKysqEmTJlSrVi3q1q0bCQSCIr+3ZMkSkpKSokePHpXYnqurK/Xt25caNWpEMjIypKysTCNGjKDw8PAKy6q8Zslu1aoVASj25/nz54W/t2/fPgJQbI6f8vPzI319fWrSpAnJyspS/fr1afDgwRQYGFghOZXXLNn9+vX7ak5flmtxyao8Zsk+efIk6enpUePGjUlGRoYaNGhAenp6dP78+SK/Ky45ldcs2V/bzoqbJVtcalV5zZJtY2NDOjo61LBhQ5KRkaGmTZvSxIkTKTo6WmyzKq9ZsomI8vLyaN26ddSqVSuSlZUlNTW1Yp8QIS5Zlecs2T169CAVFZUSn3YgTscK5TVLdlhYGBkaGhbWYXV1dbK2tqb8/HyxzIpnyZYcUlRW04kyVmVPCgGDBwP+/pWzfh0dHbRq1Qpubm5VPqv27dtDT08PdnZ2lbJ+MzMzxMbG4saNG1U6pzdv3qBFixZwc3PD6NGjOasSODs7Y8qUKYiPj6+U+8XEJScAmDp1KsLDw3H//n2uVSWf6IeqqirGjBmDXbt2cVYlePbsGdTU1ODj41Npz5wVl6wcHBzw66+/IikpqXDUE+dUvHHjxiEmJqbS6qq4ZCUSidC0qQFmzvSDtTUfj4szHpLNWDlKS0tDREQEjh8/zmF8w0FwcHBwkWHIjLPinLhWcVacFefEOCvGHWbGJJCiomKxz2tmRUlJSRU7mRPjrDgnrlWcFWfFOTHOilUWniWbMcYYY4wxxhjjDjNjjDHGGGOMMcYdZsYYY4wxxhhjjDvMjDHGGGOMMcYYd5gZY4wxxhhjjDHuMDPGGGOMMcYYY9xhZowxxhhjjDHGuMPMGGOMMcYYY4xxh5kxxhhjjDHGGOMOM2OMMcYYY4wxxh1mxhhjjDHGGGOMO8yMiSMZGSAnBxAKOYviCIVC5OTkQFZWtvDfRMTBFCM/Px95eXmQlZUt/DcrXm5uLkQiEWrUqIHc3FwUFBRwKMUgIuTk5EBaWrrw3yKRiIP5Sq3Kzc3lWvWNtSo/Px8yMjJcq76xVklLS3Ot4lpVxrVKBgUFBcjJAbhUcYeZsSpLSgo4cAAwMwMcHYHbtzmTT92+fRuOjo4wMzPD0aNH8fLlS2hqasLHxwexsbEc0L9EIhGCgoJgbW2N9evXw83NDc7OztDV1UVAQADS0tI4pH+lpKQgICAA8+bNQ0JCAtasWYOJEyfCwsICwcHB3MH5RExMDC5cuICxY8di9OjR0NTURPfu3bFv3z5ERERwQJ+4desWDh8+DDMzM7i4uCAqKgqampq4ePEiXr58yQF9cqAeGBiI9evXY+fOnXB1dYWDgwMGDBiAgID/Y+++o6I63j6Af0FQQWMSsWvUxBIUwQaCIFYEAcEGii0aNYpCrCg2YsXyszfACoqACBakSVFQQKoigiAgSFd6b7vsPu8fib7R2KXsLvM5h3OSXbi7+/XeZ+/cmTvjj4qKChbSPwoLC+Hv74+lS5eitrYWGzZsgIGBAUxMTHD//n1Wq/4lOTkZt27dwqxZs/D777+jZ8+eUFRUxOnTpxEbG8sC+pfw8HDY2NjAyMgIV6/+hSdPnDBoUDR8ffnIymL5CGVbglg1YJqR69eBZ8+AggJg40agU6fmm0VeXh727duHDh06QFZWFtOnT3/z3M2bN+Hn54cnT57g6tWr6Nq1a7Peb4KDg3Hjxg1069YNY8aMgaKi4ptGtLW1Ndzc3PDzzz/D2toa4uLN+zqkra0tEhMT0alTJ8ybNw+d/jnIcnNz4eDggNOnT2Pjxo34/fffm/0FmG3btqFFixbo1KkTjI2N3+w7kZGR8Pf3h62tLezs7KCqqtqss8rOzsahQ4fQsWNHyMnJQV9f/81z165dg4+PD5KTk+Hi4oIOHTo066wCAgLg4eGBbt26YcKECRgyZAgAoK6uDtbW1rh+/ToUFBRw9OhRiImJNeuszpw5g7S0NHTo0AELFy5E+/bt3+xvzs7OsLa2xvbt2zF37txmfwFm69ataN26Nbp06YKlS5e+2XcePHiAu3fvwsHBAZcuXYKSklKzzio9PR3Hjh1Dp06doKCgAB0dnTfPXblyAz4+PyMrqxoTJozExo3snFyoEMM0MxUVRCtXWtG0aRmUkUFUVdW8Pn9VVRVlZGTQtGnTaOXKlVRRUfHe36usrKT4+HiaO3curVq1ijIzM4nH4zWrrIqKiujRo0c0fPhwsrOz++Dnz8vLo4iICFJTUyNbW1t69epVszuuXr58SZcvX6ZBgwZRXFzcB3/vxYsX5OjoSMOHD6fo6GgqLi5uVjnV1dVRRkYGbd68mSZOnEh5eXkf/L2EhATatm0baWpqUkZGBlVXVzerrCorKykjI4N0dXXJzMyMKisr3/t75eXlFB8fT4aGhrR+/fpmWasKCwspPDychg0bRleuXPng53/16hU9ePCARo4cSY6OjpSbm9vsalVOTg5duHCB5OXlKSkp6YO/l5KSQhcvXiRFRUWKi4ujkpKSZpUTl8uljIwMMjMzI11dXSooKPhgrYqPj6ctW7bQ5MmTKSMjg2pqaprZeWUFpaWlkaamJm3ZsuWDtbqsrIzi44to+PC1tHVrMWVmEvH57LxcGLAeZqa5XihCURGwaZMY+vYFZGWBf3VaiCx3d3ckJCTg+fPn2Lt3L9q3b//JXoaSkhJs2LABAQEBMDExwejRozFs2DCRzonL5cLe3h6pqang8/mwtLQEgI9mRUSIiIjAuXPncP/+fZiZmUFPTw9dunQR+d4/Ly8vxMbGQlFREfPnz/+srC5dugQPDw+UlZVh9uzZmD9/Plq0aCHSWUVERCAqKgqPHz/GkiVLoKSk9Mnjj4iwadMm3L9/H8rKypg4ceJbvRai6saNG0hMTERqaioOHjyI77777pNZFRQUYNOmTbh79y7WrFkDdXV1DB48WKRz4nA4sLe3R0pKCiQkJLBjx47POv6Cg4Nx8eJFPHjwAGvWrMG0adNEvnc+PT0dvr6+iImJwahRozBr1qzPyurcuXPw8vJCXV0dDA0NMW/ePJEfSRQaGoqHDx/iyZMnWLFiBQYPHvxZtcrMzAxBQUEYO3YsNDQ0oKmpKfK1ytXVFUlJScjIyMChQ4cgLS39yaxevnyJv/4Kxp077WBmpoExY1pATo6dmwsy1mBmmr3QUODJE6BDB2DKFKBFi7/vexaliwOpqakwNzfHxIkToaCggJEjR37xdsLDw3Hv3j1cunQJ165dQ9++fUWugUNEuHnzJq5evYrp06dj2LBh6NOnzxdvw8vLC05OTigqKsL169fRsmVLkTvBen0hIS8vD+PGjcPEiRPx3XfffdE2ysrK4O/vD0tLS0ydOhUbN26EhISEyA0Vra2txeLFizFgwAAMGTIEOjo6X/wZnz9/jqioKGzcuBHHjh2Drq4uJCQkRO74S0xMxNatWzFp0iQoKChgxIgRX7yd18NEXVxccOPGDfTq1Uska9XVq1dx69YtTJs2DYqKiujdu/cXH8Oenp64fPkyOBwOnJ2dISEhIZK1atu2baioqIC6ujq0tLTQpk2bL9pGcXExAgICsGPHDsydOxdr1qwRyVpVVVWFxYsXY/DgwRgyZAi0tLS++DMmJiYiKioKW7ZsgZWVFTQ1NUWyVj158gS7d++Gjo4OFBQUMHz48C/eTlDQA/j6toKHxyu4u+uga1cxiPh1Y9ZgZhhhVlcHnD8P+PsDq1cD/fsDHTsK/+cqKChAYmIiDh8+jNGjR8PExOSbvrjq6upw+vRpXL9+HW3btsWGDRugpKSEli1bCn1Wz58/R3x8PI4dO4Zt27ZBXV39m06Gampq8Oeff+LJkyfQ1NTEtGnTRKZn/uHDhwgODoaHhweuXLkCGRmZb95PjYyMkJWVBUtLSwwdOhS//PKLSDSUo6Ki4OLigurqahw7dgytW7f+ppO0wMBA7N69G/n5+bC2tsaAAQPe3HspzHJzc5GUlISDBw9CS0sLS5cu/eZadeLECbi7u0NGRgZr1qzBiBEjROLEPSkpCbGxsbCysoKlpSWUlZW/uVYtW7YM8fHxmDp1KnR1dd/c+yzsjZqoqCjcu3cPfn5+uHr1Kr7//vtv2uarV68wZ84cZGVl4dChQ5CXl//iCxWCqLq6Go8ePYKjoyPExcVx8OBBtGrV6puy9/X1xYEDB1BUVIQTJ05ATk4OP/zwg9Bn9fLlSyQnJ+N///sfpk2bhoULF37TBTkul4tDh6xw+7Y+evQgmJj8ghEjwBrOrMHMMIKrogI4fvzvJai6dAFWrBDez2JtbY2XL1+iVatWWLVqFdq2bVtv266qqsLRo0fh6uqKmTNnYqMQz15RU1MDS0tLSEhIoHPnzjA2Nq7X7T979gzXrl3DhQsXcPLkSWhrawttVs+ePYO9vT2kpKSgpKQELS2tet3+7du34efnh/v378PBwQH9+/cX2qy8vLzw4MEDSElJwcDAAL/++mu9H98+Pj5o3bo1Ll68+E0nt03t+PHjKCwsROvWrbF69WpISUnV27bLy8tx/PhxODs7Y9GiRVi9erXQ5lRZWYm9e/dCUlISPXr0wOLFi+t1+3Fxcbh58yZsbW1hY2ODiRMnCm1WcXFxcHJygpSUFEaOHIkJEybU6/Y9PDzg6+uLyMhIODg4CPUFPjc3N0RFRaF169aYPXt2vX4WIsLJkyfh7e2Njh074ty5c5CUlBTarA4fPozS0lJISUlh7dq19dpZUFJSglOnwuDoWARdXQPo6bWEujo7LxcY7DZuhnnfZB88kpffRFZWRHl5wjMpA5/Pp7y8PLKysiJ5eXlKSUlp0NdLS0sjT09PUlNTozt37gjVBE4cDodyc3PJ2NiYpk2bRvn5+Q367xIXF0dHjx4ldXV1yszM/OAERoI6oUl6ejqNGjWKduzY0aATutTU1NCjR4/I1NSUFi1aRLm5ucTlcoUmq+LiYrpz5w7JycnR7du3id+AxSM/P58iIyNJS0uLjh8/Tvn5+Q36eg1Rq44dO0ZDhgyhtLS0Bn291NRUcnNzIzU1NQoKChKqCZxe16pFixbRrFmzqLCwsEH/XZ48eUIHDx6ksWPHUk5ODlUJ0cyYFRUVlJqaSioqKrRv3z7icDgN9lpVVVX06NEjWrZsGRkbG1Nubi7V1dUJTVZFRUXk5eVFAwYMoICAgAZ9rdzcXAoPDycNDQ2ysbERulqVm5tLBw8eJEVFRcrIyGjQ13v+PJVsbR9S374XKCKCS6Wl7JycTfrFMIJ7IQlEBDc3cXh4AGPGAGpqwBfeztqoUlJSEBISgnv37mHy5MmYMmUKxMTEGvweKyKCu7s7nJyckJKSgsuXLwt8z2BISAhiYmIQFhaGLVu2oF+/fo1y3x4RYe/evbh79y66deuGU6dOffF9v419HFy/fh0JCQnIyMjAyZMnISkp2Sj37dXW1sLExAShoaFYvnw5TExMBPp+wbKyMri5uSE6OhpdunSBmZlZox1/z549w969exEcHAx7e3uoqS2acxQAACAASURBVKkJ9PGXlJSEsLAwBAYGYvr06W/u6W6MrK5duwYXFxdkZWXB3t5e4HsG7927h9jYWERERGDHjh3o3bt3oxwHRISdO3ciICAA/fr1w7FjxyAtLS3QtcrFxQUJCQl49eoVTpw4gRYtWjRKVtXV1VixYgVCQ0Oxfv36eu/5r2/FxcXw8PBAVFQUfv75Z6xcubLRjr8nT57g0KFDCAkJgaOjI5SVlQU6q/j4eERERODevXswMjLCxIkTG+1c4cqVK7h+XREFBQVYvHgkZs4ERODuN6HFGswM88kTd2DDhnBERdVi1KhR2LtXHII0Jwqfz8fmzZsRFBQERUVF/O9//2uS4ZlcLheurq6IjY1FXV0d9u3b1yhfwl+itLQUpqamCA0Nxe7du2FkZNQk7yMnJwcBAQG4f/8+VFVVMX/+fIHKiogQHh6OkydPIjIyEleuXMHQoUOb5L08fPgQjx8/RmBgIFauXInhw4cL1KRERARbW1u4ubmBw+Hg/Pnz6NatW5O8F09PTzx9+hRxcXE4efLkZ80s3di1av369QgJCcHo0aNhaWnZJMMza2trce3aNcTExEBCQgK7du0SuFpVWFiIVatW4cGDBzh8+DCmTp3aJO8jIyMDQUFBCAgIwPjx42FkZCRwtSo4OBg2NjaIjo7GlStXoKCg0CTvJSIiAjExMW9WSZCXlxe4WnX69Gl4enpCXFwcZ8+eRadOnZrkvdy6dQtPnz5FYmIirKysICUlJXC1avXq1QgNDcWkSZOwffv2Jpk4sKqqCjduPMHJkw/Rs+dCzJoljWnTxNDMl1BvsgOIYZjPGCaam1tFWlobydKSKDqaqKmX+eTxeBQdHU2WlpakpaVFubm5ArH2YVlZGcXExNCQIUPozJkzH13nsjGH6UVFRdGCBQto3bp1lJeXJxDrtBYWFpKDgwPJyspScHCwQKzfnJOTQ8HBwTRu3Diyt7dv0OGfn6uuro7y8vJo06ZNNH78eIqKihKIIe2JiYlkb29PqqqqFBsbS+Xl5U3+nqqrq+nVq1ekpaVFq1evpsePHzf50Ecej0ePHj2i7du3k66uLuXl5QlMrYqKiiIFBQW6ePEiPX/+XGDe05w5c2jTpk0CUav4fD4VFBSQnZ0dDRgwgEJDQwVi/easrCwKDAyksWPHkrOzMxUVFQlMrVq7di1paWlRVFSUQKyfnpCQQBcuXCBVVVVKTEykioqKJn9PVVVVlJOTQ+PHjydzc3OKiYlp8lpVV1dHDx8+pK1bt9K0adMoLy+Pamtrmzyr0tJSuncvjn755QBduVJJqansvJwNyWYYARcUBPj6/j00RlsbUFRsml43Ly8vcDgcaGpqQl0AZ4YICQmBu7s73NzcYGdn12RDr1xdXREfHw8ul4vly5c3We/fx9jb28PX1xd5eXm4fPkyOjbBFO1EhMOHD6O8vBySkpLYtGmTwC0vw+PxsHfvXty+fRuqqqrYv39/k/RK5OXl4fTp0+Byufj1118xd+5cgdunsrKycPr0aTg5OWHfvn0wMDBokvcRFhYGPz8/cDgc6OjofNWSdg3t3r178PT0hJeXFy5dutRks9lfuXIFiYmJqKurw59//tlkvX8fY2trC19fX5SXl8Pe3h4//vhjk9SBQ4cOoaqqClJSUtiwYYPA3a7B5XKxd+9eeHl5QVNTEzt27GiS95iTk4Pz58+Dy+Vi0KBBmDlzpsDtUy9evMCFCxfg6OiII0eOQF9fv0neR3BwMAICAsDhcKCvrw8lJSWBy+rOnTvw8uqFO3fiYGAwFWvWAF+4QhrDepgZpjGvQhIdPRpKQ4d6kIFBOTVWZ1dlZSUZGhrS0KFD6ciRIwI/wUhdXR2FhYXRtm3baP78+VRUVNSgk7D8W2pqKo0ZM4b69etHDx48EPh9qqSkhB48eEDz58+n/fv3U1FRUaP0LPF4PHJ1daXx48eTiooKpaenC3xW6enp5OfnR9ra2uTh4UGljTQrSm1tLVlYWJC6ujr98ccfjfa63+LJkyd09uxZ0tbWptTU1EabwKmyspKmTp1KgwcPJmtra4EY0fExXC6XQkNDafPmzbRo0aJGrVWJiYlvatXDhw8Ffp8qKiqiBw8e0OzZs+nw4cNUXFzcKD2DPB6PHB0dafz48TR69GjKysoS+KxevHhB3t7eNGnSJPL19aWysrJGed2amhoyNzcnNTU1MjExEYjRL5/y+PFjsrKyIh0dHcrMzGy0WlVeXk66urokLy9Ptra2Al+rOBwOhYYm0/TpB2js2AI6erSKhGheTNbDzDDNDZ/PB58PrFy5F+3bb8GwYYC+PtAQy3zyeDzcunULjx49QkFBAU6cOAFxcXGB6wH82PvPy8uDvr4+NDU1sX379ga7dzE/Px/37t2Dr68vFBQUYGxs3GiTv9SHuro6BAYGYunSpTh+/DgmT57cYK8VFxeHx48fw93dHStWrMCoUaOa5D6tr+0R5/F4OHXqFM6ePQtnZ2fIyck12OvdvXsXMTExCA0NxalTpyAjIyM0xx+fzwePx8Nvv/0GDocDGxubBhvFwOVycevWLTx8+BAVFRU4fPiwUB1/PB4P2dnZmDZtGqZMmYItW7Y02DHx8uVLhISEwNvbG8rKyli0aJHQ1So/Pz+sWLECZ86cadBlqGJiYhATEwNPT0+sWrUKysrKQlerDh8+DEdHR1y5cgWysrIN9np+fn6IiYlBZGQkbGxs8P333wtVraqrq4ORkRFatWqFU6dONdg687W1tXB3d0dkZCR4PB727dsndLXqxYsMTJ9+CbNmmWD8+A4QwAE8IoM1mBmmHjx9CsydexJDhizF3LmS0NCon0kZiAj+/v5wcHBAdHQ0HBwcMGjQIKHNKSEhASEhIYiMjMTUqVMxadKkevlyel3GTpw4AR8fH0hLS+PMmTNNMlywvty5cwexsbGIi4uDhYUFevbsWW9ZvZ7QJDg4GLNmzYK5ubnQnCS87/M4Ojri+fPnKCwsxJEjRyAuLl5vWaWlpWH37t24e/cuzp49Cw0NDaHdp4qKinDjxg3ExcWhT58+MDEx+ftEoJ6y8vLygrOzM+Lj43H58uUGbRQ0tLi4OISGhiIiIgJGRkYYP358vdaqQ4cOwc/PDzIyMrCxsUG7du2ENitfX1/ExcUhPj4eO3fuRNeuXestKy6Xi9WrVyMoKOjNOtrCWqv4fD4uX76MlJQUlJeX4+DBg/U2gRoRITk5Gfv378fdu3dhZ2eHMWPGCO0+lZeXB3d3dzx58gQDBw7E0qVL66VWvT7+3Nzc4OrqiufPn8Pe3h79+vUT2qweP36M4OAfcOTIbYwbtwz/+x/Qvj2bFawhTjYYhqkH+fkFdOtWJI0ceY0CAoiys79te9nZ2aSsrEwjR44kNze3Bl0nuDHx+XzKzs6mI0eOkKKiYr0Mq7t//z4NGjSIRowYQcnJyY027K0xhgBnZWXRwoULaf78+d+8zjWHw6EDBw7QiBEjyNDQkLKysgRiQpP6UFpaSomJiaSiokKHDh365uG0xcXFNHfuXBo1ahTt2bOHcnJyhGbd0E/Jy8sjd3d3kpOTo+Dg4G/eXmZmJg0fPpxUVFTo9u3bVFBQIBI58Xg8ys7Opn379pGKigrl5OR8c+3z8/MjeXl5UlFRoRcvXgjFUNnPHQKclZVFs2fPpiVLlnzz7Qq1tbVkaWlJysrKNG/ePMrKymq0IfKNUauePn1KSkpKdPLkyW9eZ76wsJAMDQ1p1KhRdOjQIZGqVbm5uXTt2jWSk5OjyMjIb95eWloaDRkyhJSVlSkgIEAgJrWsr1qVlVVI69YdppEjIykujkgA5nVjQ7IZhvm4LVvKcPduOAwNJ8LEBPiSVZ44HA5OnjwJFxcXjB8/HpaWliKb08GDB1FaWooffvgBJiYmaN269Rf9/YsXL3Dt2jVYW1vjwIEDmD59ukjmVFFRgR07dqBdu3bo1asXfvvtty/eRmBgIO7cuQM3Nzdcvny5yZZeaWgxMTGwt7dHx44doaKi8lW9LBcvXoS3tzeqqqrg5OSENiI6q8q1a9cQGRmJDh06wMDAAL179/6iv6+uroaVlRWuXLkCfX19WFhYiGyt2rdvH6qqqvDjjz/CxMQELb9wQdSkpCTcunULVlZWOHbsGPT09EQyp5KSEuzevRs//PADfvnlF8yZM+eLt+Hv7487d+7Ax8cHDg4OGDBggEhmFRUVhStXrqBTp05QU1P7qvXTz58/D29vbxARHBwcvvg7VFhcuXIFjx8/RocOHWBkZIQePXp88XeojY0NLl++jDlz5mDDhg2i2gkKS8uz8PcfClnZzpg4sSdmzGDn5PWBNZgZpgHU1NTgwYM07NlzEy1amGDOnFaYP7/lR9dv5vP5sLe3h6OjI3g8HjZv3gxVVVWR/QJ8LScnB/Hx8Th9+jT09PQwY8YMSEtLf3ToFZfLhbm5OcLCwqCsrAxDQ0OMHDlSaIfqfa6nT58iNjYWDg4O2LlzJwYMGPDJ/aO8vBxz5szB8+fPsXHjRigrKwv1UNnPPWkICQnBgwcPEBkZiXPnzkFaWvqj980TER4+fIitW7fixYsXsLKywqBBg9C5c2eRzqqqqgphYWG4fv06fvjhB2zatAlSUlIfveeRx+PhwoULcHFxgYSEBMzMzKCmptYk6783pqysLCQkJMDa2hozZ86Evr7+J9eP5XA4WLt2LaKiojBmzBhMmzYNKioqIv8dGBsbi5iYGDg7O2Pfvn3o27fvJ/eP4uJizJ07FykpKdi2bRsUFRXRv39/ka9VwcHBCAoKQmxsLM6cOYPWrVt/slY9ePAAu3btQmZmJk6cOAF5efkmWV2hMVVUVCAiIgJXr15F165dYWZm9lm1ysbGBjdv3kSbNm2watUqjBo1qknWf29MGRkZiIuTxMqVtujTZx2srSXxyy/iYL7tYGUYpoFwOBx69Ogp6etfI3t7oseP3/97jx8/Jnt7e9LX16dHjx6JzNCzLxmqWFNTQ/b29tSnT58PzhTL5/Ppzp07tG/fPpo+fTqVlZV983A2YRx6VV1dTWvXrqWxY8d+cFbryspK8vDwoJUrV5K5uTlVV1cL/Oyf9Y3L5VJJSQmNGTOGTE1NP7h2c3p6Ot26dYsMDQ3JwcGBampqRGZI45cMgQ0PD6dff/2V7O3tP/j5Hz58SLa2tqSnp0exsbHNtladP3+e+vXrR48/UNRfD7/evXs3zZw5kyorKwV+VYOGqlUrVqwgTU3ND95+U1ZWRh4eHrRixQqysLCg6urqZnf8cblcKigoIFVVVVq3bt0H125OTU0lNzc3mjFjBrm4uDTbWhUUFET9+vUjV1fXD/5eZGQknTt3jvT09CgpKamZ1ioOnTx5lvr3v0keHkQCsHw6G5LNMMzHnTlTiiNHbkFDYx727hVDmzaEqqoqbNy4Ef7+/lizZs2biS2as6tXr+L58+fIycnBnj178N133wEAnjx5gjNnzsDHxwd2dnYYNWpUs86ptrYW58+fR3Z2Nlq3bo2tW7dCTEwMRAQXFxe4u7sjIyMDFy9e/OKhtqImLS0Nnp6eSE5OhpqaGgwMDN5ktWvXLty9excDBgzA0aNHRb6X9FOCg4MRFRWF5ORkLFu2DPLy8gCAsrIybNmyBb6+vtiyZQsWLFjQ7GuVk5MTUlNT8erVK+zfvx9SUlIA/h5qa2dnBz8/P1y6dKlZ9Ch/ahSDra0tsrOz0a5duzeTDNI/E/Z5eHggPz8fdnZ2XzzUVtQkJyfD19cXSUlJGDduHKZMmfImq23btiEgIADDhg3DoUOHINEQS3IIkcDAQDx69AgpKSkwNTV9M3KqqKgIf/31F3x8fLB7924YGRk1+1plb+8Gd/cfUFUlg4kT5bByZf1MTNucsAYzwzSSuro6ZGQUY8+ec0hIWIyXL53QtasbBgz4BZs3b0bPnj2b/RfgaxUVFcjNzcX69euhpqaG+/fvIz8/H3PmzMGUKVPw008/sZD+kZ+fj6SkJGzfvh3GxsbYvXs3xMTEcOLECfz666/o0KEDC+kfGRkZ8PX1xfXr1zF37lwcPXoUUlJSsLOzQ+fOnUX2XuWvq1UZOHXqFKqrq/H999/j/v37GDx4MNavX4+ePXsKzZI+Da28vBy5ublYt24dJkyYAG9vb5SUlGDRokXQ0dFB9+7dWUj/yMvLQ3x8PCwtLbFixQrs2LEDYmJiOHPmDH755RfIyMiwkPD3kOuMjAx4eXnB09MTBgYGsLKywnfffYezZ8+iS5cukJaWZkHh71sesrKycPToUYiJiUFCQgLh4eFQUlLCypUr0atXL6FZUquhlZaW4tUrYO7cg+DzV+Ho0XZQV2/JGs6swcwwgv1laGj4FCdPakNJCSJ/7+23ZLV3717s378fBQUFkJCQYFl9JKsJEyZASkoKHh4eLKeP5FRTUwMZGRns3r0ba9asYVl9JKv79+9j7NixiImJgby8PMvqI1n99ddfsLGxQW5ubr0tFySqWamqqqJ79+5wcXFhOX0kp4qKCsjIyODYsWMwNjZmWX0kKx8fH2hrayM5ORl9+vRhWX0kqw0bNsDJ6XdkZg5kDebPxLqzGKaRiYmJoVevXtDR6fXP/7NMPpbVx/6feX82LCe2T7GsWFasVrF9imXFfCor5vOwcQoMwzAMwzAMwzAMwxrMDMMwDMMwDMMwDMMazAzDMAzDMAzDMAzDGswMwzAMwzAMwzAMwxrMDMMwDMMwDMMwDMMazAzDMAzDMAzDMAzDGswMwzAMwzAMwzAMwxrMDMMwDMMwDMMwDMMazAzDMAzDMAzDMAzDGswMwzAMwzAMwzAMwxrMDMMwDMMwDMMwDMMazAzDMAzDMAzDMAzDGswMwzAMwzAMwzAMwxrMDMMwDMMwDMMwDMOwBjPDiKja2lqYm5ujW7dukJKSgrKyMvz8/L55uykpKZgzZw46deoEKSkp9OvXD1u2bBHKjCoqKrBt2zZMmjQJ7du3h5iYGOzs7Opl27m5uVi2bBm6d++O1q1bo3fv3li8eLHQ7k+RkZEwNTWFnJwc2rRpg549e2LmzJlISkpiWb3j6dOnMDQ0xC+//AJpaWl06NABo0ePhru7O8vqEywtLSEmJoZBgwaxWvUvgYGBEBMTe+9PWFgYy+k9Hj16BH19fbRv3x7S0tIYNGgQjh8/zrL6l4ULF35wvxITE0N2djbL6h/JyckwMjJCjx49IC0tDVlZWezcuRNVVVVsn2pGJFgEDCNaFi5cCFdXV6xevRr9+vWDnZ0ddHR0EBAQgFGjRn3VNh8/foyxY8eie/fuWLduHWRkZJCRkYHMzEyhzKigoAA7d+5Ez549MXjwYAQGBtbLdjMzM6GmpgYAMDY2Rvfu3ZGTk4OIiAih3Z/279+PkJAQGBoaQkFBAa9evcLJkycxbNgwhIWFfXUDRxSzSk9PR3l5ORYsWIBu3bqhqqoK165dg76+Pk6fPo2lS5eyrN4jKysLe/bsQZs2bb55W6JWq15buXIllJSU3nqsb9++LKd3+Pr6Qk9PD0OHDoWFhQXatm2LlJQUZGVlsaz+ZdmyZdDQ0HjrMSKCsbExevfuje7du7Os/qm9I0aMwPfffw9TU1O0b98eoaGh2LZtGx4+fAg3NzeWE2swMwwjbCIiInDlyhUcOHAAZmZmAIDffvsNgwYNwoYNG/DgwYMv3iafz8f8+fMhKyuLgIAASElJCX1OXbt2xcuXL9GlSxdERUX950T0W05CJCQkEBkZCRkZGZHYp9auXQtHR0e0bNnyzWOzZs2CvLw89u3bh8uXL7Os/qGjowMdHZ23HjM1NcXw4cNx+PDhr24wi2JW/2ZmZgYVFRXweDwUFBR89XZEsVa9pq6uDgMDg3rZlqjmVFZWht9++w26urpwdXWFuLg4y+oDRo4ciZEjR771WHBwMKqqqjB37lyW1T/s7e1RUlKC4OBgyMnJAQCWLl0KPp+PS5cuobi4GD/++CPbp1iDmWEYYeLq6ooWLVq8dWLeunVrLF68GJs3b0ZmZiZ++umnL9qmr68v4uLi4OXlBSkpKVRVVaFVq1Zo0aKF0ObUqlUrdOnSpV63+ezZM3h7e8PKygoyMjKoqalBixYtICkpKdT7lKqq6n8e69evH+Tk5JCQkMCy+oQWLVrgp59+QmRkJMvqPe7fvw9XV1dER0fjzz///KZtiWKt+rfy8nJISUlBQkKC5fQejo6OyM3NhaWlJcTFxVFZWQkpKalvajiL+j71bn5iYmKYM2cOy+pfF2EAoHPnzm893rVrV4iLi791IZntU6KN3cPMMCIkOjoa/fv3R7t27d56fMSIEQD+Hgb0pfz9/d80MhUVFdGmTRtIS0vDyMgIRUVFLPR3curcuTMmTJgAKSkpSElJQVtbG2lpaSL1WYkIubm56NChA8vqPSorK1FQUICUlBQcOXIE3t7emDBhAsvqHTweD3/++SeWLFkCeXn5ejsGRbFW/f7772jXrh1at26NcePGISoqiuX0ns/Vrl07ZGdn49dff0Xbtm3Rrl07LF++HDU1NSyrj+Byubh69SpUVVXRu3dvltU/xo4dCwBYvHgxHj9+jMzMTDg7O8Pa2horV678qttI2DkVazAzDNPEXr58ia5du/7n8deP5eTkfPE2k5OTAQAzZ86ErKwsXF1dYW5ujmvXrkFPTw9ExIL/V05Lly5Fy5Yt4ezsjH379iE4OBgaGhrfPEGIIHFwcEB2djZmzZrFsnqPdevWoWPHjujbty/MzMwwbdo0nDx5kmX1DhsbG6Snp2PXrl31egyKUq1q2bIlZsyYgWPHjsHNzQ27d+9GbGws1NXVER0dzXJ653PV1dVhypQp0NLSwrVr17Bo0SLY2Njg999/Z1l9hI+PDwoLC796OLaoZjVp0iTs2rULfn5+GDp0KHr27AkjIyP8+eefOHLkCMupGWFDshlGhFRXV6NVq1b/ebx169Zvnv9SFRUVAAAlJaU396vOmDED0tLS2LRpE+7cufOfyUOao9c5denSBZ6enm+GAfbo0QOzZ8+Go6MjlixZIvSf89mzZzAxMcHIkSOxYMECltV7rF69GgYGBsjJycHVq1fB4/HA4XBYVv9SWFiIv/76CxYWFujYsWO9HoOiVKtUVVXfui1CX18fBgYGUFBQwKZNm3D79m2W078+V1VVFYyNjd/Mij19+nRwOBycPn0aO3fuRL9+/VhW7+Ho6AhJSUnMnDmTHX/v6N27N0aPHo0ZM2ZARkYGnp6e2LNnD7p06QJTU1OWUzPBepgZRoRISUmhtrb2P4+/Ho72NZNLvP6b2bNnv/X46/ucvmYiMVHNHvj7qvG/75kzNDSEhISESOT06tUr6Orq4vvvv39zvzzL6r9kZWWhoaGB3377DR4eHqioqPjqngNRzWrr1q1o3779N9+33BxrVd++fTFlyhQEBASAx+OxnD7zc4WGhrKsPtCAc3Nzg5aW1jdNKiiKWV25cgVLly7FuXPn8Mcff2D69Ok4f/48FixYAHNzcxQWFrKcWIOZYRhh83r253e9fqxbt25fvM3Xf/PupBedOnUCABQXF7PgP5JTixYtICMjI/Q5lZaWQltbGyUlJbh9+/ZX7UvNJat3GRgYIDIy8qvWrhbFrJKTk3HmzBmsXLkSOTk5SEtLQ1paGmpqasDlcpGWlvZV9/I1p1r1008/gcPhoLKykuXUgJ+rOexTN2/e/KbZsUU5KysrKwwdOhQ9evR463F9fX1UVVV91W0R7JyKNZgZhmliQ4YMQVJS0puZHV8LDw9/8/yXGj58OAAgOzv7rcdf3w9dX8Mphd2HcuJwOCgoKBDqnGpqaqCnp4ekpCR4eHhg4MCBLKsv8PpWiNLSUpbVP5+Fz+dj5cqV+Pnnn9/8hIeHIykpCT///DN27tzJatVHpKamonXr1mjbti3LqQE/V3PYpxwcHNC2bVvo6+sLXP5NLTc3972jOLhcLgCgrq6O5cQazAzDCBsDAwPweDycOXPmzWO1tbWwtbWFsrLyFy8pBQBTpkxBq1atYGtrCz6f/+bxc+fOAQAmTpzIgsffs2l26tQJDg4Ob83IamdnBx6PJ7Q58Xg8zJo1C6GhoXBxcfnP2p0sq/+Xl5f33hOrS5cuQUpK6qsuNIhiVoMGDcKNGzf+8yMnJ4eePXvixo0bWLx4MatVAPLz8//zWExMDG7dugVNTc2vWjJJVGv66/tvz58//9bj586dg4SExJsZj1lWb+9f/v7+mDZtGqSlpb9pW6KYVf/+/REdHf2f0UFOTk4QFxeHgoICy6m5IIZhmsS2bUTh4fW/XUNDQ5KQkKD169fT6dOnSVVVlSQkJOjevXvvvP42AkABAQGf3ObOnTsJAE2cOJFOnTpFS5cuJTExMZo9e3aD52RpaUnt2rUjDodTr9s9ceIE7dq1i5YvX04AaPr06bRr1y7atWsXlZSUvPk9W1tbAkC2traf3ObFixcJACkpKdHx48fJzMyMJCUlSV1dnerq6ho8q3HjxpGOjk69bnPVqlUEgPT09Mje3v4/P/8mLFlVVVWRlJQUHTp0qF63O3XqVBo/fjxt376dzp49S7t27SJZWVkC8J/XEpasAgMDCQDFxMQ0+P47ZswYkpOTe0+tFI5atXXrVurQoQPxeLx6P6Z3795NZ86codWrV5O0tDR9//33FB8fL5Q5ERGpqKjQjBkz6n27ixYtIgA0c+ZMOnXqFBkaGhIA2rRpk1BmVVZWRpKSkmRlZdUg2z9x4gQBoNu3b3/kXEU4svL29iYAlJycXG/bvHfvHrVo0YI6depEO3fupFOnTpG2tjYBoCVLlgjt8WdmZkbduz8lPp+di38u1mBmGBFrMFdXV5OZmRl16dKFWrVqRUpKSu/9Mly3bh2JiYlRQkLCJ7fJ5/PpxIkT1L9/f5KUlKSffvqJtm7dWu+N2MZsMPfq1YsAXStKmgAAIABJREFUvPfnxYsXX3RC8W9OTk40ePBgatWqFXXu3JlMTU2prKysUfaphmgwjxkz5oM5vXvNVViyaqgGs5OTE2loaFDnzp1JQkKCfvzxR9LQ0CA3N7evOlEVhKwEocEsLLWqIRrMx44doxEjRlD79u1JQkKCunbtSvPmzXtvo0BYcmrIBjOHw6Ht27dTr169SFJSkvr27UtHjhwR2qwausGsoqJCnTp1+uiFN2HJqiEazERE4eHhpK2tTV26dCFJSUnq378/WVpaEpfLFdrjjzWYv5wYEVvwi2GawvbtgI4OMGJE07z+iBEj0KtXL7i4uAh0Tnv27MH+/ftRUFAASUnJJhnml5aWhoiICIHfp8aPHw8pKSl4eno22ZBIYciquroaMjIy2L17N9auXcuy+oh79+5h7NixiImJ+arhh82pVllYWMDGxga5ublfNVS6ueQEACNHjkT37t3h6urK9qmPKC8vh4yMDI4dO4bly5ezrD7i9u3b0NbWRnJyMvr27cty+oj169fDyel3ZGYOhJgYOx//HGwdZoZphsrKyhATE4OLFy+yMD6CiBAYGPhmrUSGZcWyYrWK5cSyYlkxLCfWYGYYRsS1a9fuves1M28TExN770RODMuKZcVqFcuJZcWyYlhOzQObJZthGIZhGIZhGIZhWIOZYRiGYRiGYRiGYViDmWEYhmEYhmEYhmFYg5lhGIZhGIZhGIZhWIOZYRiGYRiGYRiGYViDmWEYhmEYhmEYhmFYg5lhGIZhGIZhGIZhWIOZYRiGYRiGYRiGYViDmWEYhmEYhmEYhmFYg5lhGIZhGIZhGIZhWIOZYRiGYRiGYRiGYUROi+3bt29nMTBM48vKAnJz//7vLl1YHu8iIgQEBCA9PR2xsbEYMGAApKSk8P3337Nw3lFRUYE7d+4gJycHGRkZ6N69O7p37w5JSUkWzjvS0tIQHh6O5ORkiIuL47vvvkOvXr0gJibGwnnHw4cP8fTpU8TFxeGnn35Cq1at0LlzZxbMO/h8Pu7cuYPMzMw3tUpaWhrt2rVj4byjtLQUAQEByMrKQk5ODrp27YoePXpAQkKChfOO1NRUREREIDExES1btkTbtm3Rq1cvFsx7REZGIiEhAXFxcejduzdatmyJTp06sWDeU6v8/PyQlZWFp08lISs7AN99J4a2bVk2rMHMMAJKQQFITAQiIgBXV0BNDWjViuXy+kR93759qK2thbq6OlRVVeHp6QlbW1tkZWVh9OjRLKR/ODk5wcnJCTweD3/88QekpaVhY2ODkJAQ8Hg8DBw4kIWEvy/A7Ny5E48ePUJdXR3Mzc1RUlKCLVu2ICUlBd27d2eNwX8UFRXB3NwceXl56NGjB3777TfEx8dj27ZtSE5Ohrq6Olq2bMmCAhAWFoaDBw+Cy+ViwoQJUFRUxM2bN+Hg4ICXL19CTU2NhfSPS5cuwdXVFXV1dVi+fDkkJCRw8uRJREZGAgBkZWVZSP/UKgsLCzx58gREhA0bNqCoqAgbN25ESkoKevfujY4dO7KgAOTm5mLz5s0oKChA7969MXv2bDx+/Bi7d+9GUlISxo4dyy7G/OP+/fs4cuQI6urqMGnSJCgolMHVtQQuLoXIy+uCkSNZRp86MBmGaUJlZURJSUSTJ9fSli2FVF3dfLMoKioiXV1d2rhxIyUnJxOXy33zXHl5OSUlJZGamhrt37+fXrx4QTwer9lmlZSUREOHDiU7OztKS0t767m8vDy6f/8+DR48mNzc3CgnJ6fZ5sTj8cjJyYlGjBhBoaGhlJeX99bzaWlpdOTIERo1ahQ9ffqUiouLm21WlZWVtH79epo2bRolJydTRUXFm+e4XC4lJyfTggULaNGiRZSamko1NTXNNqvCwkLS1NQkCwsLSk5Oprq6un/V9DJKTEwkZWVlOnz4MKWlpRGfz2+2WcXFxdGQIUPIwcGBMjIy3nru1atX5O/vT0OGDCFvb2969epVs82prq6O7OzsSEVFhaKioig/P//Nc3w+n168eEH/+9//aMyYMfTs2TMqKSlptllVVFTQqlWryMjIiJKTk6mysvLNcxwOh5KTk2n27NlkbGxMqampVFtb22yzKigooHHjxtGuXbvo+fPnb503lZSU0LNnJTR8+CYaPryI7typoWZcqj5KjIiIXTZgmKaXnZ0NS8tI/PzzVMjJATo6zeez8/l82NraIjMzE1VVVdi3bx/ExcU/ePX97t27+OOPP7Bq1SqMGzcOCgoKzSar/Px8uLi4IDU1Fb/++iuWLFnyweHERISTJ0/i9OnTWLFiBYyMjNC+fftmk1V0dDRCQkKQkJCAWbNmfXBkAhGBz+dj/vz5qKysxNSpU7Fw4cJmNUz71q1bePbsGdLS0rBt27YP9rYTEdLT02FoaIjx48djwoQJ0NTUbDY58Xg8XLhwAZmZmairq4OlpeVHjz8fHx+sWLECa9aswYQJE5rViI+XL1/ixo0beP78ORQUFLBgwYKPZnXw4EFcvnwZy5Ytw7x585rVkPbIyEiEhYXh2bNnmDdvHkZ+oLuPiFBXVwcjIyOIiYlBX18f8+fPb1a16saNG0hMTERGRgYsLS3x448/fjCr58+fY9asWdDR0cH48eMxfvz4ZpMTl8vFhQsXkJWVBTExMezYseOjx5+HhwdWrsyEmdlyTJwohv792Xn5v7EGM8MImAcPgMePgTt3gBMngG7dRPezcjgcBAYG4syZMzAyMoKCggL6f2aVDg0NhZ+fH27evIlhw4bBxsZGZIdeERE4HA6srKyQkJAAPT09qKmpfVbjl8fjwcfHB7a2tigtLYWuri5MTU3RokULkW3Q1NXVwcTEBN27d4eKigq0tLQ+eAHm34qKihASEoLNmzejT58+WLlyJcaNGyeyJ6N1dXXIzs7G2rVroampicGDB0NFReWz/jYxMRGPHj3C1q1bIS8vj7Nnz4r0MFEOhwNfX19cvHgRc+bMgYKCAvr06fNZfxsSEgJvb2/4+PhAUVERJ06cEPladfToUaSlpUFHRwejR4/+rLkn6urq4OPjgzNnzqC2thb6+vowNjb+rGNXWGsVl8vFsmXL0LdvXygpKUFLS+uz6k1+fj7CwsKwYcMGyMrKYt26dVBTUxPpWvXixQts3LgR2traGDx4MJSUlD7rbxMSEhAZGYmdO3dCXl4eFy5c+GAjWxSOPy6XCw8PDzg7O2P27NkYPHgwfv7558/6+/v3w+DuXougIDEoK4/EoUOSYCPa/z9chmEEDJf791Dt1auJAgKICgtF7zM+f/6chgwZQgcOHKDy8vKvGrLI5XKprKyMpk+fTjNnzqTAwMC3hnGLCn9/f+rbty95e3u/NfTsS9TU1NCLFy9ITk6OLC0t6eHDhyKXE4fDod27d9Pw4cMpIyPjq4cMV1ZW0s2bN6lXr17k5uZGqampIpdVfn4+GRgY0Lx586isrOyrjhs+n0/l5eW0Y8cOGjp0KAUEBIjkkPakpCSSl5enY8eOfXOt0tXVpXnz5tG9e/dE8pYST09P6tevH/n7+391raqurqakpCQaMGAAHThwgB4/fixyOdXW1pKFhQUpKytTTk7OV9eqiooKunr1KvXq1Ys8PT0pPT1d5LJ69eoV6evr05IlS6isrOyt2x8+F4/Ho7KyMtq8eTMpKSlRQEAAlZWViVxWz549owEDBpC1tfVX1yoOh0OlpbWkobGaFi1KpaAgYsO02ZBshhFsRUXAuXNAWRnQuzewZIloXCnesWMHJCQk0LFjRyxfvvybr4qXlpbi9OnTsLe3h4aGBqZMmYKxY8cKfVbp6ek4deoUfvjhBygoKGDy5MnfvM2YmBh4e3vj7NmzmDFjBlatWoXu3bsLfVb+/v7w8/ODjIzMPxOafPswfXd3d/j5+SEqKgoTJ07Etm3bRKK3y9raGtnZ2WjXrh2WLVv2zTPPExGsrKzg4eGBH3/8EVpaWliwYIFI9Cpv374drVq1QpcuXbB06dJvrlWFhYU4f/48bG1toaOjg+nTp4vExGDJyck4e/YsfvzxRwwdOhSTJk365m0+fPjwzeiYadOmwczMTCRmPvb29sa9e/fQvn176OnpYcCAAd+8zRs3bsDX1xfx8fHQ0NDA1q1bRaK3+fjx48jPz8d3330HExMTtGnT5pu2x+fzcfLkSdy6dQvdunXDpEmTMGfOHKHPqbq6Gjt27IC0tDS6d++OxYsXf/M2c3NzcfFiEs6fT4Ke3kLMnNkCI0awHmaGYQTYixdErq5EI0aUUFQUVyiv9nG5XLKxsaGxY8dSVFTUfyZfqg9paWnk4OBAQ4cOpYiICKHt7aqoqCBjY2NavHgxxcbGUlVVVb1un8/nU3x8PK1bt450dHQoKyvrq3uDmlpBQQGNHj2aDhw4QPHx8fU+uVJVVRXFxsaShoYGbd68mbKzs7+qh6Op8fl8evDgASkrK5Obm9t/JoqrD3l5eRQeHk4DBw6ky5cvU25urlDuU1wul44fP04TJkyg6OhoKigoqPfXSE1NpQsXLtCwYcMoOjpaaCdwqqiooEWLFtHy5cspNja23ieC4/F49PTpUzI1NaUpU6ZQdnZ2vdfDxpKbm0tqamp09OhRSkhIqPdaVVFRQbGxsTR69Gjavn07ZWdnC+UoBj6fTwEBAaSiokJeXl7/mSiuvnqtQ0JCaODAgXT16tUGOR9pDBwOhw4cOEBaWloUExNDhQ0wHDElJY2sre+RoqIXTZ5cQM11rjnWw8wwQnNxC7hyxQlBQeOgqNgFEyYAwrIkY1hYGB49eoSoqCj8+eefGDJkSINd/X5d0szMzBAREYFFixZhzpw5aCUka3Zdv34diYmJSE1NxdGjR7/5ivqnsiorK8OUKVPQv39/6OrqYsqUKUJzRd3JyQmJiYlo06YNLCwsGrRHhYgQGRmJ+fPnw9jYGKNGjfrse+iaWmpqKgIDAxEREQENDQ3MmDGjwY8/e3t77Ny5E5s3b4aWlpbQjGIICQnB48eP8fDhQ6xbtw4DBw5s8KxMTU3x7NkzzJ8/H3PnzhWK9dOJCK6urkhKSkJGRgaOHz/eoDWWiFBcXAx9fX0MGTIE2tra0NXVFYp9qqKiAlevXkVCQgLat2+PjRs3NnitCgkJwcKFC7Fy5Uqoq6tj6NChQjNS4f79+4iIiICOjg709fUb/Pg7d+4cDh48CHNzc+jq6grN8oL37t3DkydPEB0djU2bNqFv374NntWSJX8hO1sPc+aMwNy5gIhOhfJerMHMMEKmshLw8gJCQwlt2/Lx118t0KIFIGijr/h8PmpqarB06VLIyclBQUEBOjo6jTZMrLq6Gh4eHjh27BjU1NRgaWmJFi1aCOQwNR6Ph7i4OOzZs+fN5EuKioqN9vrp6ekICwvDpk2bsGfPHhgYGAhkVkQEHo8HZ2dn+Pr6QldXFyoqKujZs2ejvYfIyEgEBQXh/PnzcHZ2xoABAwRyArXXWVlYWKCurg4jRozA5MmTISUl1Wiv7+npiWvXrr2ZLblVq1YCOaSdz+ejsrISS5cuxdChQ6GgoFAvQ4q/pEHl7e2NgwcPYtKkSbCwsBDoWhUdHY0DBw5AW1sbCgoKGDZsWKNe/ImIiMCmTZtw6NAh6OvrC3Stsre3R1BQECZNmgQ1NbVGvXAUFhaGwMBAODo6wtXVFX369BHoWmVubg5JSUkoKipCX1+/0dZ6JyK4u7vD2dkZ5eXlcHFxgaSkpMDWqtLSUixfvhxKSkpQUFDAxIkTG+31y8rK4OPzAnv3+qJPn1X4/XcJaGmJN4+GMxvsyjDCqaiISxoaFjRwYDpdu1YpUMO0q6qqyNzcnFRUVGj58uVU3YSLS5eXl1N4eDhpaWnRjRs3KDk5WaD+HV+9ekWTJk2icePG0enTp5tsuC+fz6eioiI6f/48TZ06lR48eCBwQ2rj4+NJVlaWRo8eTVFRUU22ti2Xy6XCwkJavXo1rVq1isLCwgRqTWI+n0+Ojo40aNAg0tLSotLS0iZ7L9XV1fTy5UvS09Ojo0ePUnR0tECtSVxRUUFr1qwhVVVVWrNmTZPWqrKyMrp//z5paWmRu7s7paSkCNTxl5OTQxMmTKBx48aRnZ1dk9cqKysrmjFjBoWGhr61ZrEgiImJoV9//ZVGjx5NsbGxTV6rVqxYQevWraOwsDCBWpOYx+PRhQsXSEFBgXR1dam8vLxJz1uysrJIR0eHTp06RTExMQK1T5WVlZGJiQmpqamRubl5k37nlJaW0e3b4TR2rBsNHZpAL16wIdkMwwg4f39/hITIg8/vDENDYNCgpn0/7u7uiIqKgri4OObNm/fZS680hqNHj+LChQuYPn06zMzM0LZt2yZ9P8eOHUNxcTEkJCSwYcOGRrui/jm984sWLUJlZSU0NTVhamrapO+ntLQUhw8fhpiYGHr27IlFixYJzD6VmJiIefPmQVVVFZMmTYK2tnaTvp/o6GjcvHkT4uLiGDNmjEBNfnf79m2YmJhg3rx5mD17NmRlZZv0/Vy/fh0xMTEQFxfH77//3qgjFT5l//79cHZ2xpQpU2Bubo7WrVs3aQ/goUOHUFFRgZYtW2LDhg0CsyxWRUUFFixYACKClpYWli1b1qTvp7CwEMePH4eYmBj69OmD+fPnC8w+FRcXh/nz52P8+PGYNGlSo/ZMvk9kZCQ8PDwgLi4ODQ0NgZr8zt3dHatXr8a8efPw22+/Nfl5jLOzM+Lj4yEuLo6lS5eia9euApPVjh3H4enZB3p6ujA3BwTkNIb1MDMM818cDlFkJJGZGZ/mzi2h/Py/H2sslZWVlJ6eTurq6mRlZUWxsbECmhOHoqKiaNasWbRw4ULKz88nTmMGRUQlJSXk5eVFo0ePJh8fH4FdBqSoqIgiIyNp8ODBdPz4cSooKGjUXhI+n08FBQVkaWlJ06dPp8jISCoqKhLIrNLS0sjNzY0GDBhAd+7cafQJnDgcDuXn55OhoSFt3LiRoqKiBHZ5tdjYWNq+fTupqalRZmZmo082V1FRQSkpKaSmpkZnz56lp0+fCmROtbW1FBkZSVOnTiVjY2PKz89v9H/T4uJiunHjBo0ZM4bu3LnTIJMv1YeCggKKiIigQYMGkbW1dZPUqvz8fPrrr79o1qxZFBkZKbCTuKWmppKLiwvJyclRUFBQo48+qa2tpfz8fJo6dSpZWFhQVFSUQE6iyOfzKSYmhjZt2kRjxoyhnJycRp9srqKigp49e0ZqampkZ2dHCQkJArlP1dTUUGRkOuno7KAxY8rI2rqKCgtFbykq1sPMMCKkro6PFSsOIjxcG/PmdYOZmUyD39tcXFyMFStWoKioCJqamli7dq3AL2fB5/ORnp4OCwsLjBw5EgoKClBXV2/w101ISMCcOXMgKyuLBQsWQEtLS6CzIiIQEby8vODi4oKJEydixIgR6N+/f4O/tq+vL5YtWwZVVVXs378fPXr0EPSLz+Dz+Th48CBevnz55p7hdu3aNfi+bGlpiRs3bkBFRQUnTpwQyPsU382Ky+VixYoV6N27N+Tk5DB16tQGPxYKCgqwbNkyVFdXQ1tbG6ampkJRq5KTk7Fr1y6MGjUKCgoKUFVVbZTeyNmzZ0NeXh5LlizBuHHjBL5W8fl8uLm5wd3dHRoaGlBRUWmUnkFPT0+YmppCVVUVhw8fFvhJo15ntWfPHpSUlGD48OGYMmVKg04w+ff5SR22b98OHx8fjBw5EkePHhX4ZfqICDU1NVixYgX69euHQYMGQU9Pr8GPhdzcXPzxxx8gIkyePLlelrRrjFr19GkC9u1LQ1iYFBwdx0FZWfiXNnuNNZgZRgT9PctrDwQFyWDRImDUKDHU5/fS64bU2bNn8eTJEygrK0NLS0toZpf8t+vXr2P9+vU4d+4cxowZU+9f4K+zWrt2Ldq1awdZWVnMmjVL4Bs17+Jyudi8eTOCgoLg5uaGTp061fsXOBEhNzcXGzZswNChQzFo0KAmHzb4NXJycrB48WJ0794dZ86cgZiYWL1nxf8/9u48rqb8/wP4q7IVQnaSrcUoJUspikoJCamsKWowUrKvkZRliPnGJIyRpVAJWYYyRBotSrRIkbRqkUp73fv5/THDz5Km0Xbv7f18PPzhqM+99+Wc9z2f8/mcz+FyERQUhNOnT2P8+PEYPXo0FJr7fozvEBUVhblz52Lt2rWwtLRs8Kw+HH+//vorkpKSMGrUKEydOhVdu3blu6zOnz+PrVu34tSpU1BTU2uUWsXlcmFra4vu3btjyJAhMDU15btnj1dUVGD9+vWIjIyEv78/unTp0ii1Ki0tDfb29hgxYgSGDRsGbW1tvtun0tLSYGFhgR9++OHjVPLGqFW3bt2Ct7c3xo8fD1VV1QZ59nRTCw8Px7x582Bvbw8zM7NGq1UHDx5EWloaRowYAUNDQ3Tu3JnvsvLw8Mbu3SVQV7fAoUNA+/ZC4PfHglOHmRABxeUCvr5BOHy4EowNhrf3YDTEbS9v3rxBYmIili5dis6dO+PMmTOQlpbm45y4yM3Nxe+//464uDisXbsWgwcPRseOHevddlJSEgICAnDy5ElISkrizJkzDdJuc56IFhQUYM2aNZCRkcHMmTOhoKBQ7xPqD6uEHz58GAkJCdDW1sbmzZv55lFgNXn//j3S0tKwatUqLFy4ECoqKpCRkWmQdl++fIlly5ahdevWWLNmDQwNDfmuU/Opt2/f4s6dOzhx4gS2b9+OgQMHolevXg1y4SIhIQErVqxA586dce7cOfTnl2fx1VKr3N3dkZKSgpUrV0JGRqZBRgafP3+O69ev4/z58+jfvz9OnjzZ7Gs81Ed5eTkKCgqwcuVKKCkpwcDAoEFqVXV1NeLi4uDi4oKUlBTo6+tj7dq1PLP+xPcoKirCq1evsG7dOlhZWWHkyJENMjJfWFiIV69ewcrKCu3atcPWrVt5flbVv8nLy0NAQADOnj0LBwcHDBgwAD169Kh3u+np6YiNjcWaNWvQuXNn+Pj4oE+fPnybE4fDQV5eCXbuPISoKCtoaAAODj3RRA9paBx09ychgo3L5TInpxNs+3bG9u9nrD63C2VkZDBtbW1mbm7Ozp07J3BZ5eTkMG1tbbZs2bJ63y/44MEDJiMjw9avX8/CwsIELquQkBAmKyvLPDw86t3W77//zuTk5NjGjRvZ27dvBS4rDw8PJisry0JCQup9r/KPP/7IdHR02J49e3hqtemGwOFw2LJly5iOjg7LzMys933lGhoazMrKivn6+grcPpWRkcE0NTWZra1tve8BDQoKYoMHD2YbNmxgjx8/Fris7t27x6SlpRvkO+vIkSPshx9+YBs3bmzW1ecby9GjR9kPP/zAwsPD631fq7m5OZs0aRLbv3+/wOVUVVXFLCwsmL6+PsvJyalXWy9evGBqamps2bJl7PLlywKXVUpKClNX385WrHjD/P3pHmZCCI9LSwPmzt0OUdGNsLQUgYFBG9RlAIHL5aK4uBh79uxBcHAwFBQU8PPPP/P1SOm/XelNTEzEL7/8AjMzM+jr69f5s1ZVVaG0tBQLFy7Eq1evsHLlSixatIivR/9qExsbi8ePH+P8+fPYv38/BgwYUOfn/JaVleHly5dYuXIl0tLS4OPjAyUlJYHMicvlIjQ0FHfu3EF8fDyOHDkCMTExtG7dui4XtVFcXIzLly/j9OnTH5/t2pTPc23qkfno6Gh4eHhg0KBBsLGxQYcOHep0DH2oVTt27EBoaChGjx4NZ2fnRr83s7mkpqYiMTER//vf/2BpaYmJEyfWeVS4srISJSUlWLBgAV6/fo1NmzZh3rx5fD36V5unT58iMjISvr6+cHV1Rd++feu88nhZWRni4+OxYcMGpKWlwc/PD/Ly8gKZE4fDQWhoKAICApCSkoJDhw5BVFT0P9WqCxcu4Pz58xAREYGHhwdPrejckAoKChATE4PffvsNCgoKWLp0KTp27FinY4jD4aCkpARbtmzBo0ePoKGhgR07dtT5+5PfpKSkICamNVavPg8pqeXw8GiL7t2F0YyL//9n1GEmpAWprq5GePhjuLi8Q3x8e3h7j8WwYbX/zsWLF7FhwwYMHz4cx48fh7i4ON/df/tfMcZQXV2NU6dOISQkBNOnT8eYMWNqnSZaUVGBLVu24MGDB1BTU8PevXvRqlUrge0sf9pJqa6uxrp16yAmJoYxY8ZgypQptZ5gZWRkwNLSEq1atYKRkRHMzMzQqlUrgT1Z//QkKT8/H9bW1lBXV8fw4cP/9bFP0dHRMDU1xbBhw7Bp0yYMHz6cZx7p09i1KiQkBL/++iuMjIygqKiIoUOH1vo7np6ecHR0hJKSEn777Te0b9++xdSq48ePIyoqCgYGBhg7diy6d+9eawdw/fr1iIqKwrhx47Bz5060bt1a4I+/D7XKzs4OEhISUFFRwZQpU2o9nlJTU2FhYYEOHTrA1NQUs2fPbjG1KicnB7a2thg/fjyUlJT+dWHMyMhIzJ49G0pKSti+fTuGDh3aImpVVVUVgoKCcPz4cRgbG0NJSQlycnK1HrMnT57Evn37oKSkhBMnTqBdu3YtpFZx8L//HcGtW9PRtWsx3NyGQkKCOsyEEB4uXF5e15GcbICcHAYXF6B16/9flIExhqSkJLi4uOCHH36o04m9oCoqKsLSpUtRXFwMHx8ftG3b9rOTJcYY/P39ERAQ8HHhl6ZYRZoXPXv2DAsWLMDMmTOxZcuWv79k/snqw1fN3r17UVBQgIEDB2LBggUCO/r3bwIDA7FkyRK4urrCwMDgq32qvLwca9asQd++fTF48GDMmTOnxdaq3bt3w8fHB97e3pCWlv4qq7i4OBw6dAjy8vJQVlZukhXvedG7d+8+rqx7/vz5zzp2H46/ixcv4t69ex8X1Bs0aFCLzComJgYLFiyAmZkZ1qxZU2OtcnJyQmlpKQYOHIiFCxc267Owm9OHVcDd3d1N5iSwAAAgAElEQVShp6f31fFXUlKCdevWoV+/fpCRkYGJiUmLzInL5WLHjh24ceMGfH19ISUl9VVW0dHRcHd3h4KCAkaNGgU1NbUWmVVeXh4sLX+FsLAZ9PUHYskSoX+OQeowE0J4sjMI/PTTNiQnr4KhIWBk1AFAMrZv34709HRMnz4dK1eu5OsFTRrC+/fvkZubC1tbW0yePBn6+vro2rUrMjMzYWZmBhEREezduxcTJkwQ+JGHf5Obm4uYmBjs3r0bGzdu/DgqGBkZCXt7e4iKiuLSpUt8uaJ6Q3cEMzIycPnyZQQGBmLPnj3o06cP8vLy4OnpiZs3b0JOTg6urq4Ce/tDXVVWVuLNmzfYs2cPxMTE8OOPP0JSUhLp6enYtGkTsrOzYWpqiuXLl9dp6qhg1/QiZGdnw9bWFjNnzsTEiRPRpUsXZGRkYMGCBWjdujVcXV0xZsyYFl+rcnJyEBUVBRcXF9jb20NWVvbjlORdu3ZBTEwMly5dQrdu3Vp8rUpPT4ePjw9CQkLg7OyMPn36ICcnBydPnkRQUBAUFBTg4uLC1wvFNYSKigpkZ2fD0dER3bt3h4WFxcdatXr1ahQUFGDBggX48ccfW8Toe20KCwuRkVGNhQvdUVlpiSNHukJWtjVqmRxDHWZCSPNKSEjA0aPZ8PBIhJRUPHR1ReDk5NRir6jXxt/fH/fv30d6ejqKi4uhq6uLlStXUjA12L9/PwoKCnDz5k2MGjUK06dPx+TJkymYL5SWlsLe3h6dO3fGyZMnMX36dKxYsaJJniHLb54+fYqTJ0+iVatWuHPnDnR0dODs7NziO8o1uXjxIkJDQ5GcnAwOhwM9PT0sX76cgqnB7t27UVpaiqtXr2Ls2LEfLzaQry/IODg4oEuXLh9r1apVqyAlJUXhfCEyMhJnz56FkJAQQkJCoKOjg507dwr81Ovvcf78Bdy4MRrp6ek4dUoT/fpRh5kQwsP8/CIRGDgCR44IURi1yMjIgKSkJHx8fGBsbEyB1OLMmTMwNzdHdnZ2rfdVEsDCwgKRkZGIiYmhMGrBGIOUlBRMTExw4MABCqQWL1++hLS0NK5du4apU6dSILU4duwYrK2tkZeXh06dOlEgtZgzZw6Sk5MRHh5OYdSCy+Wid+/esLKygrOzMwVSi7i4OCgoeODOnX3Q0uK99ydM/0WEkA9GjBgJgDrLhBBCCCGEUIeZEEIIIYQQQgihDjMhhBBCCCGEEEIdZkIIIYQQQgghhDrMhBBCCCGEEEIIdZgJIYQQQgghhBDqMBNCCCGEEEIIIdRhJoQQQgghhBBCqMNMCCGEEEIIIYRQh5kQQgghhBBCCKEOMyGEEEIIIYQQQh1mQgghhBBCCCGEOsyEEEIIIYQQQgh1mAkhhBBCCCGEEOowE0IIIYQQQgghhDrMhJAmVVFRgQ0bNqBPnz4QFRWFqqoqAgMDv7s9BwcHCAkJffNPSEgIX+ZUXFyM7du3Q19fHxISEhASEoKHh0e92vTw8Kg1K09PT77LKSIiAitWrIC8vDzat28PKSkpmJqaIjExkXL6QlxcHExMTDBo0CCIiYmhW7du0NTUxNWrVymrf+Hs7AwhISEoKChQrfpCUFDQNz9TaGgoZfWFqKgoGBoaQkJCAmJiYlBQUICrqyvl9AkLC4taP1dGRgZl9YmkpCTMmTMHkpKSEBMTw5AhQ+Do6IjS0lLarxpBKzqVJ4Q0xRehr68v7OzsICMjAw8PD0yZMgV3797FuHHj/nN7RkZGkJaW/mr75s2bUVxcjNGjR/NlTnl5eXB0dISUlBSUlJQQFBRU7zY1NTVx5syZr7YfPHgQT548gY6ODt/ltHfvXoSEhMDExASKiop48+YNDh8+jBEjRiA0NPS7OjiCmBMAvH79Gu/fv4e5uTn69OmD0tJSXLx4EYaGhjh69CiWLFlCWdUgPT0du3btQvv27evVjqDWqg9sbW2/+gw1fd6WnFVAQACmTZsGZWVl2Nvbo0OHDnj58iXS09Mpp08sXboUEydO/GwbYwzLli3DgAED0LdvX8rqH2lpaVBRUUGnTp2wYsUKSEhI4OHDh9i+fTsiIyNx5coVyqqhMUII+cerV4wtW9awbYaFhTEAbN++fR+3lZWVscGDBzM1NbUGe53U1FQmJCTEfvzxx0bPKT09nQFgPj4+DdpueXk5y8rKYowxFhERwQCwkydPNvj7Ly0tZR07dmS6urqNntXp06eZkJAQy8nJabA2Q0JCWEVFxWfbEhMTWdu2bdn8+fP5MifGGDM3N2cKCgqN/jrV1dVMSUmJycnJ8WVWXC6XSUpKslWrVjXaa8yePZtpa2uz8ePHM3l5+QZtuylr1YsXLxgAdu3atQZt9+7du41SA5szq6NHj7JWrVqxgoKCBmuzsLCQ9ezZk82cOZNxOByByOnD8TF69OhGf53g4GAGgDk7O/NlVhwOh/Xo0YNt3ry5Qdt1dnZmAFhsbOxn2xcuXMgAsPz8fL7LKjY2lgFr2Z07vHl+TFOyCSGNytfXFyIiIp+NZLVr1w6WlpZ4+PAh0tLSGuR1zp07B8YY5s+fz7dZtW3bFr169Wr017l69Srev3/Pt1mpq6ujTZs2n22TkZGBvLw8nj17Rjn9CxEREfTr1w8FBQWUVQ3u378PX19f/PLLL43SviDUqk+9f/8e1dXVlFUNvLy8kJ2dDWdnZwgLC6OkpARcLpdy+g/5CQkJYd68eZTVJ4qKigAAPXv2/Gx77969ISws/NX3I+1X9UcdZkJIo3r8+DFkZWUhLi7+2XYVFRUAQHR0dIO8jqenJ/r16wdNTU0KvQ5ZiYqKwsjISGA+E2MM2dnZ6NatG+VUg5KSEuTl5eHly5c4ePAg/vjjjwadOi0oWXE4HNjY2MDKygrDhg1rtONPUGrVokWLIC4ujnbt2kFLSwuPHj2irD5x+/ZtiIuLIyMjA3JycujQoQPExcXx008/oby8nHKqRVVVFby9vaGuro4BAwZQVp+YMGECAMDS0hLR0dFIS0vDhQsXcOTIEdja2tb7VhI6r6IOMyGkiWVlZaF3795fbf+wLTMzs96vERcXh6dPn2Lu3LkQEhKi0GuRn5+PmzdvYtq0aejYsaNAXQTIyMjA7NmzKacarFmzBt27d4e0tDTWrl2LmTNn4vDhw5TVF9zd3fH69Wvs3LmzUdoXlFrVpk0bzJo1C//73/9w5coVODk5ISYmBhoaGnj8+DFl9Y+kpCRUV1dj+vTpmDRpEi5evIjFixfD3d0dixYtopxqcevWLbx9+7ZBRzcFJSt9fX3s3LkTgYGBUFZWhpSUFObMmQMbGxscPHiQsmoEtOgXIaRRlZWVoW3btl9tb9eu3cd/b4jOEgCaNlQHvr6+qKysFKisEhISYG1tDTU1NZibm1NONbCzs4OxsTEyMzPh7e0NDoeDyspKyuoTb9++xbZt22Bvb4/u3bs3ymsISq1SV1eHurr6x78bGhrC2NgYioqK2LRpE27evElZ4e8nH5SWlmLZsmUfV8U2MjJCZWUljh49CkdHR8jIyNA+VQMvLy+0bt0apqamdPzVYMCAAdDU1MSsWbPQtWtXXL9+Hbt27UKvXr2wYsUKyoo6zIQQfiIqKoqKioqvtn+YjiYqKlqv9hlj8PLygoKCAhQVFSnwOnwJSkhIYPLkyQLxed68eYOpU6eiU6dOH++Xp5y+NmTIEAwZMgQAsHDhQujp6WHatGkICwur9+iBoGS1detWSEhIwMbGplHaF/RaJS0tjenTp8PPzw8cDqdex6KgZPXh+23u3LmfbZ83bx6OHj2Khw8f1qvDLKj7VHFxMa5cuYJJkyaha9eudPx94fz581iyZAkSExMhKSkJ4O8LMVwuFxs2bMDcuXPrlRudV32NpmQTQhpV7969kZWV9dX2D9v69OlTr/ZDQkLw+vVrugpaB6mpqQgODoaJiQlat27N95+nsLAQkydPRkFBAW7evFnvfUlQc6qJsbExIiIi6vXsakHKKikpCceOHYOtrS0yMzORkpKClJQUlJeXo6qqCikpKcjPz6da9S/69euHyspKlJSUUFaffL99uThTjx49AADv3r2jnGpw+fJllJaWNujnEqSs3NzcoKys/LGz/IGhoSFKS0vrfVsEnVdRh5kQ0sSGDx+OxMTEj6s6fhAWFvbx3+vD09OzwVfRFFSCtOJleXk5pk2bhsTERFy7dg1Dhw6lnP6DD7dCFBYWUlYAMjIywOVyYWtri4EDB378ExYWhsTERAwcOBCOjo5Uq/5FcnIy2rVrhw4dOlBWAEaOHPlx//rUh7U76jv1X1D3KU9PT3To0AGGhoYN2qagZJWdnQ0Oh/PV9qqqKgCo96r1dF5FHWZCSBMzNjYGh8PBsWPHPm6rqKjAyZMnoaqqin79+n1321VVVfDx8cG4ceMgJSVFYf8LLy8vSElJYdy4cXz9OTgcDmbPno2HDx/Cx8cHampqlNM35OTk1HjcnD59GqKiovW+0CAoWSkoKODSpUtf/ZGXl4eUlBQuXboES0tLqlX/yM3N/WrbkydP4O/vDz09PQgLC1NWwMf7b0+cOPHZ9t9++w2tWrX6uNox7VOf71u3b9/GzJkzISYm1iBtClpWsrKyePz48VczhM6dOwdhYeF6TaOm8yrqMBNCmoGqqipMTEywadMmrF+/HseOHYO2tjZSUlLw888/f/azDg4OEBISQlBQUJ3aboxVNJvb4cOH4eTkhN9//x3A38+3dXJygpOT02ejgR4eHhASEoKHh0ed2o2NjcXTp08xb948vl/xcs2aNfD398fkyZORn5+Ps2fPfvbnUy05JwBYunQpdHR0sGPHDvz2229wcnKCoqIioqKi4OTk9NlIYEvOqlu3bpgxY8ZXf7p164aOHTtixowZnz1mqqXXqtmzZ2Pq1KlwdnbG8ePHsWrVKqirq0NMTAx79uyhuv4PZWVlLF68GF5eXpg9ezbc3NxgamqKc+fOYd26dZ/dRkLff3+7cOECqqura/1cLT2rdevWgcPhQENDAzt37oSbmxumTJmCy5cvY/HixbRfNQJa9IsQ0uhOnz4Ne3t7nDlzBu/evYOioiKuXbv21bP9iouLISQkhF69etWpXU9PT7Ru3RomJiYCk9X+/fvx+vXrj3/38/ODn58fAGDBggXo1KnTx6wA1PjIrm9lBUAgplh9eHb31atXcfXq1a/+fcGCBZ/tUy01pw8dmxMnTuDIkSN4+/YtOnbsiJEjR2Lv3r1fTXds6Vn9Fy29Vs2YMQOenp44cOAAioqK0L17dxgZGWH79u2QlpamrD7h7u4OKSkpnDx5EpcuXUL//v1x8OBB2NnZUU7f+Fw9evTAxIkT6fj7Bk1NTfz1119wcHCAm5sb3r59i4EDB8LZ2Rnr16+nrBqBEGOMUQyEEABISQH27gWOHGme11dRUUH//v3h4+PD0zllZGRAUlISPj4+MDY2bpb3YGpqipSUFISHh/N0VmfOnIG5uTmys7Mb7VE9gpATAFhYWCAyMhIxMTG0T9WCMQYpKSmYmJjgwIEDVKtq8fLlS0hLS+PatWuYOnUqZVWLY8eOwdraGnl5eR8vTFJONZszZw6Sk5ObrVbwS1ZcLhe9e/eGlZUVnJ2dKataxMXFQUHBA3fu7IOWFu+9PxphJoTwhKKiIjx58gSnTp2iMOrQYQgKCvpq+jGhnCgrqlWUFeVEWRHKijrMhBABJC4uXuPzmsnXhISEalzMiVBOlBXVKsqKcqKsCGXVsGjRL0IIIYQQQgghhDrMhBBCCCGEEEIIdZgJIYQQQgghhBDqMBNCCCGEEEIIIdRhJoQQQgghhBBCqMNMCCGEEEIIIYRQh5kQQgghhBBCCKEOMyGEEEIIIYQQQh1mQgghhBBCCCGEOsyEEEIIIYQQQgh1mAkhhBBCCCGEEIEj4uDg4EAxEEIAQEQEiI8HfHwAbe2//y4kRLl8wBjDpUuX4OnpCVlZWQQHByMrKwvq6uoAACEK62NOALBr1y5kZmaioqIC0dHREBERgaysLOX0RValpaVYtWoVBgwYgNDQUDx//hxycnKQkJCgrL7I6smTJ3B0dISqqipu3bqFhIQETJw4EcLCwpTVF1l5e3vD19cX/fv3R0hICHJzc6Gqqkq1qoZa5ejoiPz8fBQVFeHp06do27YtBg8eTDl9kVVRURFWr14NGRkZBAcH4/nz51BQUECnTp0oqy+yioiIwK5du6CqqoqAgAA8f/4cEydOhJCQEGX1xfF39uxZXL9+Hb17d8LDh73w7l1XjBol9E+t4o33KsQ+vFtCCAHw/j2QnQ2sWgXo6wOTJwMDB7bsjnNBQQGysrKwbt06TJs2DVOmTEHnzp2Rk5OD+fPno7KyErt374aenl6L/yLMzMzE06dP4eLigm3btmHIkCEAgOjoaGzevBmMMVy+fBmSkpIt/kQhOTkZV69eRVBQEA4cOIAePXrg3bt38PLygr+/P/r3748jR46gU6dOLTqriooKpKamwsXFBeLi4li+fDl69uyJ7OxsbNq0CSkpKZg5cybs7OzQpk2bFp3Vu3fvkJGRgXXr1sHExAR6enoQFxdHdnY25s2bh+rqahw8eBDjx49v8bUqIyMDUVFRcHV1xc6dOyEjIwMOh4Pw8HA4OjpCSEgIly9fRu/evalWJSfDz88PYWFh2LdvH7p37478/Hx4eHggICAA0tLScHV1hbi4eIvOqry8HGlpadi9ezf69OkDKyurj7Vq9erVyMrKwuzZs2FtbY3WrVu36Kzy8/ORlpaG9evXw8zMDFpaWujQoQOysriYP98V1dU/wd29C9TUeCMn6jATQr7J3x+ws7sEd/cZ0NNrmSdXhYWFsLS0BJfLxblz59C2bduvfubGjRu4ffs2+vfvDz09Pfzwww8tMqvY2FiYmZlh7ty5WL9+fY0/c+DAAeTl5aFnz56wtLREhw4dWmRWN27cwIoVK/Drr79i8uTJNZ54bd68GV26dIGUlBTMzc1b7Mn6jh07cP36dZw/fx6DBw/+6meePXsGd3d39OvXDyNHjoSWllaLPQFdtGgRxMTEcObMGbRq1eqrn7ly5Qru378PKSkpTJ06FdLS0i0yq+joaJiZmcHKygorV66s8Wd+/vlnFBUVoUePHvjxxx8hKiraIrO6fPky1qxZg6NHj2LixIlf/XtJSQm2bt2Krl27YuDAgZg/f36LzInL5WLLli0ICgqCt7c3+vXr99XPPHnyBL///jukpKSgoqICDQ2NFplVTk4OFi1ahO7du+PEiRMQERH56md8fX0RGqqFfv26Yvp0YMAA6jATQnhYSMgjPHo0EvfuCeHYMaBTJ0DQL4wyxlBeXg4PDw88fPgQ8+bNw4gRI9CjR49v/k5lZSV27NiBwMBAjBo1Ci4uLmjbti2EhQV7qQgOh4PKykqsXbsW4uLi0NLSgpaWVq1Xz9+8eYMff/wRlZWVmDlzJiwsLNC2bVuBH/GqqqrC27dv8dNPP0FHRwcjR46Empparb8TFxcHY2NjDB48GFu2bMGIESNqvGgjaCoqKvDgwQMcPnwYCxcuhLy8PGRlZWv9HV9fX2zevBlDhgzBqVOn0LFjxxo7jYJYq44dO4bo6GjMnj0bo0ePRteuXb/5O+Xl5di6dStCQkKgqqqK3bt3t6haZWtri169ekFTUxPa2to1nqx/kJGRgcWLF0NYWBgmJiaYN29ei6lVb968gY2NDfT19TFixAioqKjU+jtPnz6FsbExZGVlsWPHDgwbNqxFzPgoLy/H3bt3cezYMVhYWEBBQaHGC3ufHrNeXl5wcnL6WKvExMRaTK06fPgwnj9/DmNjY4wZMwadO3f+5u+UlgIbN15HZGQvjB07DDt2tEHbtkBzlCrqMBNC/lV1NVBeDixZAsjLAzY2gKDOvHr9+jXi4+Nx7NgxmJmZYfLkyXUeWaiurkZFRQUsLCyQkJCA5cuXY+nSpQJ7Ivr48WNER0fj0qVLcHFxQf/+/et8glRRUYFXr15h1apVSEpKwvnz5zFq1CiBzInL5eLevXsIDg7GixcvcOTIEbRt27ZOJ0gfTjL8/f3h4eGB4uJieHp6QkpKSiCzKiwsREREBC5cuABpaWnY2NhAVFS0Th0ULpeL8vJyODk5ITg4GMOGDcPPP/8ssLMYXr16hfj4eBw/fhxWVlbQ0dH5T7WqrKwM5ubmeP78OdauXQsLCwuB7QhGRkYiKioKV69ehaurK/r06fOfalVCQgI2btyIFy9ewMfHB8OHDxfYiwr37t1DUFAQ0tPTcfjwYbRp0+Y/1SofHx94eXmhsrISp0+fFtjbb969e4fIyEicPXsWioqKWLZs2X+uVfb29ggNDcXo0aOxa9cuiImJCWRWL1++RFxcHE6cOAFra2toamqiXbt2db54U1JSjYULXZCUZIpt2/pizpz2TX+bICOEkP/gr78YW7+esVOnBO+zvXnzhmlqajIbGxtWVVVVr7ZCQ0OZnJwcs7W1ZX/99ZfAZXX//n0mLS3NvLy86t3WmTNnmIyMDLOzs2N5eXkCl9WxY8eYnJwcCwsLq1c7VVVVzNramo0fP57t2LGDcblcgcqJw+GwxYsXs0mTJrGsrKx6tZWamsq0tLSYmZkZO3funMDtU2lpaUxdXZ2tXbuWcTicerX14MEDJi0tzVauXMkePXokcFn9+eefbNCgQczX17febZ04cYLJycmxVatWscLCQoHL6tChQ0xeXp5FRkbWq53y8nJmZWXFtLW12a5duwQup6qqKjZ//nxmYGBQ7++s5ORkNm7cOLZo0aIG2Ud5TXJyMlNRUWH29vb1/s4KCgpigwc7Mzs7LnvypGk/B40wE0K+YxQWCAkBPDwAFxegXz+gllk1PD/6l56ejlOnTuH58+ewt7eHpKQk2rdvX++2U1NTERgYiKNHj0JCQgLnzp1Dly5d+Pb/vaysDLm5udiwYQPk5eVhamoKaWnpeo+gc7lcvHjxAq6uroiOjsbYsWPh4ODA1/cMvnv3DikpKVi/fj2WLFkCVVXVBhkVLikpQXp6OpYsWYLKykrY2dnBxMSEr2cxZGVl4e7duzh16hT27NmDfv36oVu3bvVuNzc3F0lJSVi2bBnatGmD8+fP8/U9uxwOBxkZGTh+/DgyMjKwYcMGSElJNchxkpKSghs3buDUqVPo2bMnTp8+XetUSV5XWlqK3NxcrF27FqNGjYKRkRGkpaXrPYLO4XDw4sULuLi4ID4+Htra2ti8eXOdR8t4UX5+Pl68eIEtW7bA2toaI0eOrPH+2/+quLgYGRkZWLRoEbhcLjZu3Ijp06fz9SyGzMxMBAYG4vz589i7dy8kJSUhISFR73azs7ORkJAAW1tbtGnT5uPq9vyquroamZmZcHNzQ35+PtasWYP+/fs3yHHy6lUaLl+OwYULHSEpKYcTJ3qgKdbFpA4zIeS7fKgcVlZvkZn5Ar//rgp+XEz03LlzsLe3x8mTJzFu3LgG/zL/UGI3bdqENm3aoH///jA3N+e7+5WqqqqwZs0aREVF4fLly+jatWujZJWbmwt7e3tIS0vjhx9+gIGBAd/tU+np6bCwsICsrCx+/fXXv79sGyGr4OBgeHl5QVFREWpqalBWVua7rMLCwrBgwQJs3boVCxcubPCsPhx/x48fR0JCAuTk5GBkZITu3bvzXVanTp2Cs7Mzzpw5AxUVlUbZpxhjWL9+Pdq3b48BAwbA3Nyc7y7GVFRUYOXKlUhISMDly5cb5ZFHjDFkZmbC0dERMjIyUFBQgL6+Pt/tUykpKTA3N8fIkSPh4uLSaLXqzz//xMWLF6GoqIhx48Zh2LBhfJdVSEgIFi5ciJ07d2Lu3LmNVqt+/fVXpKSkQEZGBiYmJg3SIW9qR48exS+//AJPT08oKys3yj7F5XKxZo0bunSxwcCBgJlZ4z7NhTrMhJB6KSwsxN27GQgMHAopqb8fR9W6NW8/hqq6uhopKSnYtGkT9PT0oKio+PH5pI0pKSkJ8+bNg6SkJBYtWoRp06bx9NV2xhiqq6tx7do1eHt7w8TEBMOHD8egQYMa/bXv3bsHCwsLKCsr48CBA+jfvz/PZ1VVVYW9e/ciNzcX2tra0NHRQceOHRv1dblcLlxcXD6emBw/fpznL8Z8WHxpyZIl+OGHHzBixAhMmjSp0f9/8/PzYW1tjby8PEyaNAmrV6/m+c5gdXU1nj9/DgcHB0yePBmKiopNcq//8+fPMWfOHAwcOBBLly7l+UfmfahVfn5+8Pf3h7GxMUaMGNEko3S3b9/GkiVLMHz4cBw+fBh9+vTh6X3qQ63auXMniouLMX78eOjp6TX6/bMcDge7du3CpUuXMGrUKLi5ufFFrSorK8OSJUugpKQEZWVl6OrqNvqxkJubi2XLlqG4uBhTp07FihUr+KJWxcbGwtnZGQYGBlBUVGySi7jx8YCpqRPk5DbB2loIWlrCjXP+SXdkEkIaQnExY7dvMyYrm8T8/MpZcjLvvcfKykoWHBzMZs6cySwtLVlBQUG971X+7zkVs9u3bzMdHR3m7+/PXrx4wZP/n7m5uSw4OJjJy8szNzc3VlhY2KT3zHK5XFZYWMj279/PTExMWHBwMM/e35yUlMQuXLjAhgwZwu7fv8+Ki4ub/H66goICZmZmxjZs2MAePHjAKisreTKrR48esU2bNrGxY8eyN2/esPLy8iZ9/bKyMpaamsq0tbWZm5sbi4qK4smcysvLWXBwMJsyZQqztrZmBQUFrLq6uknfw/v379n169fZxIkT2Y0bN1gyLxZ1xlh2dja7f/8+GzJkCDt+/Hiz1KqCggLm7OzM5s6dy4KDg1l+fj5PZvX8+XN25swZNnToUBYaGspKSkqa/Du4oKCAzZ49m23ZsoU9ePCgyffruv6fhoeHs9WrV7MJEyaw3NzcZqlVL1++ZFpaWuz48eMsOjqaJ/epstB3bj0AACAASURBVLIyFhwczCZOnMhWr17dTLWqmPn5/cl0de+wW7cYS0mhe5gJITzujz/+QECALP766znOnp0CGRneeW/79u2Dl5cXTE1NYWtr2yD3KdfHkSNHkJOTAw6Hg61bt/LMIzjKyspgZmYGLpcLfX19LFmypFnfT1FREQ4fPozy8nL07dsXS5cu5Zl96tmzZ5g/fz50dHSgp6cHXV3dZn0/T58+xbVr11BSUvJxlJtXXLt2DStXroSlpSVMTEwg08zFwd/fH0+fPkVpaSmWLFmCAc39oM9PODk54fLlyzA2NoadnV2z3iPLGMPhw4eRn58Pxhi2bt3KMyODxcXFmD9/Ptq1a4dJkyZh8eLFzfp+8vPz4e7ujrKyMgwcOLDZ38+XtcHMzAxTpkyBnp5esz+vPCoqCjdv3kRJSQn09PQwfvx4nsnq0qVLWLt2LSwtLTF37lwMHDiwWd+Pn58f4uLiUFZWBmtra/Tt25dnstq6dSv+/PNPzJgxA6tWrWrW8xjGgP/9DygoAEREgC1bGvARVDQuRghpjCuOjx+nM2trxtasYezNG8aaeCD3o3fv3rGQkBCmq6vLrl27xlIa49JjPUdyp02bxjQ1NdmhQ4eafMT70yvqOTk57OjRo8zQ0JBFRkby3IhuUlISU1BQYOrq6iw0NLTZVomuqqpib968YTY2NmzlypXs8ePHrKKigqdGR3x9fZmioiLT0tJq1tGukpISlpqayqZOncoOHTrE4uLieGp179LSUrZhwwampqbGrK2tm3zE7ctadefOHaarq8tu3rzJUlNTeW4kV19fn2lqarJjx44128ggl8tl2dnZ7NChQ8zIyIhFRUXx3IhufHw8Gzp0KFNTU2NRUVHNts9XVlayN2/esKVLl7K1a9eyx48f89TsEw6Hw86ePcuUlJSYrq4uKygoaLb3UlxczF69esX09fWZu7s7e/bsGU/tU8XFxWzVqlVMXV2d2dnZsdLS0mZ7L/n5+ezWrVtMV1eX/fnnnywtLY2nssrKYkxLazPT0ChmHh6lrCFKFY0wE0Ia9WpfTAwwZ04EFi+Wg4aGOJrgVmEAf6+S6uvrCzc3N0ycOBGOjo4QEhLiyfvwGGOIj4/Hzz//jDFjxmD48OFQU1NrstdPTk5GcHAwHBwcsG/fPhgZGfFkVuyfRYl8fX0RGBgIDQ0NaGhoNOnV/5CQENy7dw/nzp2Dt7c3hgwZwrP7FGMMjo6OKC0thYKCAkxMTJps5XHGGPz8/ODn54fCwkJcvHgRbdq04dmsSktLsWLFCsjKymLo0KGYPn16k73++/fvcenSJbi6umLGjBnYvHkzT9eq6Oho/PLLL1BXV4eysjJUVFSa7PWTkpLw4MEDODo64n//+x8MDAx4uladO3cO9+/fx9ixYzFhwoQmfX76/fv3cffuXVy+fBm+vr4YNGgQT9eqrVu3gjGGoUOHwtTUFG3btm2y1/fx8YGvry+qq6tx4cIFtGrVimezKioqwsqVKzF06FAMHTq0SRfGLCgogL+/P1xcXLBgwQKsWbOGZ2sVl8sQEfEIbm5lGDdOEyNGACNHfn971GEmhDS6yMhIhIR0gZvbfZw9a4ERIxpwmkwNXyhcLherVq1CbGwsfvzxR8yaNYtnpjv/m+vXryM2NhaxsbE4cuQIOnTo0IhfKFwUFhbC0NAQSkpKMDAw4JuVXsvLy3Hp0iU8fvwYrVu3xs6dOxt1URQul4uwsDAsXLgQq1atgrq6OoYPH84XWb1+/RohISH4888/oaOjg7lz5zbaCc6H48/DwwN79+6Fg4MDtLS00JtPltAPDw/HkydPEBQUhA0bNmDYsGGNntVPP/2E169fY/HixZg1axbfrKDv7++PuLg4JCQkwN3dvVEvxnC5XLx9+xaGhoZQU1PD5MmTm/32h7oqKSnBlStXEBkZiY4dO2Lbtm2NXquCg4OxePFibNiwAWpqanyzKnVycjIePnyI27dvY+rUqZg1a1ajH3/Hjh2Dq6sr7O3toauryzcr6D98+BBPnjxBcHAw7O3tIScn1+hZLV68GPn5+TAzM8OsWbMgIiLC8zkxBly5AsTGAsnJXLi7C6FNG6HvCoEQQhpddXU1y819zzZu5DBt7UQWHs5YQ88oSkxMZL/99htTUlJi0dHR7P3793w7pd3Ozo5ZWlqy8PDwBl9EisvlssjISLZixQo2depUlpOT0+QLmjSUwsJCpqenx3bv3t0oUx+Li4tZeHg409TUZNu2bWN5eXmMw+HwXU4f/s81NDSYt7c3S0xMbPDXyMzMZEFBQUxWVpZduHCBZxc+qkutOnbsGJs0aRL766+/2Js3bxr8NRISEtivv/7KlJWVWVxcHN/WqtLSUrZ8+XK2bNkyFh4e3uDTRDkcDnv06BGzsrJiM2fObJbFlxpyGquOjg7bv38/e/z4cYPXqqKiIhYeHs7GjBnDnJyc+LpW/fXXX0xDQ4NdunSpURbGTE9PZ7dv32aysrLs0qVL7N27d3y5T1VVVTFXV1c2ZcoUFhoaynJychr8NeLj49nBgwfZyJEjWWJiYpMvatlwtYoxS0t7ZmtbycLDGfuvZYRGmAkhTYrD4WD37nP4449e0NRUxK5dPer9CICCggK4urri/PnzMDQ0hIGBAcaNG8f3WaWmpuK3336DiIgIFBUVMXPmzHq3GRUVBX9/f3h6emLu3Ln46aef+Gb0rzZBQUG4c+cOWrVqhWnTpjXI4ywuXryIgIAAPHv2DJMnT8aGDRv47pm0NTlx4gRSU1MhIiICW1tbdO7cud6jDwcOHMDNmzfRt29f6OnpYd68eXyfU2VlJfbs2QMulwsJCQnY2NjUewQnLy8Pbm5u8PLygpGREQwNDTFmzBi+zyo5ORkeHh4QERHByJEjG2SaaHh4OK5du4YLFy5g9uzZsLGx4cvnZ38pMDAQwcHBaNWqFYyMjKCgoFDvNi9cuICAgACkpKRg0qRJWLduHU8/Bqyujh49iszMTLRq1QqrVq2q94yrD4/hu379OmRkZKCnpwcTExO+z6m8vBx79uwBAPTo0QPLly+vd5tZWVk4fvw4zpw5g9mzZ2PmzJkYWZ85zTzi+XPA0/PvRcFUVYE6T6qjcS9CSHN4/fo1CwgoYdra5ezKlQpWWPjf26isrGT5+fnMwMCALViwgIWFhfHkIyrqKzg4mMnKyjJ/f39W+D1Bsb8XX0pMTGRDhgxh+/fvZ7GxsQKXU1VVFdu3bx8bOXIke/ny5Xcv4FRYWMi8vb3ZgAEDWEBAAM8tvtQQ3r59y+bPn8/mzZvH8vPzv2shIA6Hw/Lz89nmzZvZ6NGj2cOHD797/+Rlr169YsrKyszFxYXl5+d/18hgRUUFe/v2LdPV1WWWlpYsLCyML0f//s3t27eZnJwcu3nzZr1qVWxsLJOVlWWHDh1i8fHxApdTRUUFc3JyYioqKuz169ffPTJfUFDAzp49ywYMGMD+/PNPlpGRIXBZ5ebmMmNjY7Zo0aJ616o1a9YwdXV19vDhQ76d1VGbly9fsmHDhrFDhw59d60qLy9neXl5bPz48eynn35iERERPLVQY0O5fj2DDRnixu7eZayoiEaYCSE8jDHgzz+DcPx4W8THV2PbNg3o6AASEv/+u/fu3UNAQABu3boFVVVVHDp0SCBG/741gsfhcHDkyBHEx8dDW1sbWlpa6NatW51G9K9cuYJTp06huroaBgYGWLp0qcBmxeVyweVyP45GKSsrw9DQsE73WuXl5eHu3bvYvn07hg0bhhUrVmDcuHECMVLzrawyMzOxbt06jB07FoqKitDU1KzT78bFxSE8PBxOTk4YNWoU3Nzc0LVrV4GtVRwOB4GBgThz5gwMDAwwYsQIyMnJ1el379y5gz/++AP379+HmpoaDhw4IPC1ytXVFcnJyRg/fjwmTpyILl26/OvvVldX48qVKzhx4gREREQwY8YMLF68WKCPPw6Hg+XLl0NSUhJKSkowNDSs076RnZ2N+/fvY+vWrRg+fDhWrVoFVVVVgc2Kw+EgNTUVmzdvhqamJhQVFTF27Ng6/e7Tp08RGhqKffv2YdSoUXB3d0enTp0E9vjjcrm4fv06vL29YWBggJEjR9b5EX6BgYG4du0aIiIiMG7cOOzZs0fAaxXDvn3CePMGGDcOmDQJEBev+eepw0wI4YkTh3PnAnHhQhk6dhyO06cHQFgYNU7VZowhICAAy5Ytw8aNG6GhoYGhQ4e2mKzevn2LK1eu4OnTp5CRkcHy5ctrPEn6UNoPHjwIDw8P2NnZwcjIqN7Tb/nJ06dPERYWhrCwMMybNw9aWlrfzIrD4WDu3LngcrkwNjbGnDlzBPbksyY3b95EXFwc4uLisGvXLvTq1eubJxmvXr2CsbExpk6dCh0dHUyYMKHF5MThcODp6YkXL16gpKQE+/fvr/X4u379OmxsbD6e6Ne1ky0IsrOzcf36dURHR2PYsGGwsrKqNavdu3fD19cXK1asgImJCTp27Nhisnr8+DEiIiIQFhYGCwuLb16oY4yhqqoKxsbGaN++PWbOnAkTE5MWVauuX7+O+Ph4PHv2DPv27fvmhTrGGBITE2FqagpjY2NMmDABGhoaLSanqqoqeHl5ISkpCVVVVdizZ0+tx9/ly5exevVqbN26FRMmTMDgwYNbTFaZmcDNm0BUFMPo0cDChUJfn3/SxFBCCK8oLCxkCQkVTFX1HTt48B1LSvr832JiYtjo0aPZ/v37WWZmpkBOE/ov00RVVFTY8ePHv1rAKSMjgwUEBDAFBQV248YNlpub22Jz4nA4zM/Pj6mrq7N79+6xzMzMz/49MTGR7dmzh6mrq7MXL16worrMzRJQZWVlbOvWrczIyIjFxMR8NqW2srKSxcTEsDlz5jArKyuWkZHBU8+ebo5aZWBgwLZs2cJiY2M/uxXk3bt37OnTp0xZWZm5urq2+FqVmJjIRo8ezU6dOvXVAk7p6ens2rVrbNiwYez27ds89+z3pq5VXl5ebOzYsSwkJIRlZWV9/Dcul8sSEhKYo6Mj09TUZK9evRLIKcV1VVpaytavX8/mzJnDYmJiPsuioqKCxcTEsFmzZrHly5ezjIwMnnr2dFMrKChg+vr6bMeOHSw2NvazW0Hy8/NZdHQ0U1RUZEeOHGFZWVktulbFxuaw0aMPMi8vxl6+pCnZhBA+uNru5cXFpUsvsWSJKQBPxMbeQnZ2NiZOnIh169ZRSP/w9fVFZGQkunTpAiMjI1y5cgV+fn6Ql5fHlClTMGPGDArpn6voe/fuRVlZGTp16gRDQ0P4+fnh6NGjmDVrFszNzSEvL09BAXj37h12794NcXFxDB48GH369MHt27dx+fJlTJ06Fdu2bYOYmBgFBSAiIgI+Pj7o2rUrNDQ0kJSUhJs3b6KoqAi6urqws7OjkP5x7tw5xMTEoHPnzjA2Noafnx+8vb0xatQoTJ06FVOnTqWQ/qlVzs7OqKqqQpcuXTB58mRcuXIF7u7uMDY2hqWlZYuaqVCbnJwc7N+/H506dYKsrCwkJCQQGBiIW7duQV9fHw4ODk32PGdeFxISAn9/f0hISEBLSwsxMTH4448/UF1dDV1dXVhbW1NI/zh9+u/FwTp1AiwsgB49aEo2IYSHTxoePnyKs2ef4+zZKvj59cXQobLo06cPhfOFkpISRERE4Pfff8eLFy+wa9cuqKqqNupzUflVeno6EhISsHHjRqiqqmLBggUYM2ZMi5rSWFcxMTGIjIzEtm3b4ODgAHV1dQwZMoSCqaFWhYSEIDAwECdOnMDp06cxdOjQb05rb8nev3+PyMhIuLu7482bN3BwcICamhp1amqQmpqKhIQErF+/HlpaWpgzZw5UVVUpmBo8efIEERERcHBwwN69ezF69GjIyspSMF/gcrkICQnBzZs3cfbsWZw6dQry8vICsfp8QyssBB4/Bi5cAH79FRCmSAghvEhISAjq6ko4dGgWxo6di/HjJ1Bn+Rvat2+PCRMmID09HV26dMGECROos/wNkpKSGDt2LOLj4zF48GCoqalRZ/kbhg0bhoEDByItLQ2jRo2iznIttWrcuHHgcrmoqKjAhAkTqLP8DR07dsSECRPw+vVrdOvWDRMmTKDO8jdISUlBTU0N8fHxkJWVpc5yLZSUlCApKYmMjAyoqqpSZ/kbhIWFoaGhgcrKSnA4HIwfP546y9/QqRMwYQLw8uXff29FkRBCeJmIiAioP0MIIYQQQpoDjTATQgghhBBCCCHUYSaEEEIIIYQQQqjDTAghhBBCCCGEUIeZEEIIIYQQQgihDjMhhBBCCCGEEEIdZkIIIYQQQgghhDrMhBBCCCGEEEIIdZgJIYQQQgghhBDqMBNCCCGEEEIIIdRhJoQQQgghhBBCqMNMCCGEEEIIIYRQh5kQQgghhBBCCKEOMyGEEEIIIYQQQh1mQghpOSoqKrBhwwb06dMHoqKiUFVVRWBgYL3azMrKwpIlSzBw4ECIiopi8ODBWL16Nd6+fcu3ORUXF2P79u3Q19eHhIQEhISE4OHhUe92CwsLsX79esjIyEBUVBT9+/eHpaUlUlNT+TariIgIrFixAvLy8mjfvj2kpKRgamqKxMREyuoLcXFxMDExwaBBgyAmJoZu3bpBU1MTV69epaxq4ezsDCEhISgoKFCt+kJQUBCEhIRq/BMaGkpZ1SAqKgqGhoaQkJCAmJgYFBQU4OrqSln9w8LC4pv7lJCQEDIyMiinTyQlJWHOnDmQlJSEmJgYhgwZAkdHR5SWlvL9PtWKTpsJIS2RhYUFfH19YWdnBxkZGXh4eGDKlCm4e/cuxo0b910dSzU1NZSUlGD58uXo168fnjx5gsOHD+Pu3buIjIyEsDD/XaPMy8uDo6MjpKSkoKSkhKCgoHq3yeVyoauri/j4eCxfvhyysrJ48eIF3NzccOvWLTx79gwdO3bku6z27t2LkJAQmJiYQFFREW/evMHhw4cxYsQIhIaGflcnR1Czev36Nd6/fw9zc3P06dMHpaWluHjxIgwNDXH06FEsWbKEsvpCeno6du3ahfbt29erHUGtVR/Y2tpi9OjRn22TlpamrL4QEBCAadOmQVlZGfb29ujQoQNevnyJ9PR0yuofS5cuxcSJEz/bxhjDsmXLMGDAAPTt25dy+kdaWhpUVFTQqVMnrFixAhISEnj48CG2b9+OyMhIXLlyhb+zYoQQwuMmT2assrLh2gsLC2MA2L59+z5uKysrY4MHD2Zqamrf1aanpycDwK5du/bZ9m3btjEALCoqqtFz0tLSYlOmTGnQNsvLy1lWVhZjjLGIiAgGgJ08ebJebYaEhDAA7PDhw59t//333xkA5ufn16g5lZaWMlFRUebi4tKg7YaEhLCKiorPtiUmJrK2bduy+fPn82VWQUFBDAB78uRJo++/1dXVTElJicnJyfFlVlu3bmXdunVjHA6nUdqfPXs209bWZuPHj2fy8vLf3Q4v1KoxY8awWbNmNWibd+/eZQCYj49Pg7XZ3FkVFRWx1q1bMzc3twZtt7CwkPXs2ZPNnDmzwfbX5s7qjz/+YABYUlJSo75OcHAwA8CcnZ359vhbu3Yt69u3L+NyuQ3WprOzMwPAYmNjP9u+cOFCBoDl5+fzZVa6uoxxOIzRlGxCSIvj6+sLERGRz0ax2rVrB0tLSzx8+BBpaWn/uc2ioiIAQM+ePT/b3rt3bwCAqKgoX2bVtm1b9OrVq0HbFNSs1NXV0aZNm8+2ycjIQF5eHs+ePaOs/oWIiAj69euHgoICyuoL9+/fh6+vL3755Rc6/urg/fv3qK6upqy+wcvLC9nZ2XB2doawsDBKSkrA5XIpqzpmJyQkhHnz5lFOdfxcwsLCX3038ltW1GEmhLQ4jx8/hqysLMTFxT/brqKiAgCIjo7+z21qampCWFgYK1euRGhoKNLT03Hjxg04OztjxowZGDJkCAX/j1GjRqF9+/awt7fHnTt3kJGRgXv37mH9+vUYPXr0V1Pg+BljDNnZ2ejWrRtlVYOSkhLk5eXh5cuXOHjwIP744w/o6OhQVp/gcDiwsbGBlZUVhg0bVu/2BL1WLVq0COLi4mjXrh20tLTw6NEjyuoLt2/fhri4ODIyMiAnJ4cOHTpAXFwcP/30E8rLyymrb6iqqoK3tzfU1dUxYMAAyukTEyZMAABYWloiOjoaaWlpuHDhAo4cOQJbW9vvupWEp7KiyZ6EkJY2JVteXp5pa2t/tT0uLo4BYO7u7t/V7m+//cY6d+7MAHz8Y25uzqqqqpokp8aYkv2phpqSzRhj165dY7179/4sq0mTJrH37983ek6NNSW7JmfOnGEA2IkTJ/gyq8aekr106dKPn0lYWJgZGxt/19Q9XsiqsaZkHz58mHXq1Inl5OQwxli9p2TzQq1qjCnZISEhbNasWezEiRPsypUrbPfu3axr166sXbt29Zq62ZxZNdaUbEVFRSYmJsbExMSYjY0Nu3jxIrOxsWEA2Jw5c/gyq6aYkn316lUGoN7/H819/DXGlGzGGNu5cycTFRX97HNt2bKFr7P6MCWbFv0ihLQ4ZWVlaNu27Vfb27Vr9/Hfv0ffvn2hoqKCKVOmoH///ggODoarqyu6deuG/fv3U/Cf6N69O5SVlT+uKh0dHY2ff/4ZixYtgo+Pj0B8xoSEBFhbW0NNTQ3m5uaUVQ3s7OxgbGyMzMxMeHt7g8PhoLKykrL6x9u3b7Ft2zbY29uje/fuDdauINYqdXV1qKurf/y7oaEhjI2NoaioiE2bNuHmzZuU1T+Ki4tRWlqKZcuWfVwV28jICJWVlTh69CgcHR0hIyNDWX3By8sLrVu3hqmpKR1/NRgwYAA0NTUxa9YsdO3aFdevX8euXbvQq1cvrFixgr+zorErQgiNMNd/hPnBgwdMRESERUREfLbdwcGBCQkJsbi4OBph/sfLly+ZmJgY8/X1/Wy7h4cHA8Bu3LjB9yPMWVlZbNCgQaxfv34sIyODb7NqykW//r6ar8tGjx79XSMfzZ1VY4wwL1u2jElLS3+2mFx9R5h5oVY1xgjzt8yZM4e1adOGVVdX811WjTXCLC8vzwCwe/fufbb93r17/9femYdFVbZ//IuCBpILrriR5q6ES6G0vBqvS5iYlcvPNXPJXCuXlNRywbTFLdOEMAU1cnmzXJLMXNMiLSI3xEQUXBCVTWAYluf3x7cRVBBZhpkzc3+ua64rZ6bDOfec5z73/igAKjAwUHOyMnaGOSUlRTk4OKhevXqV6DjmsP6MkWEODg5W9vb2KiYm5q73hw8frhwcHNSNGzc0KSsZ+iUIgtXi7OyMq1ev3ve+4b26desW+Zh+fn6oXbs2nnzyybve7927N5RSOHr0qAj+X9atWwedTodevXrdJysAOHLkiKavLykpCV5eXkhMTERISEix7idrkdW99O3bF8eOHSvW3tWWJqtz587B398fkyZNwpUrVxAdHY3o6GjodDpkZmYiOjoat27dEl1VCA0aNIBer0dqaqrI6l8MOuneYUq1atUCACQkJIis7uG7775DWloaBg8eXKLjWKqcVq1ahXbt2qF+/fr3XVdaWhrCwsI0LStxmAVBsDratm2LyMjIOxMYDYSGht75vKjExcUhOzv7vvczMzMBoFQmtloKcXFxUErdJy9LkJVOp4O3tzciIyOxc+dOtGrVSmRVBAztEElJSVYvq8uXLyMnJweTJk1Co0aN7rxCQ0MRGRmJRo0aYd68eaKrCiEqKgqPPPIIHB0dRVb/0qFDhzv3WF6uXLkCAMUq/7f0+2rjxo1wdHS8E4AriU63RDkZ47rMSVbiMAuCYHX07dsX2dnZ8Pf3v/NeRkYG1q5di44dO6JBgwZFPmazZs0QFxeHAwcO3PV+cHAwAKBdu3Yi+DyyUkph8+bNFiWr7OxsDBgwAL/++iu2bNkCDw8PkVUBXL9+PV8jKCgoCPb29sUKNFiarNq0aYNt27bd92rdujUaNmyIbdu2YeTIkaKr/iU+Pv6+98LDw7F9+3Z0794d5cqVE1n9i6EHd82aNXe9HxAQAFtb2zsTj0VWuffW3r178fLLL8PBwaHEOt0S5dSsWTOEhYXdVx0UHByMcuXK4YknntC2rKQ7UhAEa+thVkqpfv36KVtbWzVt2jTl5+ennn76aWVra3tfT9cHH3ygAKj9+/c/8HgRERGqUqVKytHRUfn4+KjVq1ergQMHKgCqW7duZSInY/Uwr1ixQs2fP1+NHTtWAVCvvPKKmj9/vpo/f75KTEy88721a9c+VI/zjRs3VJ06dVSFChXUpEmTlJ+fnxozZowqX768at269V39mlrqYX7rrbcUAOXt7a3Wr19/3ysvWpGVsXqY+/Tpozw9PdWcOXPUl19+qebPn69atGihANz3u2hFVsaakn0vBfUwa0lXGaOH2aD/fH19lb+/v3r77beVg4ODqlKlijp9+rQmZWWsHmallBoxYoQCoPr3769Wrlyp+vXrpwAoHx8fTcrKmD3MK1asUABUSEhIgd/R0vozRg/zwYMHVfny5VWtWrXUvHnz1MqVK5WXl5cCoEaNGqVZWRl6mMVhFgTBKh3m9PR0NXXqVFWnTh1VsWJF9dRTT+X7MJwyZYqysbFRZ86cKfSYERERqm/fvqpBgwbKzs5Oubi4qKlTp6rU1FRNO8wuLi53bemQ93XhwoUiGRUGYmNj1YgRI1SjRo1UhQoVlLOzsxo9erSKj483upyM5TB37ty5QDndG5/WiqyM5TAHBwerrl27qtq1aytbW1tVrVo11bVrV/X9998Xy1g1B1mZ2mHWkq4yhsO8fPly5e7urpycnJStra1ydnZWQ4YMydeB0oqsjOkw6/V6NWfOHOXi4qLs7OxUkyZN1NKlSzUrK2M6zJ06dVK1atV64OA4La0/Y20rFRoaqry8vFSdOnWUnZ2datasmVqwYMF9W0BponUQEQAAFzRJREFUSVYGh9lGKaWkQFAQBHOmZ0/g++8BO7uy/9vu7u5wcXHRxJY0np6esLe3x65du0xW5hcdHY3ff//drOWUnp6O6tWrw9fXF5MnTxZZPYCDBw+iS5cuCA8PL1ZJnTXJavbs2Vi9ejXi4uKKVf5rTbrKw8MD9erVw9atW03y97Uiq5SUFFSvXh3Lly/H2LFjRVYPICQkBF5eXjh37hyaNGkicnoA06ZNQ3BwMGJiYmBjYyOyegDduwMhIYDswywIglAAycnJCA8PR2BgoAijEJRSOHDgADZs2CDCEFmJrERXiaxEViInwWJkJQ6zIAhCAVSuXBkZGRkiiIfAxsYm30FOgshKZCW6SmQlshI5CVqWlUzJFgRBEARBEARBEARxmAVBEARBEARBEARBHGZBEARBEARBEARBEIdZEARBEARBEARBEMRhFgRBEARBEARBEARxmAVBEARBEARBEARBHGZBEARBEARBEARBEIdZEARBEARBEARBEMRhFgRBEARBEARBEARxmAVBEARBEARBEARBHGZBEARBEARBEARBsDhsRQSCIJg7NjYKUODLxkYEci9KAQCmAiif598iq/xlZQdglY0NOhhkJXIqUFbNAHwJoL7IqtD11wdAcwA2SomsCpGVD4BKNjaiqwqR1SNKYbWNDTxk/RUqqzb/6qqasv4KXX99AbTP+57IqkBZUTQ2kmEWBMH8CfwiDba9ewJr1gD//CMCycuVK8D+/UD37ujp44Me48cD3bsDv/wCXLsm8snLuXOAnx9s+/bF8BMn4JqTAwwYAJw+DaSkiHwMZGZSJpMnw3nLFoyKiYHTsmXA7NnAmTNAdrbIyEBiInDqFNCnDzrUrYshhw7BpmdPYP16ICpK5JOXy5eBn34CundH70WL8N/Bg4EePYDffgPi4kQ+eQ31yEjg889hN3gwRkRGomViIjB4MNfl7dsiIwMZGZTJxImov2cPRsXEoMrcucC8eaKr7uXWLeDECcDbGx2bN8fA3bth06MH8M03wIULIp+8xMQAu3YB3btj47wo2NgANkoZwnuCIAhmztatwPHjNLKef966ZaHTAatWAQkJQOXKwLRpd3++cCGQng4MHw40bmzdsjp/Hti2DYiPBzw8gD597nZ4fH2B6tWByZOBihWtW1b79wO//05Zvf460Lp17mfHjgGbNgFubsDQoaKP1q4FYmMZbJk7F7C3z/0sOBj4+2+gZ0/gueesW05pacAXX3CtVa8OvP323c6hry+QlQWMHAk0bGjdsoqIAHbuBK5fBzp3Bl58Mfez+Hjgo4+AmjWpq+zsrFtWe/YAf/4J3LgBvPEG0KxZ7mdHj1Lnt28PDBwouioggMH1tDQGEypUyP0sMJD3Xe/efD5aMykpgJ8fdZWzMzB+/J2PxGEWBEFbpKbS+PrtN+DLLwFHR+syHLKz6SwvWAB4egKtWgF16+b/3dhY4OOPAQcHZgft7YFyVlRYpNfzAfjhhzQ8PTzudmry8tdfNNxffpkve3vrKlPT6Wh8Hj0KPP00ZZXf9SsFbNnCDOqCBTRSH3nEeuSkFI3OjRuBatWANm2Ali0LNr5WrgTCwqir7O2tU1fNm8eql9atgTp18v/uxYu5zuC771qnrkpIAD79FPDyAp55puDg3fHjXHuDBlGvWZuuSk8HQkOpszt14is/cnIYuPrmG+CTT4BGjawrIGrQVevW0flr0+buoEJekpKAFSuYlV+9mveUra316aoPPmCQ09WVuigP4jALgqA9srL4IBg1CnjqKb46d7Z8oyE8nFmrb7+lEdqmTeHXrNezDMvXF+jXjw8CV1fLNxQMmdLwcJbyOzgU/v9kZDCD+uOPwJAhQNu2BQcjLIXUVODgQWD3bmb/Zs0q3FDKyeF9NWsW//3f/zJ4Y+nG6MWLXEtBQUD//sArrxTu1GVlAcnJzIA9/TTw5JPAf/5j+Tr6zz+59rZvBxYtoqH+MLrqjz8Y5Pu//6N+y1vhYKm66uefGQA+e5aZwMLWkUFXBQUBhw8zg9qhA1C7tmXLKjmZrUY7dgD16wPTpz+8rnr3XT4DOnemvsqbYbVEoqKAkyd5jwwdCnh7P5yuunULePNNoEsXZueffdbyddWxYwy+/PADsHgxAyv56CpxmAVB0DaHDjHiXr8+jVhLJCUFmDmTBtHjj9OYLA4bNgDR0UCvXnQGLZGwMOCrr1iG7u7OTE1RSUujkx0XB/j4AJUqWaasNm1iUOGxx4CXXipeOWxkJAMMOt39bQGWxLx57O2uU4fOb3Eyxfv28f5s3JhVDJZIQgLw/vsMNDVtCvTtWzwnMigIuHSJQQlLdZpDQ1mp0LgxKzo6diyeExkYSF01a5blVnusX88AjIsL8OqrxQtknj4N7N3LbOI771huAOb99+nwOTsDo0cXL1O8Zw+D8y1a0F6wROLjqdfr1eN15m3VygdxmAVB0D6ZmXygbt4MLF3KB0XVqtq/Lp2OfUfLlwMTJtBYf/TRkh0zOZnZ5qQkRujr1bOMzGBCAocKbdzIygMXl5KXlF29Cowdy2h7nz48piVUMVy5QmM9MZHZlpL2jSoFHDnCPt5p09jjbAnZrpwcZpWDgzkzoUmT+8r0ioxez4DOjh3UVbVrA1WqaF9W6elcL8uWAZMmUVc5OpbsmElJLJE0ODj161tGZvDWLQYDvv0WeO01BqzKly/ZMWNjqau8vFim3bChZeiqy5eZVc7MZHa4QYOS66oDB9im8957DMbUqmU5umr9epYUP/YYUKNGyY6ZkQH4+3NQ35Il1FUltT/MgbQ0DkQ16Kq6dQuvQBOHWRAEi0EpGlbTp9MAnTABcHLS7vXs3s2SqosXeU0lNRTuldWFC3wItmpFQ0urxpVSzAbHxvJBuGhR6fY+KgWEhPDl5QW88IJ276kbN9jPd+kSnb/Ro0v3d1eKRsj165zo26aNdmX111+sXjl3jlnSzp1LV056PTBjBnXUpEnadpp37GD2LiaGWc6C+pSLK6vISPZXuroyu69VXZWdTV11+TIdwAULSn/9bd/OdpRevYCuXbV7T8XFcVZCdDSd2uHDS19Wn3zCoOGwYcwwapVjxzh74p9/WH1WnKqqB8kpPZ26qnZt4K23Sh4IMyXbtrH1ITYWmDOnSEEFcZgFQbA8zpzhw7BtW2DMGGYltGJk6fXsaYuKAtq1Y9+jMfnpJw5RGz+e03y1ksExOB2ff86eowcNNCkNMjMZbf/5Z04nr1FDO0NRsrN5/jNnstfYw8O4waRr14DPPmOGcPFi3lNaGeCUmUljau1arr1u3Uqe/XsQp06xZ9fDg1PJtaSrMjJYjn/lCnVVcUqKi8IPP7DH9513+Le0pKsyMhhMatGCuqpJE+P9PZ2Og5sOH+bE36pVtaWrMjI4pNLTk86fMavFrlzh75KZyZ0ltKaroqLYWtOpEwMkxjz3v/+mrnr+ec740IquMtgKO3YwQOLmxrk3RUQcZkEQLJO0NEba/f058KM0o67GICGB/Y1BQVToEyeWjZFjmKS5YgWzaTNnmv82VOfPMyji789Kgm7dyubBnZVFY3TcOBq8EydyUrI5c+wYe/x376bx7Oxcds7UpUvc/qZfP2acjel4lsZve/gwA0g3b9LhL6tWhbQ0Op6BgSwTdXc373vqxg0az199RUP9zTfLRlfl5DDbtWQJgxo+Piw9NWfOnWP2PSAAmDqVA9/KQldlZlJXjRnDDO3Eidx+0JwJDeVMhb17Ka+Stj8URVedP89KrkGDgAEDzNtp1utZph4SwvVgCEqWha2Qnk7Hc9MmVpO0b2/e99T16xzUGBBAR3/kyGI/h8RhFgTBssnJYQT56lWWE9Wvb37nuGYNI8VVqwIjRnBasSmIi2O2OSeH5UrmZjRkZ/O8bG2Z4R03znQR7tBQ4PvvOdjo9dfN756KiaHTV60aS1m9vU13Lps302n39jbPPYn37aPxWbMmtz9yczOd075kCYfRTJlSuqXNpYWfHwMhVauypN9UsyJiY7lVV7lyuUOOzInMTPZfV6yYOyjOVOd45Aiwaxfbb4YMMb97KiqKzx0nJ1aFeXmZ7lw2buRwsVdeKXi7KlPy44/UVzVqsFfZVAPx9Hrqqps3Wa5tKpvlQaxYQZumShUG9UrYfy0OsyAIlk9aGnt2Fy+mwzxmDI0YU2e84uL4ALS3Z4mQOWRL4uPZNz1rFgfSeHqafoBTdjbLfFetoiHTsGHZZR8exIULzIgEBHD/VBcX0w+bS0ujEfPppzTSGzcueO/psiInB4iI4JCjU6d4bk5Opj+vhASe1+HDdOZbtDC945Wayr5Nw1ZMI0awKsCUwSulqKt27aJh3K4d73VTExfHNfj++9Tpzz1n+gFOWVk8r88+43ZPDRqYhzMRFcU+16AgBpDr1TN933xqKqsVli3joMbHHzf9lO/sbPa4btrEe2vhQv5+pj6vW7c40+SPPxhQaN7c9LoqJYXBM19fBjqGDqVdZWpdde0a8N131FGurqU2/0UcZkEQrAelmBkMCGAmyVTbUMXEcNuGsDD2Lg4aZF4ZEsNjITCQD+ihQ01XJhoayj1d//iDGeV27cxTVjNmsCxuzBjTVTF8+y2NvagoTmA2t+EsSuVmJFq1YplocbZnKik6HfD11yyXrViRmUBzy1AqxbLLoCBOPS5kyxOjBoX27eP669KF5fXmuP4CAuhQDBvGPYlNwZEjHBYXFga8/Tazf+YmK6VYGu7oSH1qqiqGLVs4zO3SJTrMpg6eFeR4zZ5Np2v8eNP0gaemclDj2bMMxvr4mKeu2reP5/nSS6bbhuqffzgB/fhxDud86aVSlZU4zIIgWKfjvHEjsHMnsxPNm5dNtjknh9HYW7eAZ5+lUjf3iZPJySxtioxkOWZZDUXR6ZghbdGCJbI9e5r/gJFz5ziErGZNOoXlyxv/nJVij+T8+ezlfuKJYg00KXMMA4n69qWBVVay2ryZmVJvbwaBzCFTWpjOWLeOATZfXw64Kytd9cEHrFjw8KDTbm5Ozb0kJFBXXbzIEl9b27LRVampDJS5ulJXaWGSfkQEdZWLC4eoldX6Cwvj4KgXXqCuMvceWICzUAICGNju0aPsZots2EBHtGdPrkFzbCfLi2EK/L59wEcf8XzLSlfNmMH/dnenbjfC/AlxmAVBsE6yslhSNGcOlfr06cYrPVaKWdKDB6nQ27bV1tYMOh2nS44eTafsjTeMV6Km09Go2rIld4swU5fDFYXbt/lbL1zIgVdduxrPEI2Lo5O+cydlVbmyeQ/WundNJCUx07t/P+VlzMnBkZEcVJWUBLz6Ku8rrUyjNuiqmTOpN6ZNM15LglLMJu/bx4xyq1ba0lXp6axiePNNOvkjRxpvIFJaGvtdN23ib1O5srb2tE9JYQXP4sXUH126GO9vXb3KDOCPP7I/X4u6KjAQ+O03bgdmzMGYERF8BmZlAb17U1Za0VWZmXwGTptGe2ryZOO1JCjFoZZ79zKo0LQpUKmS0S5NHGZBEISICCA4mH2Vb71Vusc+fZrHtrNjlLhbN23Lavdu4Ndfua3Liy+W7rF37mRPsJ0d+/+M6UCVBStXsqxv0CCgZcvSPfayZcyoVaxIA1RLhnp+hvuSJcwUTJ8OODiU3rGTk7nFnK0te9lGjND2PXXiBLB1K43RceNK99jh4Ty2nR37gZ9/Xtuy2rGDBvUzzzAzWJps20anxs6OLSvmPq27MMfjs8/YT/zaa6Wrd5WiQ377NgOfU6aYpg2jtEhMBJYv53X5+JSu3r11i600trZ0yIcO1fb6+/NPDsasV49B9tLk+HEeu0IF6qlnnzX65YjDLAiCALCM78wZPrDee6/k23+kpdH4t7PjljqurtrZN7QwTp5kr1BICLeWKemgnWvXmAnq2RPo3Jn7lFoCej0dnA0bWK62aFHJnEGlKPdFixi5b9HC/EuKH5YbN9gvu2AB74PXXy+ZYa3Xs+T70CGW6zVubP5bgD0sFy5wDX7+OStkOnUqma5KTeX9VLUqt9RxddW2U5N3vZw4wb3TDxygripptuvyZQ6oevllGumtWlnGPaXTcSDf2rV0bOfPL1kJfk4Ot2hbsoTPwaZNS234ksmJj+ca9PXlfTB0aMnKtPV6thIcP87+8iZNTD+QrbSIimIgbvVqVhGVdAbJ7ducfVGvHgeAurmVWaWCOMyCIAh5DSylOMXX2Znl082bF/0YhmnAAwbQUDDnPR1LIiu9nkNR3NzYh1rUh3xiIvtJw8NpfNjZaaf0rKjG49mzzN61bk0jq6jXGRHBbNm1a8zS2NhYnqwM62/bNpabu7kVb//0AwfoKD32GKsgLFlWixZxanynTkXPDObkAP/7H3XVsGGUl6XqqvR0Bhfc3DgMqKhl5jdvMkD499/UVba2lqurTpxgtU/r1sUbnHTqFJ2/hARg0iTLXn+bNrGKxc2teNtQ/fwz5d2yJavPLHX9KcUgTJMm1OlFrcjIzubz8+RJzguoW7fMZSUOsyAIwr1kZXE40OnTNLQ++aTwh75S3LbD35/Z6Q4d2Kts6Vy9yh6io0eBJ59kZvBhZLVmDUu2DGXq5rjnbGkTFsZrPnSIPZYdOxb+0FeKDrKDA7NZ/fubZlprWfPDDzS8T55kCeTD9Bxfv84MTbt2NPa7d7d8Oen17Pc/eZL3yocfPtz6O3iQ2cQuXbhuXV0tX1axseyX/+UXZocHD344WX3xBauP3N05rMoctrQzNsePU18dPsw2pXbtCtdVOTn8rpMTHcD+/S3TAbyX7dt5f5w5w0yxo2PhuuryZZZ0d+jAtefpafly0uno9J44wWq7uXMfbv399BNnXXTpwjVooqoOcZgFQRAKIiWFpdpTptAR7Ncv//Kfq1eB8+cZLR47FqhRwzoMhbzcvEnHed06Tsh84on8vxcZycEp9vY0Esxhj9KyJDubslq5kga8ry+rGfL73okTrFYYMIBZxEcftS5Z6XQctjNhAqfpTpyYf2YwOZnrb906Dl+qUkXbPd3FwSCDGTOYgenTJ38ddPkyhy8dPco2CGvUVTduMFscHMxqooLmC0REcKuoGjXY0+3kZJ26aulSZovnzs1/MGZWFgM2mzfzOensrK1BcaVBejorpsaNYzBm7Nj8228SE1nObdBVVataTqvWw5KUxIqr2bOp0w1VQPcSE8Pv/fUXK2Bq1jRppYI4zIIgCA9DUBAVuKcns6IAI+pLl9KxrlCBxqq1GZ/5GVmLFvG/R43KNbCuXmUPoU7HCPHAgXJPxcZyu5JHH+XWLoZ759dfGXxJT2dJpKn2wDYnDh5kZr5lS25FZeDrr+kAZmQYdyKrlvjqK663Hj2YPTY4NUuWcLaCvT3w7ruWWVJcFDIzqavKlWOQoUaNXEM9KIi6ys3t7vvNWomOppNXrVpumTXANXnoEHXVq69qY5soY7N3L3W4q+vd+6cHBjIAn5HBKdJVq4qs/PwYwHrxxdyKPL2euio9nRPCp0wxi1MVh1kQBOFhyMnhBOc9exj17NePzs477wDNmlnOQJPSIDmZ2dGAAPZwK8Xs18iRzDxbW6b0QcTEMOu+ZAkniW7alNvP5u4uAZi8nDjBPu6tWzmY78MPOYG8fXvLGb5UGmRnU1ft3g1cusQhauvX0/Bs2pQDcwSSmMjS/9Wr6RynpHBOwLBhNOCNuE2NJp3ms2fZIjFhAh3o9u05pdjdXQIweQkPZyXV9u0MpC9cyAnkbm4c1iiQrCzqqp076Tj/5z/U75MnU1flV30lDrMgCIJGjNGbNzksZ9Qoyx3+UloPw19+oXyeecY6em+Lg1KUlb8/+/6cnLSzR2lZk5OTW8UwYwblJEGFgnXVtWt0nF97TXRVYbpq3z4G8556SnRVYbpq1SoGFbS0n7IpdFVWFvDxx5wULuvvwboqJobVCgMHmqWs/h/ipmmdLKyEfAAAAABJRU5ErkJggg==;movable=0;resizable=0;rotatable=0;deletable=0;editable=0;locked=1;connectable=0;" vertex="1" parent="1">
          <mxGeometry x="-10" y="120" width="972" height="606" as="geometry" />
        </mxCell>
        <mxCell id="SD4ct3XgBwR6_ARI4saU-4" value="Clause 4860 (length 14): B_5_5 AND CB_1_0_6_0 AND CR_2_0_6_5 AND CR_1_1_5_4 AND CB_1_4_6_8 AND CB_4_4_5_5 AND CR_1_5_3_7 AND NOT CR_4_0_1_4 AND NOT CB_3_1_7_3 AND NOT CB_1_2_7_8 AND NOT CR_3_2_8_3 AND NOT CR_4_4_6_8 AND NOT CB_7_4_0_6 AND NOT CB_0_6_7_7" style="text;html=1;align=center;verticalAlign=middle;whiteSpace=wrap;rounded=0;fontSize=18;" vertex="1" parent="1">
          <mxGeometry x="40" y="30" width="1070" height="30" as="geometry" />
        </mxCell>
        <mxCell id="SD4ct3XgBwR6_ARI4saU-5" value="B_5_5" style="ellipse;whiteSpace=wrap;html=1;aspect=fixed;fillColor=#1ba1e2;strokeColor=#006EAF;fontColor=#ffffff;" vertex="1" parent="1">
          <mxGeometry x="560" y="460" width="60" height="60" as="geometry" />
        </mxCell>
        <mxCell id="SD4ct3XgBwR6_ARI4saU-6" value="" style="shape=flexArrow;endArrow=classic;html=1;rounded=0;fillColor=#1ba1e2;strokeColor=#006EAF;opacity=40;" edge="1" parent="1">
          <mxGeometry width="50" height="50" relative="1" as="geometry">
            <mxPoint x="120" y="170" as="sourcePoint" />
            <mxPoint x="450" y="170" as="targetPoint" />
          </mxGeometry>
        </mxCell>
        <mxCell id="SD4ct3XgBwR6_ARI4saU-7" value="CB_1_0_6_0" style="edgeLabel;html=1;align=center;verticalAlign=middle;resizable=0;points=[];" vertex="1" connectable="0" parent="SD4ct3XgBwR6_ARI4saU-6">
          <mxGeometry x="-0.005" y="2" relative="1" as="geometry">
            <mxPoint x="-1" as="offset" />
          </mxGeometry>
        </mxCell>
        <mxCell id="SD4ct3XgBwR6_ARI4saU-8" value="" style="shape=flexArrow;endArrow=classic;html=1;rounded=0;fillColor=#FF0000;strokeColor=#3700CC;opacity=40;" edge="1" parent="1">
          <mxGeometry width="50" height="50" relative="1" as="geometry">
            <mxPoint x="180" y="190" as="sourcePoint" />
            <mxPoint x="650" y="470" as="targetPoint" />
          </mxGeometry>
        </mxCell>
        <mxCell id="SD4ct3XgBwR6_ARI4saU-9" value="CR_2_0_6_5" style="edgeLabel;html=1;align=center;verticalAlign=middle;resizable=0;points=[];" vertex="1" connectable="0" parent="SD4ct3XgBwR6_ARI4saU-8">
          <mxGeometry x="0.1498" y="2" relative="1" as="geometry">
            <mxPoint as="offset" />
          </mxGeometry>
        </mxCell>
        <mxCell id="SD4ct3XgBwR6_ARI4saU-11" value="" style="shape=flexArrow;endArrow=classic;html=1;rounded=0;fillColor=#FF0000;strokeColor=#3700CC;opacity=40;" edge="1" parent="1">
          <mxGeometry width="50" height="50" relative="1" as="geometry">
            <mxPoint x="160" y="240" as="sourcePoint" />
            <mxPoint x="530" y="430" as="targetPoint" />
          </mxGeometry>
        </mxCell>
        <mxCell id="SD4ct3XgBwR6_ARI4saU-12" value="CR_1_1_5_4" style="edgeLabel;html=1;align=center;verticalAlign=middle;resizable=0;points=[];" vertex="1" connectable="0" parent="SD4ct3XgBwR6_ARI4saU-11">
          <mxGeometry x="0.1498" y="2" relative="1" as="geometry">
            <mxPoint as="offset" />
          </mxGeometry>
        </mxCell>
        <mxCell id="SD4ct3XgBwR6_ARI4saU-13" value="" style="shape=flexArrow;endArrow=classic;html=1;rounded=0;fillColor=#1ba1e2;strokeColor=#006EAF;opacity=40;" edge="1" parent="1">
          <mxGeometry width="50" height="50" relative="1" as="geometry">
            <mxPoint x="270" y="440" as="sourcePoint" />
            <mxPoint x="770" y="670" as="targetPoint" />
          </mxGeometry>
        </mxCell>
        <mxCell id="SD4ct3XgBwR6_ARI4saU-14" value="CB_1_4_6_8" style="edgeLabel;html=1;align=center;verticalAlign=middle;resizable=0;points=[];" vertex="1" connectable="0" parent="SD4ct3XgBwR6_ARI4saU-13">
          <mxGeometry x="-0.005" y="2" relative="1" as="geometry">
            <mxPoint x="-1" as="offset" />
          </mxGeometry>
        </mxCell>
        <mxCell id="SD4ct3XgBwR6_ARI4saU-15" value="" style="shape=flexArrow;endArrow=classic;html=1;rounded=0;fillColor=#1ba1e2;strokeColor=#006EAF;opacity=40;" edge="1" parent="1" target="SD4ct3XgBwR6_ARI4saU-5">
          <mxGeometry width="50" height="50" relative="1" as="geometry">
            <mxPoint x="480" y="450" as="sourcePoint" />
            <mxPoint x="560" y="470" as="targetPoint" />
          </mxGeometry>
        </mxCell>
        <mxCell id="SD4ct3XgBwR6_ARI4saU-16" value="CB_4_4_5_5" style="edgeLabel;html=1;align=center;verticalAlign=middle;resizable=0;points=[];" vertex="1" connectable="0" parent="SD4ct3XgBwR6_ARI4saU-15">
          <mxGeometry x="-0.005" y="2" relative="1" as="geometry">
            <mxPoint x="-1" as="offset" />
          </mxGeometry>
        </mxCell>
        <mxCell id="SD4ct3XgBwR6_ARI4saU-17" value="" style="shape=flexArrow;endArrow=classic;html=1;rounded=0;fillColor=#FF0000;strokeColor=#3700CC;opacity=40;" edge="1" parent="1">
          <mxGeometry width="50" height="50" relative="1" as="geometry">
            <mxPoint x="310" y="490" as="sourcePoint" />
            <mxPoint x="490" y="600" as="targetPoint" />
          </mxGeometry>
        </mxCell>
        <mxCell id="SD4ct3XgBwR6_ARI4saU-18" value="CR_1_5_3_7" style="edgeLabel;html=1;align=center;verticalAlign=middle;resizable=0;points=[];" vertex="1" connectable="0" parent="SD4ct3XgBwR6_ARI4saU-17">
          <mxGeometry x="0.1498" y="2" relative="1" as="geometry">
            <mxPoint as="offset" />
          </mxGeometry>
        </mxCell>
        <mxCell id="SD4ct3XgBwR6_ARI4saU-19" value="" style="shape=flexArrow;endArrow=classic;html=1;rounded=0;fillColor=#FF0000;strokeColor=#3700CC;opacity=40;" edge="1" parent="1">
          <mxGeometry width="50" height="50" relative="1" as="geometry">
            <mxPoint x="330" y="190" as="sourcePoint" />
            <mxPoint x="260" y="410" as="targetPoint" />
          </mxGeometry>
        </mxCell>
        <mxCell id="SD4ct3XgBwR6_ARI4saU-20" value="NOT CR_4_0_1_4" style="edgeLabel;html=1;align=center;verticalAlign=middle;resizable=0;points=[];" vertex="1" connectable="0" parent="SD4ct3XgBwR6_ARI4saU-19">
          <mxGeometry x="0.1498" y="2" relative="1" as="geometry">
            <mxPoint as="offset" />
          </mxGeometry>
        </mxCell>
        <mxCell id="SD4ct3XgBwR6_ARI4saU-21" value="" style="shape=flexArrow;endArrow=classic;html=1;rounded=0;fillColor=#1ba1e2;strokeColor=#006EAF;opacity=40;" edge="1" parent="1">
          <mxGeometry width="50" height="50" relative="1" as="geometry">
            <mxPoint x="310" y="240" as="sourcePoint" />
            <mxPoint x="640" y="350" as="targetPoint" />
          </mxGeometry>
        </mxCell>
        <mxCell id="SD4ct3XgBwR6_ARI4saU-22" value="NOT CB_3_1_7_3" style="edgeLabel;html=1;align=center;verticalAlign=middle;resizable=0;points=[];" vertex="1" connectable="0" parent="SD4ct3XgBwR6_ARI4saU-21">
          <mxGeometry x="-0.005" y="2" relative="1" as="geometry">
            <mxPoint x="-1" as="offset" />
          </mxGeometry>
        </mxCell>
        <mxCell id="SD4ct3XgBwR6_ARI4saU-23" value="" style="shape=flexArrow;endArrow=classic;html=1;rounded=0;fillColor=#1ba1e2;strokeColor=#006EAF;opacity=40;" edge="1" parent="1">
          <mxGeometry width="50" height="50" relative="1" as="geometry">
            <mxPoint x="200" y="300" as="sourcePoint" />
            <mxPoint x="820" y="670" as="targetPoint" />
          </mxGeometry>
        </mxCell>
        <mxCell id="SD4ct3XgBwR6_ARI4saU-24" value="NOT CB_1_2_7_8" style="edgeLabel;html=1;align=center;verticalAlign=middle;resizable=0;points=[];" vertex="1" connectable="0" parent="SD4ct3XgBwR6_ARI4saU-23">
          <mxGeometry x="-0.005" y="2" relative="1" as="geometry">
            <mxPoint x="-1" as="offset" />
          </mxGeometry>
        </mxCell>
        <mxCell id="SD4ct3XgBwR6_ARI4saU-25" value="" style="shape=flexArrow;endArrow=classic;html=1;rounded=0;fillColor=#FF0000;strokeColor=#3700CC;opacity=40;" edge="1" parent="1">
          <mxGeometry width="50" height="50" relative="1" as="geometry">
            <mxPoint x="340" y="310" as="sourcePoint" />
            <mxPoint x="710" y="360" as="targetPoint" />
          </mxGeometry>
        </mxCell>
        <mxCell id="SD4ct3XgBwR6_ARI4saU-26" value="NOT CR_3_2_8_3" style="edgeLabel;html=1;align=center;verticalAlign=middle;resizable=0;points=[];" vertex="1" connectable="0" parent="SD4ct3XgBwR6_ARI4saU-25">
          <mxGeometry x="0.1498" y="2" relative="1" as="geometry">
            <mxPoint as="offset" />
          </mxGeometry>
        </mxCell>
        <mxCell id="SD4ct3XgBwR6_ARI4saU-27" value="" style="shape=flexArrow;endArrow=classic;html=1;rounded=0;fillColor=#FF0000;strokeColor=#3700CC;opacity=40;" edge="1" parent="1">
          <mxGeometry width="50" height="50" relative="1" as="geometry">
            <mxPoint x="500" y="410" as="sourcePoint" />
            <mxPoint x="770" y="650" as="targetPoint" />
          </mxGeometry>
        </mxCell>
        <mxCell id="SD4ct3XgBwR6_ARI4saU-28" value="NOT CR_4_4_6_8" style="edgeLabel;html=1;align=center;verticalAlign=middle;resizable=0;points=[];" vertex="1" connectable="0" parent="SD4ct3XgBwR6_ARI4saU-27">
          <mxGeometry x="0.1498" y="2" relative="1" as="geometry">
            <mxPoint as="offset" />
          </mxGeometry>
        </mxCell>
        <mxCell id="SD4ct3XgBwR6_ARI4saU-29" value="" style="shape=flexArrow;endArrow=classic;html=1;rounded=0;fillColor=#1ba1e2;strokeColor=#006EAF;opacity=40;" edge="1" parent="1">
          <mxGeometry width="50" height="50" relative="1" as="geometry">
            <mxPoint x="700" y="440" as="sourcePoint" />
            <mxPoint x="270" y="540" as="targetPoint" />
          </mxGeometry>
        </mxCell>
        <mxCell id="SD4ct3XgBwR6_ARI4saU-30" value="NOT CB_7_4_0_6" style="edgeLabel;html=1;align=center;verticalAlign=middle;resizable=0;points=[];" vertex="1" connectable="0" parent="SD4ct3XgBwR6_ARI4saU-29">
          <mxGeometry x="-0.005" y="2" relative="1" as="geometry">
            <mxPoint x="-36" y="8" as="offset" />
          </mxGeometry>
        </mxCell>
        <mxCell id="SD4ct3XgBwR6_ARI4saU-32" value="" style="shape=flexArrow;endArrow=classic;html=1;rounded=0;fillColor=#1ba1e2;strokeColor=#006EAF;opacity=40;" edge="1" parent="1">
          <mxGeometry width="50" height="50" relative="1" as="geometry">
            <mxPoint x="270" y="560" as="sourcePoint" />
            <mxPoint x="790" y="600" as="targetPoint" />
          </mxGeometry>
        </mxCell>
        <mxCell id="SD4ct3XgBwR6_ARI4saU-33" value="NOT CB_0_6_7_7" style="edgeLabel;html=1;align=center;verticalAlign=middle;resizable=0;points=[];" vertex="1" connectable="0" parent="SD4ct3XgBwR6_ARI4saU-32">
          <mxGeometry x="-0.005" y="2" relative="1" as="geometry">
            <mxPoint x="-19" y="2" as="offset" />
          </mxGeometry>
        </mxCell>
      </root>
    </mxGraphModel>
  </diagram>
</mxfile>
